<svg width="49" height="74" viewBox="0 0 49 74" fill="none" xmlns="http://www.w3.org/2000/svg">
<path d="M14.8704 17.3183H0C0.260427 14.2452 1.84903 11.3284 4.6356 8.82833C7.1357 6.58866 10.5213 4.81775 14.3235 3.67188C13.1255 5.52091 12.4224 7.73454 12.4224 10.1044C12.4224 12.4743 13.3339 15.313 14.8704 17.3183Z" fill="#FAA500"/>
<path d="M48.5176 17.3183H33.6472C35.1837 15.313 36.0952 12.8129 36.0952 10.1044C36.0952 7.39599 35.3921 5.52091 34.1941 3.67188C38.0224 4.79171 41.3819 6.58866 43.882 8.82833C46.6946 11.3284 48.2832 14.2452 48.5437 17.3183H48.5176Z" fill="#FAA500"/>
<path d="M31.1991 2.78657C29.3761 1.06775 26.9281 0 24.2457 0C21.5633 0 19.0632 1.06775 17.2402 2.83866C15.3391 4.68769 14.1411 7.26592 14.1411 10.1046C14.1411 12.9432 15.4172 15.7298 17.4485 17.5788C19.2455 19.2195 21.6414 20.2092 24.2457 20.2092C26.85 20.2092 29.2459 19.2195 31.0428 17.5788C33.0742 15.7298 34.3503 13.0734 34.3503 10.1046C34.3503 7.21384 33.1523 4.60956 31.1991 2.78657ZM27.9958 14.4798C27.9438 14.7141 27.7875 14.9225 27.5792 15.0267C27.2146 15.235 26.7979 15.3392 26.3552 15.3392C23.9853 15.3392 21.4852 12.1099 20.7039 9.21912C20.157 7.18779 20.5476 5.62523 21.7456 4.94812C21.8758 4.86999 22.0321 4.8179 22.1883 4.8179C22.5008 4.8179 22.8133 5.0002 22.9696 5.26063L23.4905 6.14608C23.6207 6.35442 23.6467 6.58881 23.5686 6.82319C23.4905 7.05758 23.3602 7.23988 23.1519 7.37009L22.8654 7.52635C22.5269 7.70865 22.3706 8.09929 22.4487 8.48993C22.8654 10.1306 23.5686 11.3807 24.7926 12.5526C25.0791 12.813 25.4957 12.8651 25.8343 12.6828L26.1208 12.5265C26.251 12.4484 26.4072 12.3963 26.5635 12.3963C26.876 12.3963 27.1885 12.5786 27.3448 12.8391L27.8656 13.7245C27.9958 13.9329 28.0219 14.1933 27.9698 14.4016L27.9958 14.4798Z" fill="#FAA500"/>
<path d="M32.0065 19.0371C29.9231 20.8341 27.2146 21.9279 24.2718 21.9279C21.329 21.9279 18.5945 20.8341 16.5371 19.0371H6.09399V68.9871H42.4757V19.0371H32.0326H32.0065ZM15.5996 65.5755H10.964V60.3409H15.5996V65.5755ZM15.5996 58.57H10.964V53.3093H15.5996V58.57ZM15.5996 51.5905H10.964V46.3559H15.5996V51.5905ZM15.5996 44.6111H10.964V39.3504H15.5996V44.6111ZM15.5996 37.6056H10.964V32.3449H15.5996V37.6056ZM15.5996 30.6261H10.964V25.3655H15.5996V30.6261ZM31.1992 65.5755H17.3445V60.3409H31.1992V65.5755ZM31.1992 58.57H17.3445V53.3093H31.1992V58.57ZM31.1992 51.5905H17.3445V46.3559H31.1992V51.5905ZM31.1992 44.6111H17.3445V39.3504H31.1992V44.6111ZM31.1992 37.6056H17.3445V32.3449H31.1992V37.6056ZM31.1992 30.6261H17.3445V25.3655H31.1992V30.6261ZM37.5796 65.5755H32.944V60.3409H37.5796V65.5755ZM37.5796 58.57H32.944V53.3093H37.5796V58.57ZM37.5796 51.5905H32.944V46.3559H37.5796V51.5905ZM37.5796 44.6111H32.944V39.3504H37.5796V44.6111ZM37.5796 37.6056H32.944V32.3449H37.5796V37.6056ZM37.5796 30.6261H32.944V25.3655H37.5796V30.6261Z" fill="#FAA500"/>
<path d="M44.6632 70.7583H3.85425V73.1803H44.6632V70.7583Z" fill="#FAA500"/>
</svg>
