<svg width="71" height="70" viewBox="0 0 71 70" fill="none" xmlns="http://www.w3.org/2000/svg">
<path d="M37.2283 47.1846C36.7558 54.3311 31.0626 60.0243 23.916 60.4968V54.31C27.6559 53.8755 30.607 50.9245 31.0415 47.1846H37.2283Z" fill="#FAA500"/>
<path d="M22.0641 54.312V60.4988C14.9155 60.0263 9.22226 54.3331 8.74976 47.1865H14.9366C15.3711 50.9264 18.3221 53.8775 22.0641 54.312Z" fill="#FAA500"/>
<path d="M22.0641 32.0181V38.2049C18.3221 38.6394 15.3711 41.5904 14.9366 45.3324H8.74976C9.22226 38.1859 14.9155 32.4927 22.0641 32.0181Z" fill="#FAA500"/>
<path d="M37.2283 45.3344H31.0415C30.607 41.5924 27.6559 38.6413 23.916 38.2068V32.02C31.0626 32.4925 36.7537 38.1857 37.2283 45.3344Z" fill="#FAA500"/>
<path d="M25.9263 47.1844H29.1663C28.7571 49.9013 26.6245 52.0318 23.9076 52.4431V49.2031C23.9076 48.6926 23.4942 48.2771 22.9816 48.2771C22.469 48.2771 22.0556 48.6905 22.0556 49.2031V52.4431C19.3429 52.0297 17.2124 49.8992 16.8032 47.1844H20.0432C20.5537 47.1844 20.9692 46.771 20.9692 46.2584C20.9692 45.748 20.5558 45.3324 20.0432 45.3324H16.8032C17.2146 42.6155 19.345 40.4829 22.0619 40.0737V43.3222C22.0619 43.8326 22.4753 44.2482 22.9879 44.2482C23.5005 44.2482 23.9139 43.8347 23.9139 43.3222V40.0737C26.6308 40.4851 28.7613 42.6176 29.1726 45.3324H25.9326C25.4221 45.3324 25.0066 45.7458 25.0066 46.2584C25.0066 46.7689 25.42 47.1844 25.9326 47.1844H25.9263Z" fill="#FAA500"/>
<path d="M6.86602 46.2585C6.86602 46.5665 6.87445 46.8766 6.89344 47.1846H0.926015C0.415547 47.1846 0 46.7711 0 46.2585C0 45.7481 0.413437 45.3325 0.926015 45.3325H6.89344C6.87445 45.6405 6.86602 45.9506 6.86602 46.2585Z" fill="#FAA500"/>
<path d="M23.914 62.353V68.3205C23.914 68.8309 23.5006 69.2465 22.988 69.2465C22.4754 69.2465 22.062 68.833 22.062 68.3205V62.353C22.37 62.372 22.6801 62.3805 22.988 62.3805C23.2981 62.3805 23.6061 62.372 23.914 62.353Z" fill="#FAA500"/>
<path d="M45.976 46.2585C45.976 46.769 45.5625 47.1846 45.0499 47.1846H39.0825C39.1015 46.8766 39.1099 46.5665 39.1099 46.2585C39.1099 45.9506 39.1015 45.6405 39.0825 45.3325H45.0499C45.5604 45.3346 45.976 45.7481 45.976 46.2585Z" fill="#FAA500"/>
<path d="M23.914 24.1965V30.1639C23.6061 30.145 23.296 30.1365 22.988 30.1365C22.6801 30.1365 22.37 30.145 22.062 30.1639V24.1965C22.062 23.6861 22.4754 23.2705 22.988 23.2705C23.5006 23.2705 23.914 23.6861 23.914 24.1965Z" fill="#FAA500"/>
<path d="M9.26855 0V12.188H67.3481V0H9.26855ZM26.3123 4.44867L25.15 8.90367C25.0446 9.31078 24.6754 9.59555 24.2557 9.59555C24.1776 9.59555 24.0975 9.585 24.0215 9.56602C23.5279 9.43735 23.2305 8.93109 23.3592 8.4375L24.5214 3.98039C24.6311 3.48047 25.1247 3.16406 25.6225 3.27375C26.1225 3.38344 26.4389 3.87703 26.3292 4.37484C26.325 4.39805 26.3186 4.42125 26.3123 4.44234V4.44867ZM33.4779 4.44867L32.3156 8.90578C32.208 9.31289 31.841 9.59766 31.4212 9.59766C31.3432 9.59766 31.263 9.58711 31.1871 9.56812C30.6935 9.43945 30.3961 8.9332 30.5247 8.43961L31.687 3.9825C31.7967 3.48258 32.2903 3.16617 32.7881 3.27586C33.288 3.38555 33.6044 3.87914 33.4947 4.37695C33.4905 4.40016 33.4842 4.42336 33.4779 4.44445V4.44867ZM41.5378 4.44867L40.3755 8.90367C40.27 9.31078 39.9009 9.59555 39.4811 9.59555C39.4031 9.59555 39.3229 9.585 39.247 9.56602C38.7534 9.43735 38.456 8.93109 38.5847 8.4375L39.7469 3.98039C39.8566 3.48047 40.3502 3.16406 40.848 3.27375C41.3479 3.38344 41.6643 3.87703 41.5546 4.37484C41.5504 4.39805 41.5441 4.42125 41.5378 4.44234V4.44867Z" fill="#FAA500"/>
<path d="M67.3482 14.0396H14.5906V18.3279H67.3482V14.0396Z" fill="#FAA500"/>
<path d="M52.5045 20.1802C52.2324 24.6963 49.9627 28.1135 47.1172 28.1135C46.6067 28.1135 46.1912 27.7001 46.1912 27.1875C46.1912 26.6749 46.6046 26.2615 47.1172 26.2615C48.6739 26.2615 50.3951 23.8062 50.6483 20.1802H52.5045Z" fill="#FAA500"/>
<path d="M70.6387 45.885H55.0377C53.6519 45.885 52.5276 44.7607 52.5276 43.3748C52.5276 41.989 53.6519 40.8647 55.0377 40.8647H57.0016C57.512 40.8689 57.9318 40.4576 57.936 39.9471C57.936 39.9028 57.9339 39.8606 57.9276 39.8163L56.9826 32.6276C56.9826 32.617 56.9826 32.6065 56.9826 32.5959L55.3478 20.1738H67.2278C66.4052 27.3035 67.5274 35.741 70.6387 45.885Z" fill="#FAA500"/>
<path d="M55.2381 33.6464H47.2309C43.5669 33.6464 40.5969 30.6764 40.5969 27.0124V20.1802H42.449V27.0124C42.449 29.6534 44.59 31.7944 47.2309 31.7944H54.9955L55.2381 33.6464Z" fill="#FAA500"/>
<path d="M68 54C69.6569 54 71 55.3431 71 57V64.3457C71 66.0899 69.5153 67.4796 67.7785 67.3191C63.6819 66.9404 60.8008 66.3463 56.4906 64.0989C55.5582 63.6128 54.4418 63.6128 53.5094 64.0989C49.1992 66.3463 46.3181 66.9404 42.2215 67.3191C40.4847 67.4796 39 66.0899 39 64.3457V57C39 55.3431 40.3431 54 42 54H68Z" fill="#FAA500"/>
</svg>
