<svg width="78" height="71" viewBox="0 0 78 71" fill="none" xmlns="http://www.w3.org/2000/svg">
<path d="M38.7958 17.93C49.8703 17.93 60.9447 17.9298 72.0191 17.9303C72.9311 17.9303 72.9294 17.9323 72.9258 18.8514C72.9229 19.5818 72.9104 20.3125 72.931 21.0423C72.9399 21.3621 72.8668 21.482 72.5154 21.4809C67.1482 21.4655 61.7809 21.4653 56.4137 21.4595C55.7204 21.4588 55.7204 21.4536 55.7204 22.1293C55.7205 23.0248 55.7205 23.0261 56.5938 23.0255C60.9759 23.0228 65.3581 23.027 69.7401 23.0055C70.2321 23.0031 70.3684 23.1385 70.3563 23.6301C70.3268 24.8199 70.3533 24.8109 69.1727 24.8085C64.8415 24.7996 60.5102 24.8011 56.179 24.7867C55.8403 24.7855 55.7049 24.8513 55.708 25.2287C55.7174 26.3635 55.7 26.3651 56.8191 26.364C60.0802 26.3607 63.3413 26.3633 66.6023 26.3427C67.0153 26.3401 67.1893 26.4298 67.1435 26.8705C67.0947 27.3394 67.3349 27.9477 67.0578 28.2502C66.774 28.56 66.159 28.3435 65.6906 28.3458C63.3127 28.3574 60.9346 28.3632 58.5568 28.3413C58.1353 28.3374 58.0588 28.477 58.059 28.8594C58.0635 37.3003 58.0591 45.7412 58.0425 54.1821C58.0418 54.573 58.158 54.6683 58.5304 54.6565C59.5788 54.6236 59.3827 54.7492 59.3827 53.7858C59.3832 46.0405 59.3781 38.2952 59.3635 30.5499C59.3628 30.1664 59.4359 30.0304 59.8633 30.0357C62.1391 30.064 64.4153 30.0586 66.6913 30.0492C67.0225 30.0478 67.1582 30.0994 67.1574 30.4856C67.1399 38.9782 67.1385 47.4708 67.1324 55.9634C67.1318 56.784 67.1878 56.6268 66.4531 56.6271C63.0392 56.6281 59.6252 56.6298 56.2113 56.6125C55.8059 56.6105 55.6983 56.7352 55.7047 57.1312C55.7221 58.2133 55.7041 58.2148 56.8008 58.214C61.132 58.2111 65.4633 58.2144 69.7945 58.1936C70.2421 58.1914 70.4095 58.3029 70.3557 58.7562C70.32 59.0576 70.3285 59.3687 70.3555 59.672C70.3883 60.0393 70.2429 60.1188 69.8909 60.1172C65.5429 60.0971 61.1948 60.0883 56.8467 60.0875C42.4605 60.0848 28.0744 60.0859 13.6882 60.0872C11.735 60.0874 9.78171 60.085 7.82882 60.1114C7.41608 60.117 7.28744 59.9816 7.32109 59.5915C7.35875 59.155 7.13647 58.595 7.39855 58.3101C7.66483 58.0207 8.23164 58.2183 8.66515 58.2176C12.9115 58.2116 17.1578 58.2093 21.4041 58.2275C21.8634 58.2295 22.0116 58.1123 21.9996 57.6398C21.9735 56.6114 21.9998 56.6211 20.9877 56.6251C17.6586 56.6384 14.3295 56.635 11.0006 56.6623C10.5749 56.6658 10.4958 56.5169 10.4966 56.1391C10.5057 51.6211 10.504 47.1031 10.5011 42.5851C10.4985 38.5427 10.4918 34.5002 10.4834 30.4578C10.4828 30.2033 10.4573 30.0287 10.8419 30.0335C13.1516 30.0626 15.4618 30.0628 17.7717 30.0512C18.1618 30.0492 18.2833 30.1415 18.2825 30.5574C18.267 38.3704 18.2688 46.1835 18.2718 53.9967C18.2719 54.2081 18.1703 54.5356 18.3823 54.606C18.7456 54.7266 19.1592 54.7054 19.539 54.6181C19.7047 54.5801 19.6407 54.3513 19.6421 54.207C19.6503 53.3748 19.651 52.5425 19.651 51.7102C19.6511 44.1858 19.653 36.6613 19.6474 29.1368C19.6467 28.1638 19.7197 28.3552 18.8708 28.353C16.2382 28.3462 13.6054 28.3476 10.9727 28.3659C10.5987 28.3685 10.4517 28.2825 10.4904 27.8886C10.5251 27.5357 10.5131 27.1744 10.4838 26.8199C10.4547 26.4677 10.5671 26.3607 10.9323 26.3621C14.2952 26.3742 17.6583 26.3644 21.0213 26.3645C21.97 26.3645 21.9363 26.3681 21.9892 25.4231C22.0189 24.8923 21.8445 24.7826 21.3424 24.7857C16.8924 24.8126 12.4422 24.8119 7.99213 24.8204C7.33231 24.8217 7.33231 24.8243 7.32033 24.1658C7.29962 23.0286 7.29962 23.026 8.4379 23.0257C12.7521 23.0243 17.0664 23.018 21.3806 23.0341C21.8371 23.0358 21.9945 22.9271 21.9824 22.4483C21.9575 21.464 21.9856 21.4687 20.9825 21.4696C15.7002 21.4744 10.4178 21.4724 5.13548 21.4874C4.7885 21.4884 4.69942 21.3783 4.70298 21.0564C4.71277 20.1734 4.71812 19.2893 4.68227 18.4073C4.66636 18.0164 4.78727 17.9292 5.16493 17.9302C9.92077 17.9424 14.6766 17.9366 19.4325 17.9363C25.8869 17.9359 32.3414 17.9362 38.7958 17.9362C38.7958 17.9341 38.7958 17.932 38.7958 17.93ZM54.5689 40.2161C54.5403 39.2356 54.4627 38.1546 54.2272 37.0871C52.8097 30.6607 47.3645 25.772 40.7849 25.062C36.3872 24.5874 32.3744 25.5951 28.8991 28.3864C22.267 33.7133 21.1229 43.2122 26.4314 49.8256C30.3484 54.7056 35.5596 56.6338 41.7321 55.6356C49.0644 54.45 54.6208 47.7406 54.5689 40.2161ZM65.3973 43.6898C65.3981 43.6898 65.3989 43.6898 65.3998 43.6898C65.3998 40.1931 65.4008 36.6965 65.3964 33.1998C65.3962 33.0392 65.4869 32.7883 65.323 32.732C64.9689 32.6102 64.5749 32.6368 64.2191 32.7309C63.9721 32.7962 64.0908 33.0861 64.0905 33.2706C64.0804 40.1959 64.0799 47.1213 64.0701 54.0467C64.0695 54.4306 64.0862 54.6865 64.5983 54.6576C65.5506 54.604 65.3908 54.6889 65.3927 54.027C65.4025 50.5813 65.3973 47.1355 65.3973 43.6898ZM15.3399 43.648C15.3367 43.648 15.3335 43.648 15.3303 43.648C15.3303 46.4665 15.3304 49.285 15.3303 52.1035C15.3302 52.8166 15.324 53.5298 15.3336 54.2427C15.3354 54.378 15.263 54.6067 15.4717 54.6232C15.8237 54.6511 16.2099 54.6932 16.5265 54.5777C16.7687 54.4894 16.6435 54.1182 16.6435 53.8758C16.6434 46.9825 16.6275 40.0891 16.644 33.1957C16.6455 32.5582 16.2724 32.7052 15.9276 32.6775C15.5404 32.6465 15.323 32.7007 15.3266 33.2061C15.3518 36.6866 15.3399 40.1674 15.3399 43.648ZM12.3142 43.6499C12.3115 43.6499 12.3087 43.6499 12.306 43.6499C12.306 47.1481 12.3049 50.6464 12.3095 54.1446C12.3097 54.3024 12.2207 54.566 12.4108 54.5969C12.7558 54.653 13.135 54.6703 13.4665 54.5805C13.6989 54.5176 13.5841 54.1899 13.5843 53.9824C13.5864 50.2126 13.5801 46.4427 13.5772 42.6728C13.5747 39.5482 13.5754 36.4235 13.5698 33.2989C13.5695 33.1169 13.6502 32.8402 13.5048 32.7692C13.184 32.6126 12.8046 32.6658 12.4611 32.7266C12.211 32.7708 12.3193 33.0389 12.319 33.2062C12.3127 36.6874 12.3142 40.1687 12.3142 43.6499ZM62.3705 43.6889C62.3679 43.6889 62.3652 43.6889 62.3625 43.6889C62.3625 43.3664 62.3627 43.0439 62.3625 42.7214C62.3601 39.5476 62.3589 36.3738 62.3515 33.2001C62.3511 33.0416 62.4392 32.796 62.2521 32.7404C61.912 32.6393 61.5291 32.6126 61.1984 32.7326C60.9249 32.8318 61.0618 33.1547 61.0616 33.3728C61.0572 39.8222 61.062 46.2715 61.0647 52.7209C61.0649 53.23 61.0559 53.7392 61.0634 54.2481C61.0653 54.3744 61.0221 54.5897 61.1661 54.6068C61.5161 54.6484 61.8875 54.6822 62.2243 54.6054C62.4823 54.5466 62.3655 54.2275 62.3659 54.0249C62.3723 50.5796 62.3705 47.1342 62.3705 43.6889Z" fill="#FAA500"/>
<path d="M9.01587 16.2193C10.7429 15.2815 12.4735 14.3502 14.1963 13.4049C21.7532 9.25834 29.3075 5.10708 36.8641 0.960015C37.4143 0.658054 37.9826 0.388541 38.5275 0.0777752C38.7376 -0.0420328 38.8813 -0.0134801 39.0813 0.0957953C48.1331 5.04317 57.1887 9.9836 66.2431 14.9262C67.0402 15.3612 67.8326 15.8051 68.7373 16.3059C48.7533 16.3059 28.8981 16.3059 9.04294 16.3059C9.03394 16.277 9.02489 16.2482 9.01587 16.2193ZM34.2899 8.72968C34.3095 11.2859 36.3537 13.2715 38.9378 13.2445C41.4329 13.2184 43.406 11.2299 43.386 8.76174C43.3649 6.18011 41.3854 4.19505 38.8406 4.20361C36.2415 4.21233 34.2702 6.17292 34.2899 8.72968Z" fill="#FAA500"/>
<path d="M38.849 70.1681C27.6068 70.1677 16.3647 70.1676 5.12249 70.1678C3.69604 70.1678 2.26959 70.1701 0.843164 70.1699C0.251256 70.1699 0.0366271 69.9791 0.0162751 69.3903C-0.00426888 68.7965 0.000530842 68.2018 0.000393699 67.6075C0.000229127 66.8482 0.196591 66.6314 0.959736 66.6251C2.94655 66.6087 4.93353 66.6045 6.92043 66.6043C24.0724 66.6021 41.2243 66.601 58.3763 66.6014C64.4219 66.6016 70.4675 66.6065 76.5132 66.6101C77.5084 66.6107 77.6548 66.7615 77.6585 67.7677C77.6604 68.294 77.6695 68.8204 77.6677 69.3467C77.6653 70.0143 77.5227 70.1564 76.8545 70.1584C75.1393 70.1635 73.4241 70.168 71.7089 70.1681C60.7556 70.169 49.8023 70.1686 38.849 70.1681Z" fill="#FAA500"/>
<path d="M38.7406 61.7009C49.5948 61.7009 60.449 61.7005 71.3032 61.7016C72.1717 61.7017 72.0029 61.6541 72.0147 62.3972C72.0258 63.0934 72 63.7909 72.0307 64.4861C72.0478 64.8741 71.9484 65.0069 71.5337 65.005C67.9328 64.9885 64.3318 64.9951 60.7308 64.9955C47.346 64.9968 33.9612 64.9978 20.5764 65C15.8544 65.0008 11.1324 65.0051 6.41034 65.007C5.5733 65.0073 5.57317 65.0055 5.56763 64.163C5.56327 63.5006 5.58214 62.8369 5.54651 62.1762C5.5258 61.7922 5.64056 61.6905 6.02541 61.6916C9.96616 61.703 13.907 61.6927 17.8478 61.6919C24.8121 61.6905 31.7763 61.6915 38.7406 61.6915C38.7406 61.6947 38.7406 61.6978 38.7406 61.7009Z" fill="#FAA500"/>
<path d="M38.8381 53.7818C31.2971 53.7757 25.1859 47.7263 25.1907 40.2726C25.1954 32.8869 31.3897 26.9595 39.0913 26.9945C46.2194 27.027 52.5378 32.9689 52.4886 40.4125C52.4438 47.1728 46.9135 53.8667 38.8381 53.7818ZM38.9607 51.0851C39.9461 51.0848 39.946 51.0848 39.9467 50.105C39.9468 49.9862 39.964 49.8649 39.9466 49.7488C39.8732 49.2605 40.0664 49.0865 40.5682 49.0372C41.817 48.9145 42.9789 48.5106 44.0234 47.7878C46.5255 46.0564 46.5152 41.7867 43.596 40.0631C43.038 39.7336 42.4607 39.4567 41.8456 39.2527C40.827 38.9148 39.766 38.7647 38.7249 38.5264C37.9499 38.3489 37.1586 38.202 36.5003 37.7019C35.5039 36.945 35.5917 35.7274 36.6979 35.1339C37.2919 34.8152 37.9473 34.7058 38.6118 34.6653C40.38 34.5577 42.0138 34.9962 43.5044 35.94C43.8234 36.142 43.9184 36.0942 44.0572 35.7619C44.3181 35.137 44.611 34.5216 44.9426 33.9314C45.1498 33.5626 45.0205 33.4348 44.709 33.2411C43.4474 32.4566 42.0864 31.9583 40.6163 31.7941C40.0781 31.734 39.8847 31.5063 39.9531 30.9985C39.9598 30.9484 39.9534 30.8967 39.9532 30.8458C39.9489 29.7509 39.9489 29.7509 38.8767 29.739C38.0093 29.7292 38.0093 29.7292 38.0005 30.6138C37.9902 31.6593 37.9843 31.629 36.9797 31.8225C35.552 32.0974 34.2398 32.6264 33.2919 33.8021C31.8559 35.5833 31.7676 39.3459 35.2143 40.8675C36.4362 41.4069 37.7342 41.6573 39.0346 41.9058C39.9521 42.0811 40.8775 42.2504 41.656 42.8186C42.8138 43.6636 42.6757 45.0592 41.3795 45.6562C41.1803 45.7479 40.972 45.8311 40.7591 45.8798C38.3114 46.4398 36.0819 45.9132 34.0522 44.4833C33.7671 44.2825 33.6372 44.2293 33.4768 44.5919C33.1887 45.2431 32.8839 45.8893 32.5415 46.513C32.3566 46.8498 32.4574 47.0088 32.7308 47.2116C34.0421 48.1844 35.5303 48.7169 37.1141 49.0219C38.0052 49.1934 38.0058 49.1903 38.0076 50.1161C38.0094 51.0854 38.0094 51.0854 38.9607 51.0851Z" fill="#FAA500"/>
<path d="M37.1974 7.92859C37.3065 8.01427 37.4043 8.08024 37.4894 8.15973C37.8613 8.507 38.2475 8.84163 38.5923 9.21427C38.7962 9.43463 38.8908 9.37204 39.0632 9.18849C39.5623 8.65703 40.0906 8.15306 40.5922 7.62388C40.7717 7.43454 40.8894 7.43504 41.0907 7.6041C41.9397 8.31711 41.9649 8.35469 41.2187 9.14049C40.5062 9.89085 39.7503 10.5997 39.0235 11.3368C38.8739 11.4884 38.7821 11.5177 38.6157 11.3562C37.8729 10.6352 37.1233 9.92089 36.3633 9.21808C36.1417 9.01317 36.1645 8.88148 36.3832 8.69946C36.6039 8.51572 36.7924 8.29355 36.998 8.09118C37.0557 8.03435 37.1238 7.98802 37.1974 7.92859Z" fill="#FAA500"/>
</svg>
