<svg width="64" height="70" viewBox="0 0 64 70" fill="none" xmlns="http://www.w3.org/2000/svg">
<path d="M44.5353 64.4268C44.4764 64.4268 44.4175 64.4464 44.3782 64.4464C44.3193 64.4464 44.2604 64.4464 44.2015 64.4268H43.9265C43.8676 64.4268 43.8087 64.4464 43.7695 64.4464C43.7105 64.4464 43.6516 64.4464 43.6124 64.4268H34.3833C34.2851 64.4268 34.1869 64.4464 34.0887 64.4464H30.9076C30.8095 64.4464 30.7113 64.4464 30.6131 64.4268H27.0785C26.9804 64.4268 26.8822 64.4464 26.784 64.4464H23.6029C23.5047 64.4464 23.4065 64.4464 23.3084 64.4268H19.7738C19.6756 64.4268 19.5775 64.4464 19.4793 64.4464H16.2982C16.2 64.4464 16.1018 64.4464 16.0036 64.4268H0V69.5911H63.3666V64.4268H44.5353Z" fill="#FAA500"/>
<path d="M8.14898 35.5615H2.98462V62.1099H8.14898V35.5615Z" fill="#FAA500"/>
<path d="M60.4212 35.5615H55.2568V62.1099H60.4212V35.5615Z" fill="#FAA500"/>
<path d="M20.3827 42.4541C20.3827 41.9631 19.9899 41.5508 19.4794 41.5508H16.2983C15.8074 41.5508 15.395 41.9435 15.395 42.4541V44.5551H20.363V42.4541H20.3827Z" fill="#FAA500"/>
<path d="M15.4146 61.2262C15.4146 61.6778 15.7484 62.0313 16.1607 62.1098H19.6364C20.0684 62.0509 20.3826 61.6778 20.3826 61.2262V50.3477H15.4146V61.2262ZM16.9069 54.3338H18.8902C19.5382 54.3338 20.0487 54.8444 20.0487 55.4924C20.0487 56.1404 19.5382 56.6509 18.8902 56.6509H16.9069C16.2589 56.6509 15.7484 56.1207 15.7484 55.4924C15.7484 54.864 16.2589 54.3338 16.9069 54.3338ZM16.9069 57.1811H18.2618C18.9098 57.1811 19.4204 57.6917 19.4204 58.3397C19.4204 58.9877 18.8902 59.4982 18.2618 59.4982H16.9069C16.2589 59.4982 15.7484 58.9877 15.7484 58.3397C15.7484 57.6917 16.2589 57.1811 16.9069 57.1811Z" fill="#FAA500"/>
<path d="M20.3826 46.8916H15.4146V48.0305H20.3826V46.8916Z" fill="#FAA500"/>
<path d="M22.6997 61.2262C22.6997 61.6778 23.0335 62.0313 23.4459 62.1098H26.9215C27.3535 62.0509 27.6677 61.6778 27.6677 61.2262V50.3477H22.6997V61.2262ZM24.1921 54.3338H26.1753C26.8233 54.3338 27.3339 54.8444 27.3339 55.4924C27.3339 56.1404 26.8233 56.6509 26.1753 56.6509H24.1921C23.5441 56.6509 23.0335 56.1207 23.0335 55.4924C23.0335 54.864 23.5637 54.3338 24.1921 54.3338ZM24.1921 57.1811H25.547C26.195 57.1811 26.7055 57.6917 26.7055 58.3397C26.7055 58.9877 26.195 59.4982 25.547 59.4982H24.1921C23.5441 59.4982 23.0335 58.9877 23.0335 58.3397C23.0335 57.6917 23.5637 57.1811 24.1921 57.1811Z" fill="#FAA500"/>
<path d="M27.6676 42.4541C27.6676 41.9631 27.2748 41.5508 26.7643 41.5508H23.5832C23.0923 41.5508 22.6799 41.9435 22.6799 42.4541V44.5551H27.6479V42.4541H27.6676Z" fill="#FAA500"/>
<path d="M27.6677 46.8916H22.6997V48.0305H27.6677V46.8916Z" fill="#FAA500"/>
<path d="M34.9723 42.4541C34.9723 41.9631 34.5795 41.5508 34.069 41.5508H30.8879C30.397 41.5508 29.9846 41.9435 29.9846 42.4541V44.5551H34.9526V42.4541H34.9723Z" fill="#FAA500"/>
<path d="M30.0044 61.2262C30.0044 61.6778 30.3382 62.0313 30.7506 62.1098H34.2262C34.6582 62.0509 34.9724 61.6778 34.9724 61.2262V50.3477H30.0044V61.2262ZM31.4968 54.3338H33.48C34.128 54.3338 34.6386 54.8444 34.6386 55.4924C34.6386 56.1404 34.128 56.6509 33.48 56.6509H31.4968C30.8488 56.6509 30.3382 56.1207 30.3382 55.4924C30.3382 54.864 30.8488 54.3338 31.4968 54.3338ZM31.4968 57.1811H32.8517C33.4997 57.1811 34.0102 57.6917 34.0102 58.3397C34.0102 58.9877 33.4997 59.4982 32.8517 59.4982H31.4968C30.8488 59.4982 30.3382 58.9877 30.3382 58.3397C30.3382 57.6917 30.8488 57.1811 31.4968 57.1811Z" fill="#FAA500"/>
<path d="M34.9724 46.8916H30.0044V48.0305H34.9724V46.8916Z" fill="#FAA500"/>
<path d="M37.2894 61.2264C37.2894 61.5406 37.2502 61.8352 37.1716 62.1101H40.9614L37.2894 51.0352V61.2264Z" fill="#FAA500"/>
<path d="M40.9026 41.5896L37.8786 42.5911C37.5841 42.6893 37.3681 42.9249 37.2896 43.1998V43.6711C37.2896 43.6711 37.2896 43.7104 37.3092 43.7104L37.9768 45.6936L42.7092 44.1227L42.0416 42.1198C41.8648 41.6878 41.3543 41.4325 40.9026 41.5896Z" fill="#FAA500"/>
<path d="M43.7892 47.4413L43.4161 46.3613L38.7034 47.9126L39.0568 49.0122L43.7892 47.4413Z" fill="#FAA500"/>
<path d="M49.7192 62.1099H52.9395V35.5615H10.4661V62.1099H13.2152C13.1366 61.835 13.0973 61.5404 13.0973 61.2263V42.4539C13.0973 40.6866 14.5308 39.2335 16.3177 39.2335H19.4988C20.2842 39.2335 20.9912 39.5084 21.5606 39.9797C22.1104 39.5084 22.837 39.2335 23.6224 39.2335H26.8035C27.589 39.2335 28.2959 39.5084 28.8653 39.9797C29.4152 39.5084 30.1417 39.2335 30.9272 39.2335H34.1082C35.1882 39.2335 36.1308 39.7637 36.7199 40.5688C36.8573 40.4903 37.0144 40.4313 37.1715 40.3724L40.1955 39.371C41.8842 38.8212 43.7104 39.7244 44.2602 41.4132L45.2813 44.5157L46.381 47.795L50.1708 59.2233C50.4457 60.0284 50.3868 60.9121 49.9941 61.6779C49.8959 61.835 49.7977 61.9724 49.7192 62.1099Z" fill="#FAA500"/>
<path d="M43.8284 62.1097H44.3389L47.3629 61.1083C47.5986 61.0297 47.7753 60.8726 47.8735 60.6566C47.9717 60.4406 47.9913 60.205 47.9324 59.9694L44.496 49.6406L39.7637 51.2115L43.2 61.5403C43.3179 61.8152 43.5339 62.0312 43.8284 62.1097ZM41.7273 55.9832C41.5309 55.3744 41.8451 54.7264 42.4539 54.5104L44.3389 53.8821C44.9477 53.6857 45.5957 53.9999 45.8117 54.6086C46.008 55.2174 45.6939 55.8654 45.0851 56.0813L43.2 56.7097C43.0822 56.749 42.9644 56.7686 42.8269 56.7686C42.3557 56.7686 41.904 56.4741 41.7273 55.9832ZM42.6306 58.6734C42.4342 58.0646 42.7484 57.4166 43.3571 57.2006L44.6531 56.7686C45.2619 56.5723 45.9099 56.8864 46.1259 57.4952C46.3222 58.1039 46.008 58.7519 45.3993 58.9679L44.1033 59.3999C43.9855 59.4392 43.8677 59.4588 43.7302 59.4588C43.2393 59.4784 42.7877 59.1643 42.6306 58.6734Z" fill="#FAA500"/>
<path d="M52.5665 28.9835V3.24023H50.9956V26.4504C50.9956 26.8628 50.7796 27.2359 50.4458 27.4519C50.2691 27.5697 50.0531 27.6286 49.8371 27.6286C49.6211 27.6286 49.464 27.5893 49.3069 27.4911C43.6909 24.5457 38.232 24.5064 32.6356 27.3341C32.5374 27.393 32.4196 27.4322 32.3214 27.4911C32.3018 27.4911 32.2822 27.4911 32.2625 27.5304C32.2429 27.5697 32.2232 27.5501 32.2036 27.5501C32.184 27.5501 32.1643 27.5501 32.1447 27.5501H32.1251C32.1054 27.5501 32.0858 27.5697 32.0662 27.5697C32.0269 27.5697 31.9876 27.5697 31.9287 27.5697H31.7912C31.7323 27.5697 31.6931 27.5697 31.6342 27.5697C31.6145 27.5697 31.5753 27.5697 31.5556 27.5501C31.536 27.5501 31.4967 27.5501 31.4771 27.5501C31.4574 27.5501 31.4378 27.5304 31.3985 27.5304C31.3396 27.5108 31.2807 27.4911 31.2414 27.4519C31.1432 27.393 31.0254 27.3537 30.9272 27.2948C25.3309 24.4671 19.872 24.5261 14.256 27.4519C13.9025 27.6482 13.4705 27.6286 13.1171 27.4126C12.7636 27.1966 12.5672 26.8235 12.5672 26.4111V3.24023H10.9963V29.0031C24.7811 28.2962 38.7622 28.2962 52.5665 28.9835Z" fill="#FAA500"/>
<path d="M30.6131 24.6044V1.70836C25.3309 -0.569454 20.1666 -0.569454 14.8647 1.70836V24.6044C17.4764 23.4851 20.1077 22.9156 22.7389 22.9156C25.3702 22.9156 28.0015 23.4655 30.6131 24.6044Z" fill="#FAA500"/>
<path d="M48.6785 24.6044V1.70836C43.3964 -0.569454 38.232 -0.569454 32.9302 1.70836V24.6044C38.1534 22.3462 43.4356 22.3462 48.6785 24.6044Z" fill="#FAA500"/>
<path d="M54.8836 27.4126V30.201C54.8836 30.5151 54.7461 30.8293 54.5301 31.0453C54.3141 31.2417 54.0196 31.3595 53.7251 31.3595H53.6661C39.1352 30.5741 24.408 30.5741 9.87705 31.3595C9.56287 31.3791 9.24869 31.2613 9.01305 31.0453C8.77742 30.8293 8.6596 30.5151 8.6596 30.201V27.4126H0.0981445V33.225H63.4647V27.4126H54.8836Z" fill="#FAA500"/>
</svg>
