<svg width="116" height="131" viewBox="0 0 116 131" fill="none" xmlns="http://www.w3.org/2000/svg">
<g filter="url(#filter0_d_232_2601)">
<rect x="4" y="2" width="108" height="108" rx="54" fill="#FFFBF8" shape-rendering="crispEdges"/>
<path d="M57.7958 37.9297C68.8703 37.9297 79.9447 37.9296 91.0191 37.93C91.9311 37.93 91.9294 37.932 91.9258 38.8512C91.9229 39.5815 91.9104 40.3123 91.931 41.0421C91.9399 41.3618 91.8668 41.4817 91.5154 41.4807C86.1482 41.4653 80.7809 41.4651 75.4137 41.4593C74.7204 41.4585 74.7204 41.4533 74.7204 42.129C74.7205 43.0246 74.7205 43.0258 75.5938 43.0253C79.9759 43.0225 84.3581 43.0267 88.7401 43.0052C89.2321 43.0028 89.3684 43.1382 89.3563 43.6298C89.3268 44.8197 89.3533 44.8107 88.1727 44.8083C83.8415 44.7994 79.5102 44.8008 75.179 44.7864C74.8403 44.7853 74.7049 44.851 74.708 45.2284C74.7174 46.3632 74.7 46.3649 75.8191 46.3638C79.0802 46.3604 82.3413 46.363 85.6023 46.3425C86.0153 46.3399 86.1893 46.4296 86.1435 46.8702C86.0947 47.3392 86.3349 47.9475 86.0578 48.25C85.774 48.5597 85.159 48.3433 84.6906 48.3456C82.3127 48.3571 79.9346 48.363 77.5568 48.3411C77.1353 48.3372 77.0588 48.4768 77.059 48.8592C77.0635 57.3 77.0591 65.741 77.0425 74.1818C77.0418 74.5727 77.158 74.668 77.5304 74.6563C78.5788 74.6234 78.3827 74.7489 78.3827 73.7855C78.3832 66.0402 78.3781 58.2949 78.3635 50.5496C78.3628 50.1661 78.4359 50.0302 78.8633 50.0355C81.1391 50.0638 83.4153 50.0584 85.6913 50.0489C86.0225 50.0476 86.1582 50.0992 86.1574 50.4853C86.1399 58.9779 86.1385 67.4705 86.1324 75.9631C86.1318 76.7838 86.1878 76.6266 85.4531 76.6268C82.0392 76.6279 78.6252 76.6295 75.2113 76.6123C74.8059 76.6102 74.6983 76.7349 74.7047 77.1309C74.7221 78.2131 74.7041 78.2146 75.8008 78.2138C80.132 78.2109 84.4633 78.2142 88.7945 78.1933C89.2421 78.1912 89.4095 78.3027 89.3557 78.7559C89.32 79.0574 89.3285 79.3685 89.3555 79.6718C89.3883 80.039 89.2429 80.1185 88.8909 80.1169C84.5429 80.0969 80.1948 80.0881 75.8467 80.0873C61.4605 80.0845 47.0744 80.0857 32.6882 80.087C30.735 80.0872 28.7817 80.0848 26.8288 80.1112C26.4161 80.1167 26.2874 79.9813 26.3211 79.5912C26.3588 79.1548 26.1365 78.5948 26.3986 78.3099C26.6648 78.0204 27.2316 78.218 27.6651 78.2174C31.9115 78.2113 36.1578 78.2091 40.4041 78.2272C40.8634 78.2292 41.0116 78.1121 40.9996 77.6396C40.9735 76.6112 40.9998 76.6208 39.9877 76.6248C36.6586 76.6381 33.3295 76.6347 30.0006 76.6621C29.5749 76.6655 29.4958 76.5167 29.4966 76.1388C29.5057 71.6208 29.504 67.1029 29.5011 62.5849C29.4985 58.5424 29.4918 54.5 29.4834 50.4576C29.4828 50.2031 29.4573 50.0285 29.8419 50.0333C32.1516 50.0624 34.4618 50.0625 36.7717 50.051C37.1618 50.049 37.2833 50.1412 37.2825 50.5571C37.267 58.3702 37.2688 66.1833 37.2718 73.9964C37.2719 74.2078 37.1703 74.5354 37.3823 74.6058C37.7456 74.7264 38.1592 74.7051 38.539 74.6179C38.7047 74.5799 38.6407 74.3511 38.6421 74.2068C38.6503 73.3746 38.651 72.5423 38.651 71.71C38.6511 64.1855 38.653 56.661 38.6474 49.1366C38.6467 48.1636 38.7197 48.355 37.8708 48.3528C35.2382 48.3459 32.6054 48.3474 29.9727 48.3656C29.5987 48.3682 29.4517 48.2822 29.4904 47.8884C29.5251 47.5354 29.5131 47.1741 29.4838 46.8196C29.4547 46.4674 29.5671 46.3605 29.9323 46.3618C33.2952 46.374 36.6583 46.3641 40.0213 46.3642C40.97 46.3643 40.9363 46.3678 40.9892 45.4228C41.0189 44.8921 40.8445 44.7824 40.3424 44.7854C35.8924 44.8124 31.4422 44.8117 26.9921 44.8202C26.3323 44.8214 26.3323 44.8241 26.3203 44.1656C26.2996 43.0283 26.2996 43.0258 27.4379 43.0254C31.7521 43.024 36.0664 43.0178 40.3806 43.0338C40.8371 43.0355 40.9945 42.9269 40.9824 42.4481C40.9575 41.4637 40.9856 41.4685 39.9825 41.4694C34.7002 41.4741 29.4178 41.4722 24.1355 41.4871C23.7885 41.4881 23.6994 41.3781 23.703 41.0562C23.7128 40.1732 23.7181 39.289 23.6823 38.4071C23.6664 38.0161 23.7873 37.9289 24.1649 37.9299C28.9208 37.9421 33.6766 37.9364 38.4325 37.9361C44.8869 37.9356 51.3414 37.9359 57.7958 37.9359C57.7958 37.9339 57.7958 37.9318 57.7958 37.9297ZM73.5689 60.2158C73.5403 59.2353 73.4627 58.1544 73.2272 57.0868C71.8097 50.6605 66.3645 45.7718 59.7849 45.0617C55.3872 44.5872 51.3744 45.5948 47.8991 48.3862C41.267 53.7131 40.1229 63.212 45.4314 69.8254C49.3484 74.7053 54.5596 76.6335 60.7321 75.6354C68.0644 74.4498 73.6208 67.7403 73.5689 60.2158ZM84.3973 63.6895C84.3981 63.6895 84.3989 63.6895 84.3998 63.6895C84.3998 60.1929 84.4008 56.6962 84.3964 53.1996C84.3962 53.0389 84.4869 52.7881 84.323 52.7317C83.9689 52.61 83.5749 52.6366 83.2191 52.7307C82.9721 52.7959 83.0908 53.0859 83.0905 53.2703C83.0804 60.1957 83.0799 67.1211 83.0701 74.0465C83.0695 74.4304 83.0862 74.6862 83.5983 74.6574C84.5506 74.6037 84.3908 74.6887 84.3927 74.0267C84.4025 70.581 84.3973 67.1352 84.3973 63.6895ZM34.3399 63.6478C34.3367 63.6478 34.3335 63.6478 34.3303 63.6478C34.3303 66.4663 34.3304 69.2848 34.3303 72.1033C34.3302 72.8164 34.324 73.5295 34.3336 74.2425C34.3354 74.3777 34.263 74.6065 34.4717 74.623C34.8237 74.6508 35.2099 74.6929 35.5265 74.5775C35.7687 74.4891 35.6435 74.118 35.6435 73.8756C35.6434 66.9822 35.6275 60.0888 35.644 53.1955C35.6455 52.5579 35.2724 52.705 34.9276 52.6773C34.5404 52.6462 34.323 52.7005 34.3266 53.2059C34.3518 56.6864 34.3399 60.1671 34.3399 63.6478ZM31.3142 63.6497C31.3115 63.6497 31.3087 63.6497 31.306 63.6497C31.306 67.1479 31.3049 70.6461 31.3095 74.1443C31.3097 74.3021 31.2207 74.5658 31.4108 74.5967C31.7558 74.6528 32.135 74.67 32.4665 74.5803C32.6989 74.5174 32.5841 74.1897 32.5843 73.9822C32.5864 70.2123 32.5801 66.4424 32.5772 62.6726C32.5747 59.5479 32.5754 56.4233 32.5698 53.2987C32.5695 53.1166 32.6502 52.84 32.5048 52.769C32.184 52.6123 31.8046 52.6656 31.4611 52.7264C31.211 52.7706 31.3193 53.0387 31.319 53.2059C31.3127 56.6872 31.3142 60.1684 31.3142 63.6497ZM81.3705 63.6886C81.3679 63.6886 81.3652 63.6886 81.3625 63.6886C81.3625 63.3661 81.3627 63.0437 81.3625 62.7212C81.3601 59.5474 81.3589 56.3736 81.3515 53.1998C81.3511 53.0414 81.4392 52.7958 81.2521 52.7402C80.912 52.6391 80.5291 52.6123 80.1984 52.7323C79.9249 52.8315 80.0618 53.1544 80.0616 53.3725C80.0572 59.8219 80.062 66.2713 80.0647 72.7207C80.0649 73.2298 80.0559 73.7389 80.0634 74.2479C80.0653 74.3742 80.0221 74.5895 80.1661 74.6066C80.5161 74.6482 80.8875 74.682 81.2243 74.6052C81.4823 74.5464 81.3655 74.2273 81.3659 74.0246C81.3723 70.5793 81.3705 67.134 81.3705 63.6886Z" fill="#FAA500"/>
<path d="M28.0159 36.2193C29.7429 35.2815 31.4735 34.3502 33.1963 33.4049C40.7532 29.2583 48.3075 25.1071 55.8641 20.96C56.4143 20.6581 56.9826 20.3885 57.5275 20.0778C57.7376 19.958 57.8813 19.9865 58.0813 20.0958C67.1331 25.0432 76.1887 29.9836 85.2431 34.9262C86.0402 35.3612 86.8326 35.8051 87.7373 36.3059C67.7533 36.3059 47.8981 36.3059 28.0429 36.3059C28.0339 36.277 28.0249 36.2482 28.0159 36.2193ZM53.2899 28.7297C53.3095 31.2859 55.3537 33.2715 57.9378 33.2445C60.4329 33.2184 62.406 31.2299 62.386 28.7617C62.3649 26.1801 60.3854 24.1951 57.8406 24.2036C55.2415 24.2123 53.2702 26.1729 53.2899 28.7297Z" fill="#FAA500"/>
<path d="M57.849 90.1684C46.6068 90.1679 35.3647 90.1678 24.1225 90.168C22.696 90.1681 21.2696 90.1703 19.8432 90.1702C19.2513 90.1701 19.0366 89.9794 19.0163 89.3905C18.9957 88.7968 19.0005 88.2021 19.0004 87.6078C19.0002 86.8484 19.1966 86.6316 19.9597 86.6253C21.9466 86.609 23.9335 86.6048 25.9204 86.6045C43.0724 86.6023 60.2243 86.6012 77.3763 86.6017C83.4219 86.6018 89.4675 86.6068 95.5132 86.6103C96.5084 86.6109 96.6548 86.7617 96.6585 87.7679C96.6604 88.2943 96.6695 88.8207 96.6677 89.347C96.6653 90.0145 96.5227 90.1567 95.8545 90.1586C94.1393 90.1637 92.4241 90.1682 90.7089 90.1684C79.7556 90.1692 68.8023 90.1688 57.849 90.1684Z" fill="#FAA500"/>
<path d="M57.7406 81.7011C68.5948 81.7011 79.449 81.7007 90.3032 81.7019C91.1717 81.702 91.0029 81.6544 91.0147 82.3974C91.0258 83.0937 91 83.7912 91.0307 84.4863C91.0478 84.8743 90.9484 85.0072 90.5337 85.0052C86.9328 84.9888 83.3318 84.9954 79.7308 84.9957C66.346 84.997 52.9612 84.9981 39.5764 85.0003C34.8544 85.0011 30.1324 85.0054 25.4103 85.0072C24.5733 85.0075 24.5732 85.0057 24.5676 84.1633C24.5633 83.5008 24.5821 82.8371 24.5465 82.1764C24.5258 81.7925 24.6406 81.6907 25.0254 81.6918C28.9662 81.7033 32.907 81.6929 36.8478 81.6921C43.8121 81.6907 50.7763 81.6918 57.7406 81.6918C57.7406 81.6949 57.7406 81.698 57.7406 81.7011Z" fill="#FAA500"/>
<path d="M57.8381 73.7815C50.2971 73.7754 44.1859 67.7261 44.1907 60.2724C44.1954 52.8867 50.3897 46.9592 58.0913 46.9943C65.2194 47.0268 71.5378 52.9687 71.4886 60.4123C71.4438 67.1726 65.9135 73.8664 57.8381 73.7815ZM57.9607 71.0848C58.9461 71.0846 58.946 71.0846 58.9467 70.1048C58.9468 69.9859 58.964 69.8647 58.9466 69.7486C58.8732 69.2603 59.0664 69.0862 59.5682 69.0369C60.817 68.9143 61.9789 68.5104 63.0234 67.7876C65.5255 66.0561 65.5152 61.7865 62.596 60.0629C62.038 59.7334 61.4607 59.4565 60.8456 59.2524C59.827 58.9145 58.766 58.7644 57.7249 58.5261C56.9499 58.3487 56.1586 58.2018 55.5003 57.7017C54.5039 56.9447 54.5917 55.7272 55.6979 55.1337C56.2919 54.815 56.9473 54.7055 57.6118 54.6651C59.38 54.5574 61.0138 54.9959 62.5044 55.9397C62.8234 56.1418 62.9184 56.094 63.0572 55.7617C63.3181 55.1368 63.611 54.5213 63.9426 53.9312C64.1498 53.5623 64.0205 53.4345 63.709 53.2408C62.4474 52.4563 61.0864 51.9581 59.6163 51.7939C59.0781 51.7338 58.8847 51.5061 58.9531 50.9982C58.9598 50.9482 58.9534 50.8964 58.9532 50.8455C58.9489 49.7507 58.9489 49.7507 57.8767 49.7387C57.0093 49.729 57.0093 49.729 57.0005 50.6135C56.9902 51.6591 56.9843 51.6288 55.9797 51.8222C54.552 52.0972 53.2398 52.6262 52.2919 53.8019C50.8559 55.5831 50.7676 59.3457 54.2143 60.8672C55.4362 61.4066 56.7342 61.657 58.0346 61.9055C58.9521 62.0808 59.8775 62.2501 60.656 62.8183C61.8138 63.6634 61.6757 65.0589 60.3795 65.6559C60.1803 65.7476 59.972 65.8308 59.7591 65.8795C57.3114 66.4395 55.0819 65.913 53.0522 64.4831C52.7671 64.2822 52.6372 64.229 52.4768 64.5917C52.1887 65.2428 51.8839 65.889 51.5415 66.5128C51.3566 66.8495 51.4574 67.0085 51.7308 67.2113C53.0421 68.1842 54.5303 68.7167 56.1141 69.0216C57.0052 69.1932 57.0058 69.1901 57.0076 70.1158C57.0094 71.0851 57.0094 71.0851 57.9607 71.0848Z" fill="#FAA500"/>
<path d="M56.1974 27.9286C56.3065 28.0143 56.4043 28.0802 56.4894 28.1597C56.8613 28.507 57.2475 28.8416 57.5923 29.2143C57.7962 29.4346 57.8908 29.372 58.0632 29.1885C58.5623 28.657 59.0906 28.1531 59.5922 27.6239C59.7717 27.4345 59.8894 27.435 60.0907 27.6041C60.9397 28.3171 60.9649 28.3547 60.2187 29.1405C59.5062 29.8909 58.7503 30.5997 58.0235 31.3368C57.8739 31.4884 57.7821 31.5177 57.6157 31.3562C56.8729 30.6352 56.1233 29.9209 55.3633 29.2181C55.1417 29.0132 55.1645 28.8815 55.3832 28.6995C55.6039 28.5157 55.7924 28.2935 55.998 28.0912C56.0557 28.0343 56.1238 27.988 56.1974 27.9286Z" fill="#FAA500"/>
<mask id="path-8-outside-1_232_2601" maskUnits="userSpaceOnUse" x="16" y="102" width="83" height="23" fill="black">
<rect fill="white" x="16" y="102" width="83" height="23"/>
<path d="M21.5 115.84H34.44V117.5H21.5V115.84ZM22.42 111.42H33.58V113.12H22.42V111.42ZM19.52 120.46H36.6V122.16H19.52V120.46ZM26.94 112.16H28.94V121.4H26.94V112.16ZM22.54 104.7H28.82V106.46H22.54V104.7ZM26.9 104.7H29C29.4533 105.367 29.9933 106.027 30.62 106.68C31.2467 107.32 31.9333 107.933 32.68 108.52C33.4267 109.093 34.2 109.62 35 110.1C35.8133 110.567 36.6333 110.967 37.46 111.3C37.3267 111.42 37.18 111.587 37.02 111.8C36.86 112 36.7 112.207 36.54 112.42C36.3933 112.62 36.2733 112.813 36.18 113C35.06 112.467 33.96 111.813 32.88 111.04C31.8 110.267 30.7933 109.427 29.86 108.52C28.9267 107.6 28.12 106.68 27.44 105.76H26.9V104.7ZM27.22 104.7L28.62 105.66C28.1267 106.34 27.5333 107.033 26.84 107.74C26.1467 108.433 25.4067 109.113 24.62 109.78C23.8333 110.447 23.0267 111.067 22.2 111.64C21.3733 112.2 20.5733 112.68 19.8 113.08C19.6667 112.84 19.4867 112.573 19.26 112.28C19.0467 111.987 18.8333 111.74 18.62 111.54C19.3933 111.193 20.1867 110.767 21 110.26C21.8267 109.753 22.6267 109.193 23.4 108.58C24.1867 107.953 24.9067 107.307 25.56 106.64C26.2133 105.973 26.7667 105.327 27.22 104.7ZM47.12 110.94H49.06C49.1267 112.247 49.3133 113.487 49.62 114.66C49.94 115.82 50.3333 116.847 50.8 117.74C51.28 118.633 51.7933 119.333 52.34 119.84C52.9 120.333 53.4533 120.58 54 120.58C54.2933 120.58 54.5 120.353 54.62 119.9C54.74 119.447 54.8267 118.707 54.88 117.68C55.0933 117.867 55.36 118.047 55.68 118.22C56 118.38 56.2867 118.5 56.54 118.58C56.4467 119.62 56.2933 120.42 56.08 120.98C55.88 121.54 55.6 121.927 55.24 122.14C54.8933 122.353 54.4533 122.46 53.92 122.46C53.0133 122.46 52.1667 122.153 51.38 121.54C50.5933 120.927 49.8933 120.087 49.28 119.02C48.68 117.953 48.1933 116.727 47.82 115.34C47.4467 113.953 47.2133 112.487 47.12 110.94ZM41.28 113.94H56.14V115.7H41.28V113.94ZM41.28 105.1H54.68V111.22H41.28V109.46H52.76V106.86H41.28V105.1ZM40.18 122.78L40.04 121.14L40.96 120.46L47.48 118.78C47.48 118.953 47.4867 119.153 47.5 119.38C47.5267 119.593 47.5533 119.807 47.58 120.02C47.62 120.233 47.6533 120.413 47.68 120.56C46.4667 120.893 45.4467 121.173 44.62 121.4C43.7933 121.64 43.1133 121.833 42.58 121.98C42.0467 122.127 41.62 122.247 41.3 122.34C40.9933 122.433 40.76 122.513 40.6 122.58C40.44 122.647 40.3 122.713 40.18 122.78ZM40.18 122.78C40.1267 122.62 40.0467 122.427 39.94 122.2C39.8467 121.987 39.74 121.78 39.62 121.58C39.5133 121.38 39.4067 121.22 39.3 121.1C39.5133 120.98 39.7267 120.793 39.94 120.54C40.1533 120.273 40.26 119.927 40.26 119.5V105.1H42.22V120.96C42.22 120.96 42.1533 121 42.02 121.08C41.8867 121.16 41.72 121.26 41.52 121.38C41.32 121.513 41.1133 121.66 40.9 121.82C40.6867 121.98 40.5133 122.14 40.38 122.3C40.2467 122.473 40.18 122.633 40.18 122.78ZM64.76 120.3H77.32V122.04H64.76V120.3ZM67.86 110.1H74.68V111.82H67.86V110.1ZM67.86 115.12H74.68V116.84H67.86V115.12ZM66.92 105.2H75.7V121.28H73.82V106.94H68.72V121.28H66.92V105.2ZM59.62 104.92H64.52V106.62H61.4V122.64H59.62V104.92ZM64.18 104.92H64.5L64.78 104.86L66.02 105.58C65.7133 106.407 65.38 107.287 65.02 108.22C64.6733 109.153 64.3267 110.007 63.98 110.78C64.7133 111.593 65.1933 112.36 65.42 113.08C65.66 113.787 65.78 114.447 65.78 115.06C65.78 115.66 65.7133 116.167 65.58 116.58C65.4467 116.993 65.2267 117.313 64.92 117.54C64.76 117.66 64.58 117.753 64.38 117.82C64.1933 117.873 63.9933 117.92 63.78 117.96C63.5667 117.973 63.34 117.987 63.1 118C62.86 118 62.62 117.993 62.38 117.98C62.3667 117.753 62.32 117.48 62.24 117.16C62.16 116.84 62.0533 116.567 61.92 116.34C62.1467 116.367 62.3533 116.38 62.54 116.38C62.74 116.38 62.9133 116.373 63.06 116.36C63.3133 116.347 63.5267 116.287 63.7 116.18C63.8467 116.087 63.9467 115.927 64 115.7C64.0667 115.46 64.1 115.187 64.1 114.88C64.0867 114.36 63.9667 113.773 63.74 113.12C63.5133 112.453 63.04 111.74 62.32 110.98C62.5067 110.54 62.6867 110.067 62.86 109.56C63.0467 109.053 63.22 108.547 63.38 108.04C63.54 107.533 63.6867 107.053 63.82 106.6C63.9667 106.147 64.0867 105.76 64.18 105.44V104.92ZM91.32 111.58H96.92V113.3H91.32V111.58ZM91.32 116H97.08V117.72H91.32V116ZM90.18 107.94H92.08V122.7H90.18V107.94ZM89.34 104.06L91.34 104.52C91.0467 105.52 90.6933 106.5 90.28 107.46C89.8667 108.42 89.4133 109.313 88.92 110.14C88.44 110.967 87.9333 111.693 87.4 112.32C87.28 112.2 87.1133 112.067 86.9 111.92C86.7 111.76 86.4933 111.607 86.28 111.46C86.0667 111.3 85.88 111.18 85.72 111.1C86.2533 110.54 86.7467 109.887 87.2 109.14C87.6533 108.393 88.06 107.587 88.42 106.72C88.7933 105.84 89.1 104.953 89.34 104.06ZM88.68 107.34H97.32V109.08H88L88.68 107.34ZM79.68 110.18H85.68V111.66H79.68V110.18ZM79.68 112.86H85.68V114.32H79.68V112.86ZM78.84 107.48H86.36V109H78.84V107.48ZM80.48 115.56H85.8V121.52H80.48V119.96H84.14V117.1H80.48V115.56ZM79.66 115.56H81.28V122.42H79.66V115.56ZM81.06 104.76L82.52 104.02C82.8133 104.433 83.1 104.887 83.38 105.38C83.6733 105.86 83.8933 106.287 84.04 106.66L82.52 107.5C82.36 107.14 82.14 106.7 81.86 106.18C81.5933 105.647 81.3267 105.173 81.06 104.76Z"/>
</mask>
<path d="M21.5 115.84H34.44V117.5H21.5V115.84ZM22.42 111.42H33.58V113.12H22.42V111.42ZM19.52 120.46H36.6V122.16H19.52V120.46ZM26.94 112.16H28.94V121.4H26.94V112.16ZM22.54 104.7H28.82V106.46H22.54V104.7ZM26.9 104.7H29C29.4533 105.367 29.9933 106.027 30.62 106.68C31.2467 107.32 31.9333 107.933 32.68 108.52C33.4267 109.093 34.2 109.62 35 110.1C35.8133 110.567 36.6333 110.967 37.46 111.3C37.3267 111.42 37.18 111.587 37.02 111.8C36.86 112 36.7 112.207 36.54 112.42C36.3933 112.62 36.2733 112.813 36.18 113C35.06 112.467 33.96 111.813 32.88 111.04C31.8 110.267 30.7933 109.427 29.86 108.52C28.9267 107.6 28.12 106.68 27.44 105.76H26.9V104.7ZM27.22 104.7L28.62 105.66C28.1267 106.34 27.5333 107.033 26.84 107.74C26.1467 108.433 25.4067 109.113 24.62 109.78C23.8333 110.447 23.0267 111.067 22.2 111.64C21.3733 112.2 20.5733 112.68 19.8 113.08C19.6667 112.84 19.4867 112.573 19.26 112.28C19.0467 111.987 18.8333 111.74 18.62 111.54C19.3933 111.193 20.1867 110.767 21 110.26C21.8267 109.753 22.6267 109.193 23.4 108.58C24.1867 107.953 24.9067 107.307 25.56 106.64C26.2133 105.973 26.7667 105.327 27.22 104.7ZM47.12 110.94H49.06C49.1267 112.247 49.3133 113.487 49.62 114.66C49.94 115.82 50.3333 116.847 50.8 117.74C51.28 118.633 51.7933 119.333 52.34 119.84C52.9 120.333 53.4533 120.58 54 120.58C54.2933 120.58 54.5 120.353 54.62 119.9C54.74 119.447 54.8267 118.707 54.88 117.68C55.0933 117.867 55.36 118.047 55.68 118.22C56 118.38 56.2867 118.5 56.54 118.58C56.4467 119.62 56.2933 120.42 56.08 120.98C55.88 121.54 55.6 121.927 55.24 122.14C54.8933 122.353 54.4533 122.46 53.92 122.46C53.0133 122.46 52.1667 122.153 51.38 121.54C50.5933 120.927 49.8933 120.087 49.28 119.02C48.68 117.953 48.1933 116.727 47.82 115.34C47.4467 113.953 47.2133 112.487 47.12 110.94ZM41.28 113.94H56.14V115.7H41.28V113.94ZM41.28 105.1H54.68V111.22H41.28V109.46H52.76V106.86H41.28V105.1ZM40.18 122.78L40.04 121.14L40.96 120.46L47.48 118.78C47.48 118.953 47.4867 119.153 47.5 119.38C47.5267 119.593 47.5533 119.807 47.58 120.02C47.62 120.233 47.6533 120.413 47.68 120.56C46.4667 120.893 45.4467 121.173 44.62 121.4C43.7933 121.64 43.1133 121.833 42.58 121.98C42.0467 122.127 41.62 122.247 41.3 122.34C40.9933 122.433 40.76 122.513 40.6 122.58C40.44 122.647 40.3 122.713 40.18 122.78ZM40.18 122.78C40.1267 122.62 40.0467 122.427 39.94 122.2C39.8467 121.987 39.74 121.78 39.62 121.58C39.5133 121.38 39.4067 121.22 39.3 121.1C39.5133 120.98 39.7267 120.793 39.94 120.54C40.1533 120.273 40.26 119.927 40.26 119.5V105.1H42.22V120.96C42.22 120.96 42.1533 121 42.02 121.08C41.8867 121.16 41.72 121.26 41.52 121.38C41.32 121.513 41.1133 121.66 40.9 121.82C40.6867 121.98 40.5133 122.14 40.38 122.3C40.2467 122.473 40.18 122.633 40.18 122.78ZM64.76 120.3H77.32V122.04H64.76V120.3ZM67.86 110.1H74.68V111.82H67.86V110.1ZM67.86 115.12H74.68V116.84H67.86V115.12ZM66.92 105.2H75.7V121.28H73.82V106.94H68.72V121.28H66.92V105.2ZM59.62 104.92H64.52V106.62H61.4V122.64H59.62V104.92ZM64.18 104.92H64.5L64.78 104.86L66.02 105.58C65.7133 106.407 65.38 107.287 65.02 108.22C64.6733 109.153 64.3267 110.007 63.98 110.78C64.7133 111.593 65.1933 112.36 65.42 113.08C65.66 113.787 65.78 114.447 65.78 115.06C65.78 115.66 65.7133 116.167 65.58 116.58C65.4467 116.993 65.2267 117.313 64.92 117.54C64.76 117.66 64.58 117.753 64.38 117.82C64.1933 117.873 63.9933 117.92 63.78 117.96C63.5667 117.973 63.34 117.987 63.1 118C62.86 118 62.62 117.993 62.38 117.98C62.3667 117.753 62.32 117.48 62.24 117.16C62.16 116.84 62.0533 116.567 61.92 116.34C62.1467 116.367 62.3533 116.38 62.54 116.38C62.74 116.38 62.9133 116.373 63.06 116.36C63.3133 116.347 63.5267 116.287 63.7 116.18C63.8467 116.087 63.9467 115.927 64 115.7C64.0667 115.46 64.1 115.187 64.1 114.88C64.0867 114.36 63.9667 113.773 63.74 113.12C63.5133 112.453 63.04 111.74 62.32 110.98C62.5067 110.54 62.6867 110.067 62.86 109.56C63.0467 109.053 63.22 108.547 63.38 108.04C63.54 107.533 63.6867 107.053 63.82 106.6C63.9667 106.147 64.0867 105.76 64.18 105.44V104.92ZM91.32 111.58H96.92V113.3H91.32V111.58ZM91.32 116H97.08V117.72H91.32V116ZM90.18 107.94H92.08V122.7H90.18V107.94ZM89.34 104.06L91.34 104.52C91.0467 105.52 90.6933 106.5 90.28 107.46C89.8667 108.42 89.4133 109.313 88.92 110.14C88.44 110.967 87.9333 111.693 87.4 112.32C87.28 112.2 87.1133 112.067 86.9 111.92C86.7 111.76 86.4933 111.607 86.28 111.46C86.0667 111.3 85.88 111.18 85.72 111.1C86.2533 110.54 86.7467 109.887 87.2 109.14C87.6533 108.393 88.06 107.587 88.42 106.72C88.7933 105.84 89.1 104.953 89.34 104.06ZM88.68 107.34H97.32V109.08H88L88.68 107.34ZM79.68 110.18H85.68V111.66H79.68V110.18ZM79.68 112.86H85.68V114.32H79.68V112.86ZM78.84 107.48H86.36V109H78.84V107.48ZM80.48 115.56H85.8V121.52H80.48V119.96H84.14V117.1H80.48V115.56ZM79.66 115.56H81.28V122.42H79.66V115.56ZM81.06 104.76L82.52 104.02C82.8133 104.433 83.1 104.887 83.38 105.38C83.6733 105.86 83.8933 106.287 84.04 106.66L82.52 107.5C82.36 107.14 82.14 106.7 81.86 106.18C81.5933 105.647 81.3267 105.173 81.06 104.76Z" fill="#DC5511"/>
<path d="M21.5 115.84V114.84H20.5V115.84H21.5ZM34.44 115.84H35.44V114.84H34.44V115.84ZM34.44 117.5V118.5H35.44V117.5H34.44ZM21.5 117.5H20.5V118.5H21.5V117.5ZM22.42 111.42V110.42H21.42V111.42H22.42ZM33.58 111.42H34.58V110.42H33.58V111.42ZM33.58 113.12V114.12H34.58V113.12H33.58ZM22.42 113.12H21.42V114.12H22.42V113.12ZM19.52 120.46V119.46H18.52V120.46H19.52ZM36.6 120.46H37.6V119.46H36.6V120.46ZM36.6 122.16V123.16H37.6V122.16H36.6ZM19.52 122.16H18.52V123.16H19.52V122.16ZM26.94 112.16V111.16H25.94V112.16H26.94ZM28.94 112.16H29.94V111.16H28.94V112.16ZM28.94 121.4V122.4H29.94V121.4H28.94ZM26.94 121.4H25.94V122.4H26.94V121.4ZM22.54 104.7V103.7H21.54V104.7H22.54ZM28.82 104.7H29.82V103.7H28.82V104.7ZM28.82 106.46V107.46H29.82V106.46H28.82ZM22.54 106.46H21.54V107.46H22.54V106.46ZM26.9 104.7V103.7H25.9V104.7H26.9ZM29 104.7L29.8269 104.138L29.5293 103.7H29V104.7ZM30.62 106.68L29.8983 107.372L29.9055 107.38L30.62 106.68ZM32.68 108.52L32.0621 109.306L32.071 109.313L32.68 108.52ZM35 110.1L34.4855 110.957L34.4939 110.963L34.5023 110.967L35 110.1ZM37.46 111.3L38.129 112.043L39.3197 110.972L37.834 110.373L37.46 111.3ZM37.02 111.8L37.8009 112.425L37.8106 112.412L37.82 112.4L37.02 111.8ZM36.54 112.42L35.74 111.82L35.7336 111.829L36.54 112.42ZM36.18 113L35.7501 113.903L36.6357 114.325L37.0744 113.447L36.18 113ZM32.88 111.04L32.2978 111.853H32.2978L32.88 111.04ZM29.86 108.52L29.158 109.232L29.1632 109.237L29.86 108.52ZM27.44 105.76L28.2442 105.166L27.9444 104.76H27.44V105.76ZM26.9 105.76H25.9V106.76H26.9V105.76ZM27.22 104.7L27.7855 103.875L26.9813 103.324L26.4098 104.114L27.22 104.7ZM28.62 105.66L29.4294 106.247L30.0325 105.416L29.1855 104.835L28.62 105.66ZM26.84 107.74L27.5471 108.447L27.5538 108.44L26.84 107.74ZM24.62 109.78L23.9735 109.017H23.9735L24.62 109.78ZM22.2 111.64L22.7609 112.468L22.7699 112.462L22.2 111.64ZM19.8 113.08L18.9258 113.566L19.3972 114.414L20.2594 113.968L19.8 113.08ZM19.26 112.28L18.4513 112.868L18.4598 112.88L18.4687 112.891L19.26 112.28ZM18.62 111.54L18.2109 110.627L16.84 111.242L17.9361 112.27L18.62 111.54ZM21 110.26L20.4774 109.407L20.4713 109.411L21 110.26ZM23.4 108.58L24.0214 109.363L24.0231 109.362L23.4 108.58ZM25.56 106.64L24.8458 105.94L24.8458 105.94L25.56 106.64ZM21.5 115.84V116.84H34.44V115.84V114.84H21.5V115.84ZM34.44 115.84H33.44V117.5H34.44H35.44V115.84H34.44ZM34.44 117.5V116.5H21.5V117.5V118.5H34.44V117.5ZM21.5 117.5H22.5V115.84H21.5H20.5V117.5H21.5ZM22.42 111.42V112.42H33.58V111.42V110.42H22.42V111.42ZM33.58 111.42H32.58V113.12H33.58H34.58V111.42H33.58ZM33.58 113.12V112.12H22.42V113.12V114.12H33.58V113.12ZM22.42 113.12H23.42V111.42H22.42H21.42V113.12H22.42ZM19.52 120.46V121.46H36.6V120.46V119.46H19.52V120.46ZM36.6 120.46H35.6V122.16H36.6H37.6V120.46H36.6ZM36.6 122.16V121.16H19.52V122.16V123.16H36.6V122.16ZM19.52 122.16H20.52V120.46H19.52H18.52V122.16H19.52ZM26.94 112.16V113.16H28.94V112.16V111.16H26.94V112.16ZM28.94 112.16H27.94V121.4H28.94H29.94V112.16H28.94ZM28.94 121.4V120.4H26.94V121.4V122.4H28.94V121.4ZM26.94 121.4H27.94V112.16H26.94H25.94V121.4H26.94ZM22.54 104.7V105.7H28.82V104.7V103.7H22.54V104.7ZM28.82 104.7H27.82V106.46H28.82H29.82V104.7H28.82ZM28.82 106.46V105.46H22.54V106.46V107.46H28.82V106.46ZM22.54 106.46H23.54V104.7H22.54H21.54V106.46H22.54ZM26.9 104.7V105.7H29V104.7V103.7H26.9V104.7ZM29 104.7L28.1731 105.262C28.6614 105.98 29.2376 106.683 29.8983 107.372L30.62 106.68L31.3417 105.988C30.749 105.37 30.2453 104.753 29.8269 104.138L29 104.7ZM30.62 106.68L29.9055 107.38C30.5642 108.052 31.2835 108.694 32.0622 109.306L32.68 108.52L33.2978 107.734C32.5832 107.172 31.9291 106.588 31.3345 105.98L30.62 106.68ZM32.68 108.52L32.071 109.313C32.8476 109.91 33.6525 110.458 34.4855 110.957L35 110.1L35.5145 109.243C34.7475 108.782 34.0057 108.277 33.289 107.727L32.68 108.52ZM35 110.1L34.5023 110.967C35.3534 111.456 36.2147 111.876 37.086 112.227L37.46 111.3L37.834 110.373C37.052 110.057 36.2732 109.678 35.4977 109.233L35 110.1ZM37.46 111.3L36.791 110.557C36.5923 110.736 36.4021 110.957 36.22 111.2L37.02 111.8L37.82 112.4C37.9579 112.216 38.061 112.104 38.129 112.043L37.46 111.3ZM37.02 111.8L36.2391 111.175C36.0724 111.384 35.906 111.599 35.74 111.82L36.54 112.42L37.34 113.02C37.494 112.815 37.6476 112.616 37.8009 112.425L37.02 111.8ZM36.54 112.42L35.7336 111.829C35.5596 112.066 35.4083 112.307 35.2856 112.553L36.18 113L37.0744 113.447C37.1384 113.319 37.2271 113.174 37.3464 113.011L36.54 112.42ZM36.18 113L36.6099 112.097C35.5468 111.591 34.4975 110.968 33.4622 110.227L32.88 111.04L32.2978 111.853C33.4225 112.658 34.5732 113.342 35.7501 113.903L36.18 113ZM32.88 111.04L33.4622 110.227C32.4219 109.482 31.4536 108.674 30.5568 107.803L29.86 108.52L29.1632 109.237C30.133 110.179 31.1781 111.051 32.2978 111.853L32.88 111.04ZM29.86 108.52L30.562 107.808C29.6605 106.919 28.8892 106.038 28.2442 105.166L27.44 105.76L26.6358 106.354C27.3508 107.322 28.1928 108.281 29.158 109.232L29.86 108.52ZM27.44 105.76V104.76H26.9V105.76V106.76H27.44V105.76ZM26.9 105.76H27.9V104.7H26.9H25.9V105.76H26.9ZM27.22 104.7L26.6545 105.525L28.0545 106.485L28.62 105.66L29.1855 104.835L27.7855 103.875L27.22 104.7ZM28.62 105.66L27.8106 105.073C27.3509 105.706 26.7908 106.362 26.1262 107.04L26.84 107.74L27.5538 108.44C28.2758 107.704 28.9025 106.974 29.4294 106.247L28.62 105.66ZM26.84 107.74L26.1329 107.033C25.4599 107.706 24.7403 108.367 23.9735 109.017L24.62 109.78L25.2665 110.543C26.0731 109.859 26.8334 109.161 27.5471 108.447L26.84 107.74ZM24.62 109.78L23.9735 109.017C23.2108 109.663 22.4296 110.264 21.6301 110.818L22.2 111.64L22.7699 112.462C23.6237 111.87 24.4559 111.23 25.2665 110.543L24.62 109.78ZM22.2 111.64L21.6392 110.812C20.8405 111.353 20.0743 111.812 19.3406 112.192L19.8 113.08L20.2594 113.968C21.0724 113.548 21.9062 113.047 22.7608 112.468L22.2 111.64ZM19.8 113.08L20.6742 112.594C20.5096 112.298 20.2988 111.989 20.0513 111.669L19.26 112.28L18.4687 112.891C18.6745 113.158 18.8237 113.382 18.9258 113.566L19.8 113.08ZM19.26 112.28L20.0687 111.692C19.8268 111.359 19.5726 111.062 19.3039 110.81L18.62 111.54L17.9361 112.27C18.094 112.418 18.2666 112.614 18.4513 112.868L19.26 112.28ZM18.62 111.54L19.0291 112.453C19.8486 112.085 20.6819 111.636 21.5287 111.109L21 110.26L20.4713 109.411C19.6915 109.897 18.9381 110.302 18.2109 110.627L18.62 111.54ZM21 110.26L21.5226 111.113C22.3841 110.585 23.2171 110.001 24.0214 109.363L23.4 108.58L22.7786 107.797C22.0362 108.385 21.2692 108.922 20.4774 109.407L21 110.26ZM23.4 108.58L24.0231 109.362C24.8393 108.712 25.5901 108.038 26.2742 107.34L25.56 106.64L24.8458 105.94C24.2232 106.575 23.534 107.195 22.7769 107.798L23.4 108.58ZM25.56 106.64L26.2742 107.34C26.9555 106.645 27.5425 105.96 28.0302 105.286L27.22 104.7L26.4098 104.114C25.9908 104.693 25.4712 105.302 24.8458 105.94L25.56 106.64ZM47.12 110.94V109.94H46.0578L46.1218 111L47.12 110.94ZM49.06 110.94L50.0587 110.889L50.0103 109.94H49.06V110.94ZM49.62 114.66L48.6524 114.913L48.656 114.926L49.62 114.66ZM50.8 117.74L49.9136 118.203L49.9191 118.213L50.8 117.74ZM52.34 119.84L51.6602 120.573L51.6695 120.582L51.679 120.59L52.34 119.84ZM54.62 119.9L53.6533 119.644L54.62 119.9ZM54.88 117.68L55.5385 116.927L53.9882 115.571L53.8813 117.628L54.88 117.68ZM55.68 118.22L55.2037 119.099L55.2181 119.107L55.2328 119.114L55.68 118.22ZM56.54 118.58L57.536 118.669L57.6079 117.869L56.8411 117.626L56.54 118.58ZM56.08 120.98L55.1455 120.624L55.1418 120.634L55.1383 120.644L56.08 120.98ZM55.24 122.14L54.7302 121.28L54.723 121.284L54.7159 121.288L55.24 122.14ZM51.38 121.54L51.9949 120.751L51.38 121.54ZM49.28 119.02L48.4084 119.51L48.4131 119.518L49.28 119.02ZM47.82 115.34L46.8544 115.6L47.82 115.34ZM41.28 113.94V112.94H40.28V113.94H41.28ZM56.14 113.94H57.14V112.94H56.14V113.94ZM56.14 115.7V116.7H57.14V115.7H56.14ZM41.28 115.7H40.28V116.7H41.28V115.7ZM41.28 105.1V104.1H40.28V105.1H41.28ZM54.68 105.1H55.68V104.1H54.68V105.1ZM54.68 111.22V112.22H55.68V111.22H54.68ZM41.28 111.22H40.28V112.22H41.28V111.22ZM41.28 109.46V108.46H40.28V109.46H41.28ZM52.76 109.46V110.46H53.76V109.46H52.76ZM52.76 106.86H53.76V105.86H52.76V106.86ZM41.28 106.86H40.28V107.86H41.28V106.86ZM40.18 122.78L39.1836 122.865L39.315 124.404L40.6656 123.654L40.18 122.78ZM40.04 121.14L39.4456 120.336L38.9961 120.668L39.0436 121.225L40.04 121.14ZM40.96 120.46L40.7105 119.492L40.5221 119.54L40.3656 119.656L40.96 120.46ZM47.48 118.78H48.48V117.49L47.2305 117.812L47.48 118.78ZM47.5 119.38L46.5017 119.439L46.5037 119.471L46.5077 119.504L47.5 119.38ZM47.58 120.02L46.5877 120.144L46.5915 120.174L46.5971 120.204L47.58 120.02ZM47.68 120.56L47.9449 121.524L48.8276 121.282L48.6639 120.381L47.68 120.56ZM44.62 121.4L44.3556 120.436L44.3484 120.438L44.3412 120.44L44.62 121.4ZM41.3 122.34L41.02 121.38L41.0088 121.383L41.3 122.34ZM40.6 122.58L40.9846 123.503L40.6 122.58ZM40.18 122.78L39.2313 123.096L41.18 122.78H40.18ZM39.94 122.2L39.0238 122.601L39.0293 122.613L39.0352 122.626L39.94 122.2ZM39.62 121.58L38.7376 122.051L38.7495 122.073L38.7625 122.094L39.62 121.58ZM39.3 121.1L38.8097 120.228L37.7281 120.837L38.5526 121.764L39.3 121.1ZM39.94 120.54L40.7049 121.184L40.713 121.175L40.7209 121.165L39.94 120.54ZM40.26 105.1V104.1H39.26V105.1H40.26ZM42.22 105.1H43.22V104.1H42.22V105.1ZM42.22 120.96L42.7345 121.817L43.22 121.526V120.96H42.22ZM42.02 121.08L41.5055 120.223L42.02 121.08ZM41.52 121.38L41.0055 120.523L40.9851 120.535L40.9653 120.548L41.52 121.38ZM40.9 121.82L40.3 121.02L40.9 121.82ZM40.38 122.3L39.6118 121.66L39.5993 121.675L39.5874 121.69L40.38 122.3ZM47.12 110.94V111.94H49.06V110.94V109.94H47.12V110.94ZM49.06 110.94L48.0613 110.991C48.1312 112.361 48.3273 113.669 48.6525 114.913L49.62 114.66L50.5875 114.407C50.2994 113.305 50.1222 112.133 50.0587 110.889L49.06 110.94ZM49.62 114.66L48.656 114.926C48.9913 116.141 49.4086 117.236 49.9137 118.203L50.8 117.74L51.6863 117.277C51.2581 116.457 50.8887 115.499 50.584 114.394L49.62 114.66ZM50.8 117.74L49.9191 118.213C50.4338 119.171 51.0093 119.97 51.6602 120.573L52.34 119.84L53.0198 119.107C52.5773 118.697 52.1262 118.095 51.6809 117.267L50.8 117.74ZM52.34 119.84L51.679 120.59C52.3545 121.185 53.1334 121.58 54 121.58V120.58V119.58C53.7733 119.58 53.4455 119.481 53.001 119.09L52.34 119.84ZM54 120.58V121.58C54.4421 121.58 54.8309 121.394 55.114 121.084C55.3681 120.805 55.5054 120.463 55.5867 120.156L54.62 119.9L53.6533 119.644C53.6357 119.711 53.6203 119.748 53.6124 119.764C53.6044 119.781 53.6091 119.766 53.636 119.736C53.6651 119.704 53.7159 119.661 53.7909 119.627C53.8668 119.592 53.9409 119.58 54 119.58V120.58ZM54.62 119.9L55.5867 120.156C55.7352 119.595 55.8249 118.766 55.8787 117.732L54.88 117.68L53.8813 117.628C53.8284 118.647 53.7448 119.298 53.6533 119.644L54.62 119.9ZM54.88 117.68L54.2215 118.433C54.5038 118.68 54.8358 118.9 55.2037 119.099L55.68 118.22L56.1563 117.341C55.8842 117.193 55.6828 117.054 55.5385 116.927L54.88 117.68ZM55.68 118.22L55.2328 119.114C55.5848 119.29 55.9216 119.433 56.2389 119.534L56.54 118.58L56.8411 117.626C56.6518 117.567 56.4152 117.47 56.1272 117.326L55.68 118.22ZM56.54 118.58L55.544 118.491C55.4538 119.496 55.3107 120.19 55.1455 120.624L56.08 120.98L57.0145 121.336C57.2759 120.65 57.4396 119.744 57.536 118.669L56.54 118.58ZM56.08 120.98L55.1383 120.644C54.9843 121.075 54.8197 121.227 54.7302 121.28L55.24 122.14L55.7498 123C56.3803 122.627 56.7757 122.005 57.0217 121.316L56.08 120.98ZM55.24 122.14L54.7159 121.288C54.5687 121.379 54.3244 121.46 53.92 121.46V122.46V123.46C54.5822 123.46 55.218 123.328 55.7641 122.992L55.24 122.14ZM53.92 122.46V121.46C53.2587 121.46 52.6245 121.242 51.9949 120.751L51.38 121.54L50.7651 122.329C51.7088 123.064 52.768 123.46 53.92 123.46V122.46ZM51.38 121.54L51.9949 120.751C51.331 120.234 50.7104 119.501 50.1469 118.522L49.28 119.02L48.4131 119.518C49.0763 120.672 49.8557 121.62 50.7651 122.329L51.38 121.54ZM49.28 119.02L50.1516 118.53C49.5987 117.547 49.1409 116.4 48.7856 115.08L47.82 115.34L46.8544 115.6C47.2457 117.054 47.7613 118.36 48.4084 119.51L49.28 119.02ZM47.82 115.34L48.7856 115.08C48.4312 113.764 48.2078 112.364 48.1182 110.88L47.12 110.94L46.1218 111C46.2189 112.609 46.4621 114.143 46.8544 115.6L47.82 115.34ZM41.28 113.94V114.94H56.14V113.94V112.94H41.28V113.94ZM56.14 113.94H55.14V115.7H56.14H57.14V113.94H56.14ZM56.14 115.7V114.7H41.28V115.7V116.7H56.14V115.7ZM41.28 115.7H42.28V113.94H41.28H40.28V115.7H41.28ZM41.28 105.1V106.1H54.68V105.1V104.1H41.28V105.1ZM54.68 105.1H53.68V111.22H54.68H55.68V105.1H54.68ZM54.68 111.22V110.22H41.28V111.22V112.22H54.68V111.22ZM41.28 111.22H42.28V109.46H41.28H40.28V111.22H41.28ZM41.28 109.46V110.46H52.76V109.46V108.46H41.28V109.46ZM52.76 109.46H53.76V106.86H52.76H51.76V109.46H52.76ZM52.76 106.86V105.86H41.28V106.86V107.86H52.76V106.86ZM41.28 106.86H42.28V105.1H41.28H40.28V106.86H41.28ZM40.18 122.78L41.1764 122.695L41.0364 121.055L40.04 121.14L39.0436 121.225L39.1836 122.865L40.18 122.78ZM40.04 121.14L40.6344 121.944L41.5544 121.264L40.96 120.46L40.3656 119.656L39.4456 120.336L40.04 121.14ZM40.96 120.46L41.2095 121.428L47.7295 119.748L47.48 118.78L47.2305 117.812L40.7105 119.492L40.96 120.46ZM47.48 118.78H46.48C46.48 118.978 46.4876 119.198 46.5017 119.439L47.5 119.38L48.4983 119.321C48.4858 119.109 48.48 118.929 48.48 118.78H47.48ZM47.5 119.38L46.5077 119.504C46.5344 119.717 46.5611 119.931 46.5877 120.144L47.58 120.02L48.5723 119.896C48.5456 119.683 48.5189 119.469 48.4923 119.256L47.5 119.38ZM47.58 120.02L46.5971 120.204C46.6369 120.417 46.6699 120.595 46.6961 120.739L47.68 120.56L48.6639 120.381C48.6368 120.232 48.6031 120.05 48.5629 119.836L47.58 120.02ZM47.68 120.56L47.4151 119.596C46.2018 119.929 45.182 120.209 44.3556 120.436L44.62 121.4L44.8844 122.364C45.7113 122.138 46.7315 121.858 47.9449 121.524L47.68 120.56ZM44.62 121.4L44.3412 120.44C43.5169 120.679 42.8418 120.871 42.3148 121.016L42.58 121.98L42.8452 122.944C43.3848 122.796 44.0698 122.601 44.8988 122.36L44.62 121.4ZM42.58 121.98L42.3148 121.016C41.7793 121.163 41.3471 121.285 41.02 121.38L41.3 122.34L41.58 123.3C41.8929 123.209 42.314 123.09 42.8452 122.944L42.58 121.98ZM41.3 122.34L41.0088 121.383C40.6922 121.48 40.4215 121.571 40.2154 121.657L40.6 122.58L40.9846 123.503C41.0985 123.456 41.2944 123.387 41.5912 123.297L41.3 122.34ZM40.6 122.58L40.2154 121.657C40.0293 121.734 39.8543 121.817 39.6944 121.906L40.18 122.78L40.6656 123.654C40.7457 123.61 40.8507 123.559 40.9846 123.503L40.6 122.58ZM40.18 122.78L41.1287 122.464C41.0585 122.253 40.961 122.021 40.8448 121.774L39.94 122.2L39.0352 122.626C39.1323 122.832 39.1948 122.987 39.2313 123.096L40.18 122.78ZM39.94 122.2L40.8562 121.799C40.7457 121.547 40.6194 121.302 40.4775 121.066L39.62 121.58L38.7625 122.094C38.8606 122.258 38.9476 122.427 39.0238 122.601L39.94 122.2ZM39.62 121.58L40.5024 121.109C40.3724 120.866 40.2231 120.633 40.0474 120.436L39.3 121.1L38.5526 121.764C38.5902 121.807 38.6542 121.894 38.7376 122.051L39.62 121.58ZM39.3 121.1L39.7903 121.972C40.1377 121.776 40.4399 121.499 40.7049 121.184L39.94 120.54L39.1751 119.896C39.0134 120.088 38.8889 120.184 38.8097 120.228L39.3 121.1ZM39.94 120.54L40.7209 121.165C41.1085 120.68 41.26 120.096 41.26 119.5H40.26H39.26C39.26 119.758 39.1982 119.866 39.1591 119.915L39.94 120.54ZM40.26 119.5H41.26V105.1H40.26H39.26V119.5H40.26ZM40.26 105.1V106.1H42.22V105.1V104.1H40.26V105.1ZM42.22 105.1H41.22V120.96H42.22H43.22V105.1H42.22ZM42.22 120.96C41.7055 120.103 41.7055 120.103 41.7055 120.103C41.7055 120.103 41.7055 120.103 41.7055 120.103C41.7055 120.103 41.7055 120.103 41.7055 120.103C41.7055 120.103 41.7055 120.103 41.7055 120.103C41.7054 120.103 41.7054 120.103 41.7053 120.103C41.7051 120.103 41.705 120.103 41.7047 120.103C41.7045 120.103 41.7032 120.104 41.7024 120.104C41.6989 120.106 41.6986 120.107 41.693 120.11C41.6856 120.114 41.6712 120.123 41.6555 120.133C41.6053 120.163 41.589 120.172 41.5055 120.223L42.02 121.08L42.5345 121.937C42.5373 121.936 42.5565 121.924 42.5587 121.923C42.5642 121.92 42.5561 121.925 42.5616 121.921C42.5635 121.92 42.5612 121.921 42.5631 121.92C42.5649 121.919 42.5627 121.921 42.5645 121.919C42.5666 121.918 42.5653 121.919 42.5674 121.918C42.5684 121.917 42.5678 121.918 42.5688 121.917C42.5691 121.917 42.5693 121.917 42.5695 121.916C42.5698 121.916 42.57 121.916 42.5702 121.916C42.5706 121.916 42.5713 121.915 42.5717 121.915C42.5719 121.915 42.5721 121.915 42.5724 121.915C42.5726 121.915 42.5728 121.914 42.5731 121.914C42.5733 121.914 42.5735 121.914 42.5738 121.914C42.574 121.914 42.5742 121.914 42.5745 121.914C42.5747 121.913 42.5749 121.913 42.5752 121.913C42.5754 121.913 42.5756 121.913 42.5759 121.913C42.5761 121.913 42.5763 121.912 42.5765 121.912C42.5768 121.912 42.577 121.912 42.5772 121.912C42.5775 121.912 42.5777 121.912 42.5779 121.911C42.5782 121.911 42.5784 121.911 42.5786 121.911C42.5789 121.911 42.5798 121.91 42.58 121.91C42.58 121.91 42.5814 121.909 42.5814 121.909C42.5816 121.909 42.5866 121.906 42.5868 121.906C42.5895 121.905 42.5854 121.907 42.5881 121.905C42.5884 121.905 42.5886 121.905 42.5888 121.905C42.589 121.905 42.5892 121.905 42.5895 121.905C42.5896 121.904 42.592 121.903 42.5921 121.903C42.5962 121.9 42.5933 121.902 42.5973 121.9C42.5976 121.9 42.5978 121.9 42.598 121.899C42.5982 121.899 42.5984 121.899 42.5986 121.899C42.5989 121.899 42.5996 121.898 42.5999 121.898C42.601 121.898 42.6013 121.897 42.6025 121.897C42.6027 121.897 42.6047 121.895 42.605 121.895C42.6056 121.895 42.6069 121.894 42.6075 121.894C42.6077 121.894 42.6079 121.893 42.6081 121.893C42.6083 121.893 42.6085 121.893 42.6087 121.893C42.6089 121.893 42.6091 121.893 42.6094 121.893C42.6096 121.892 42.6098 121.892 42.61 121.892C42.6102 121.892 42.6104 121.892 42.6106 121.892C42.6108 121.892 42.611 121.892 42.6112 121.891C42.6118 121.891 42.6118 121.891 42.6124 121.891C42.6133 121.89 42.6164 121.888 42.6173 121.888C42.6189 121.887 42.6204 121.886 42.622 121.885C42.6581 121.863 42.6567 121.864 42.6845 121.847C42.7193 121.827 42.6737 121.854 42.7064 121.834C42.7089 121.833 42.7085 121.833 42.7109 121.832C42.711 121.832 42.711 121.832 42.7111 121.832C42.7112 121.831 42.7113 121.831 42.7114 121.831C42.7115 121.831 42.7116 121.831 42.7117 121.831C42.7118 121.831 42.7118 121.831 42.7119 121.831C42.714 121.83 42.7109 121.832 42.713 121.83C42.7133 121.83 42.7146 121.829 42.715 121.829C42.7165 121.828 42.7173 121.828 42.7187 121.827C42.7235 121.824 42.7173 121.828 42.722 121.825C42.7321 121.819 42.7179 121.827 42.7275 121.822C42.7313 121.819 42.7281 121.821 42.7314 121.819C42.7355 121.817 42.7287 121.821 42.7327 121.819C42.7355 121.817 42.7311 121.82 42.7337 121.818C42.7338 121.818 42.7337 121.818 42.7338 121.818C42.7339 121.818 42.7338 121.818 42.7339 121.818C42.7339 121.818 42.7339 121.818 42.7339 121.818C42.734 121.818 42.734 121.818 42.734 121.818C42.7341 121.818 42.7339 121.818 42.7341 121.818C42.7342 121.818 42.7342 121.818 42.7343 121.818C42.7344 121.818 42.7343 121.818 42.7344 121.818C42.7344 121.818 42.7344 121.818 42.7344 121.818C42.7345 121.818 42.7344 121.818 42.7345 121.818C42.7345 121.818 42.7345 121.818 42.7345 121.818C42.7345 121.818 42.7345 121.818 42.7345 121.818C42.7345 121.817 42.7345 121.817 42.7345 121.817C42.7345 121.817 42.7345 121.817 42.7345 121.817C42.7345 121.817 42.7345 121.817 42.7345 121.817C42.7345 121.817 42.7345 121.817 42.22 120.96ZM42.02 121.08L41.5055 120.223C41.3722 120.303 41.2055 120.403 41.0055 120.523L41.52 121.38L42.0345 122.237C42.2345 122.117 42.4012 122.017 42.5345 121.937L42.02 121.08ZM41.52 121.38L40.9653 120.548C40.7484 120.693 40.5266 120.85 40.3 121.02L40.9 121.82L41.5 122.62C41.7001 122.47 41.8916 122.334 42.0747 122.212L41.52 121.38ZM40.9 121.82L40.3 121.02C40.041 121.214 39.8064 121.426 39.6118 121.66L40.38 122.3L41.1482 122.94C41.2203 122.854 41.3324 122.746 41.5 122.62L40.9 121.82ZM40.38 122.3L39.5874 121.69C39.3827 121.956 39.18 122.328 39.18 122.78H40.18H41.18C41.18 122.86 41.1614 122.915 41.1531 122.935C41.1455 122.953 41.1459 122.944 41.1726 122.91L40.38 122.3ZM64.76 120.3V119.3H63.76V120.3H64.76ZM77.32 120.3H78.32V119.3H77.32V120.3ZM77.32 122.04V123.04H78.32V122.04H77.32ZM64.76 122.04H63.76V123.04H64.76V122.04ZM67.86 110.1V109.1H66.86V110.1H67.86ZM74.68 110.1H75.68V109.1H74.68V110.1ZM74.68 111.82V112.82H75.68V111.82H74.68ZM67.86 111.82H66.86V112.82H67.86V111.82ZM67.86 115.12V114.12H66.86V115.12H67.86ZM74.68 115.12H75.68V114.12H74.68V115.12ZM74.68 116.84V117.84H75.68V116.84H74.68ZM67.86 116.84H66.86V117.84H67.86V116.84ZM66.92 105.2V104.2H65.92V105.2H66.92ZM75.7 105.2H76.7V104.2H75.7V105.2ZM75.7 121.28V122.28H76.7V121.28H75.7ZM73.82 121.28H72.82V122.28H73.82V121.28ZM73.82 106.94H74.82V105.94H73.82V106.94ZM68.72 106.94V105.94H67.72V106.94H68.72ZM68.72 121.28V122.28H69.72V121.28H68.72ZM66.92 121.28H65.92V122.28H66.92V121.28ZM59.62 104.92V103.92H58.62V104.92H59.62ZM64.52 104.92H65.52V103.92H64.52V104.92ZM64.52 106.62V107.62H65.52V106.62H64.52ZM61.4 106.62V105.62H60.4V106.62H61.4ZM61.4 122.64V123.64H62.4V122.64H61.4ZM59.62 122.64H58.62V123.64H59.62V122.64ZM64.18 104.92V103.92H63.18V104.92H64.18ZM64.5 104.92V105.92H64.6059L64.7095 105.898L64.5 104.92ZM64.78 104.86L65.2821 103.995L64.9481 103.801L64.5705 103.882L64.78 104.86ZM66.02 105.58L66.9576 105.928L67.2505 105.138L66.5221 104.715L66.02 105.58ZM65.02 108.22L64.0869 107.86L64.0826 107.872L65.02 108.22ZM63.98 110.78L63.0675 110.371L62.8009 110.966L63.2373 111.45L63.98 110.78ZM65.42 113.08L64.4662 113.38L64.4695 113.391L64.4731 113.402L65.42 113.08ZM65.58 116.58L64.6283 116.273L65.58 116.58ZM64.92 117.54L64.3256 116.736L64.32 116.74L64.92 117.54ZM64.38 117.82L64.6547 118.782L64.6756 118.776L64.6962 118.769L64.38 117.82ZM63.78 117.96L63.8424 118.958L63.9038 118.954L63.9643 118.943L63.78 117.96ZM63.1 118V119H63.1278L63.1555 118.998L63.1 118ZM62.38 117.98L61.3817 118.039L61.4341 118.929L62.3245 118.978L62.38 117.98ZM62.24 117.16L61.2699 117.403L62.24 117.16ZM61.92 116.34L62.0368 115.347L60.0372 115.112L61.0581 116.847L61.92 116.34ZM63.06 116.36L63.0074 115.361L62.9884 115.362L62.9695 115.364L63.06 116.36ZM63.7 116.18L64.2241 117.032L64.2305 117.028L64.2369 117.024L63.7 116.18ZM64 115.7L63.0365 115.432L63.0311 115.452L63.0266 115.471L64 115.7ZM64.1 114.88H65.1V114.867L65.0997 114.854L64.1 114.88ZM63.74 113.12L62.7932 113.442L62.7952 113.448L63.74 113.12ZM62.32 110.98L61.3994 110.589L61.1437 111.192L61.594 111.668L62.32 110.98ZM62.86 109.56L61.9217 109.214L61.9176 109.225L61.9138 109.236L62.86 109.56ZM63.38 108.04L64.3336 108.341V108.341L63.38 108.04ZM63.82 106.6L62.8686 106.292L62.8644 106.305L62.8606 106.318L63.82 106.6ZM64.18 105.44L65.14 105.72L65.18 105.583V105.44H64.18ZM64.76 120.3V121.3H77.32V120.3V119.3H64.76V120.3ZM77.32 120.3H76.32V122.04H77.32H78.32V120.3H77.32ZM77.32 122.04V121.04H64.76V122.04V123.04H77.32V122.04ZM64.76 122.04H65.76V120.3H64.76H63.76V122.04H64.76ZM67.86 110.1V111.1H74.68V110.1V109.1H67.86V110.1ZM74.68 110.1H73.68V111.82H74.68H75.68V110.1H74.68ZM74.68 111.82V110.82H67.86V111.82V112.82H74.68V111.82ZM67.86 111.82H68.86V110.1H67.86H66.86V111.82H67.86ZM67.86 115.12V116.12H74.68V115.12V114.12H67.86V115.12ZM74.68 115.12H73.68V116.84H74.68H75.68V115.12H74.68ZM74.68 116.84V115.84H67.86V116.84V117.84H74.68V116.84ZM67.86 116.84H68.86V115.12H67.86H66.86V116.84H67.86ZM66.92 105.2V106.2H75.7V105.2V104.2H66.92V105.2ZM75.7 105.2H74.7V121.28H75.7H76.7V105.2H75.7ZM75.7 121.28V120.28H73.82V121.28V122.28H75.7V121.28ZM73.82 121.28H74.82V106.94H73.82H72.82V121.28H73.82ZM73.82 106.94V105.94H68.72V106.94V107.94H73.82V106.94ZM68.72 106.94H67.72V121.28H68.72H69.72V106.94H68.72ZM68.72 121.28V120.28H66.92V121.28V122.28H68.72V121.28ZM66.92 121.28H67.92V105.2H66.92H65.92V121.28H66.92ZM59.62 104.92V105.92H64.52V104.92V103.92H59.62V104.92ZM64.52 104.92H63.52V106.62H64.52H65.52V104.92H64.52ZM64.52 106.62V105.62H61.4V106.62V107.62H64.52V106.62ZM61.4 106.62H60.4V122.64H61.4H62.4V106.62H61.4ZM61.4 122.64V121.64H59.62V122.64V123.64H61.4V122.64ZM59.62 122.64H60.62V104.92H59.62H58.62V122.64H59.62ZM64.18 104.92V105.92H64.5V104.92V103.92H64.18V104.92ZM64.5 104.92L64.7095 105.898L64.9895 105.838L64.78 104.86L64.5705 103.882L64.2905 103.942L64.5 104.92ZM64.78 104.86L64.2779 105.725L65.5179 106.445L66.02 105.58L66.5221 104.715L65.2821 103.995L64.78 104.86ZM66.02 105.58L65.0824 105.232C64.7774 106.054 64.4457 106.93 64.087 107.86L65.02 108.22L65.953 108.58C66.3143 107.643 66.6492 106.759 66.9576 105.928L66.02 105.58ZM65.02 108.22L64.0826 107.872C63.7423 108.788 63.4038 109.621 63.0675 110.371L63.98 110.78L64.8925 111.189C65.2495 110.393 65.6044 109.519 65.9574 108.568L65.02 108.22ZM63.98 110.78L63.2373 111.45C63.9145 112.201 64.2975 112.844 64.4662 113.38L65.42 113.08L66.3738 112.78C66.0892 111.876 65.5122 110.986 64.7227 110.11L63.98 110.78ZM65.42 113.08L64.4731 113.402C64.6853 114.026 64.78 114.577 64.78 115.06H65.78H66.78C66.78 114.317 66.6347 113.547 66.3669 112.758L65.42 113.08ZM65.78 115.06H64.78C64.78 115.592 64.72 115.989 64.6283 116.273L65.58 116.58L66.5317 116.887C66.7066 116.345 66.78 115.728 66.78 115.06H65.78ZM65.58 116.58L64.6283 116.273C64.5499 116.516 64.4414 116.65 64.3256 116.736L64.92 117.54L65.5144 118.344C66.012 117.976 66.3434 117.471 66.5317 116.887L65.58 116.58ZM64.92 117.54L64.32 116.74C64.2505 116.792 64.1674 116.837 64.0638 116.871L64.38 117.82L64.6962 118.769C64.9926 118.67 65.2695 118.528 65.52 118.34L64.92 117.54ZM64.38 117.82L64.1053 116.858C63.9516 116.902 63.7821 116.942 63.5957 116.977L63.78 117.96L63.9643 118.943C64.2046 118.898 64.435 118.844 64.6547 118.782L64.38 117.82ZM63.78 117.96L63.7176 116.962C63.5069 116.975 63.2825 116.988 63.0445 117.002L63.1 118L63.1555 118.998C63.3975 118.985 63.6265 118.972 63.8424 118.958L63.78 117.96ZM63.1 118V117C62.8785 117 62.657 116.994 62.4355 116.982L62.38 117.98L62.3245 118.978C62.583 118.993 62.8415 119 63.1 119V118ZM62.38 117.98L63.3783 117.921C63.3601 117.612 63.2991 117.273 63.2101 116.917L62.24 117.16L61.2699 117.403C61.3409 117.687 61.3733 117.895 61.3817 118.039L62.38 117.98ZM62.24 117.16L63.2101 116.917C63.1125 116.527 62.9743 116.16 62.7819 115.833L61.92 116.34L61.0581 116.847C61.1324 116.973 61.2075 117.153 61.2699 117.403L62.24 117.16ZM61.92 116.34L61.8032 117.333C62.0604 117.363 62.3068 117.38 62.54 117.38V116.38V115.38C62.3998 115.38 62.2329 115.37 62.0368 115.347L61.92 116.34ZM62.54 116.38V117.38C62.7603 117.38 62.9653 117.373 63.1505 117.356L63.06 116.36L62.9695 115.364C62.8614 115.374 62.7197 115.38 62.54 115.38V116.38ZM63.06 116.36L63.1126 117.359C63.4924 117.339 63.8774 117.245 64.2241 117.032L63.7 116.18L63.1759 115.328C63.1748 115.329 63.1646 115.335 63.1393 115.342C63.1131 115.35 63.0707 115.358 63.0074 115.361L63.06 116.36ZM63.7 116.18L64.2369 117.024C64.6701 116.748 64.8812 116.321 64.9734 115.929L64 115.7L63.0266 115.471C63.0193 115.502 63.0173 115.492 63.037 115.46C63.0592 115.425 63.1002 115.376 63.1631 115.336L63.7 116.18ZM64 115.7L64.9635 115.968C65.0592 115.623 65.1 115.257 65.1 114.88H64.1H63.1C63.1 115.116 63.0741 115.297 63.0365 115.432L64 115.7ZM64.1 114.88L65.0997 114.854C65.083 114.204 64.9348 113.513 64.6848 112.792L63.74 113.12L62.7952 113.448C62.9986 114.034 63.0903 114.516 63.1003 114.906L64.1 114.88ZM63.74 113.12L64.6868 112.798C64.3968 111.945 63.821 111.11 63.046 110.292L62.32 110.98L61.594 111.668C62.259 112.37 62.6299 112.962 62.7932 113.442L63.74 113.12ZM62.32 110.98L63.2406 111.371C63.4376 110.906 63.626 110.41 63.8062 109.884L62.86 109.56L61.9138 109.236C61.7473 109.723 61.5757 110.174 61.3994 110.589L62.32 110.98ZM62.86 109.56L63.7983 109.906C63.9904 109.385 64.1688 108.863 64.3336 108.341L63.38 108.04L62.4264 107.739C62.2712 108.23 62.103 108.722 61.9217 109.214L62.86 109.56ZM63.38 108.04L64.3336 108.341C64.4953 107.829 64.644 107.343 64.7794 106.882L63.82 106.6L62.8606 106.318C62.7294 106.764 62.5847 107.238 62.4264 107.739L63.38 108.04ZM63.82 106.6L64.7714 106.908C64.9199 106.449 65.0431 106.052 65.14 105.72L64.18 105.44L63.22 105.16C63.1303 105.468 63.0134 105.845 62.8686 106.292L63.82 106.6ZM64.18 105.44H65.18V104.92H64.18H63.18V105.44H64.18ZM91.32 111.58V110.58H90.32V111.58H91.32ZM96.92 111.58H97.92V110.58H96.92V111.58ZM96.92 113.3V114.3H97.92V113.3H96.92ZM91.32 113.3H90.32V114.3H91.32V113.3ZM91.32 116V115H90.32V116H91.32ZM97.08 116H98.08V115H97.08V116ZM97.08 117.72V118.72H98.08V117.72H97.08ZM91.32 117.72H90.32V118.72H91.32V117.72ZM90.18 107.94V106.94H89.18V107.94H90.18ZM92.08 107.94H93.08V106.94H92.08V107.94ZM92.08 122.7V123.7H93.08V122.7H92.08ZM90.18 122.7H89.18V123.7H90.18V122.7ZM89.34 104.06L89.5641 103.085L88.6244 102.869L88.3742 103.801L89.34 104.06ZM91.34 104.52L92.2996 104.801L92.5982 103.783L91.5641 103.545L91.34 104.52ZM90.28 107.46L89.3615 107.065L90.28 107.46ZM88.92 110.14L88.0612 109.628L88.0552 109.638L88.92 110.14ZM87.4 112.32L86.6929 113.027L87.4592 113.793L88.1615 112.968L87.4 112.32ZM86.9 111.92L86.2753 112.701L86.3036 112.724L86.3335 112.744L86.9 111.92ZM86.28 111.46L85.68 112.26L85.6965 112.272L85.7135 112.284L86.28 111.46ZM85.72 111.1L84.9959 110.41L84.0632 111.39L85.2728 111.994L85.72 111.1ZM87.2 109.14L86.3452 108.621V108.621L87.2 109.14ZM88.42 106.72L87.4994 106.329L87.4965 106.336L88.42 106.72ZM88.68 107.34V106.34H87.9972L87.7486 106.976L88.68 107.34ZM97.32 107.34H98.32V106.34H97.32V107.34ZM97.32 109.08V110.08H98.32V109.08H97.32ZM88 109.08L87.0686 108.716L86.5355 110.08H88V109.08ZM79.68 110.18V109.18H78.68V110.18H79.68ZM85.68 110.18H86.68V109.18H85.68V110.18ZM85.68 111.66V112.66H86.68V111.66H85.68ZM79.68 111.66H78.68V112.66H79.68V111.66ZM79.68 112.86V111.86H78.68V112.86H79.68ZM85.68 112.86H86.68V111.86H85.68V112.86ZM85.68 114.32V115.32H86.68V114.32H85.68ZM79.68 114.32H78.68V115.32H79.68V114.32ZM78.84 107.48V106.48H77.84V107.48H78.84ZM86.36 107.48H87.36V106.48H86.36V107.48ZM86.36 109V110H87.36V109H86.36ZM78.84 109H77.84V110H78.84V109ZM80.48 115.56V114.56H79.48V115.56H80.48ZM85.8 115.56H86.8V114.56H85.8V115.56ZM85.8 121.52V122.52H86.8V121.52H85.8ZM80.48 121.52H79.48V122.52H80.48V121.52ZM80.48 119.96V118.96H79.48V119.96H80.48ZM84.14 119.96V120.96H85.14V119.96H84.14ZM84.14 117.1H85.14V116.1H84.14V117.1ZM80.48 117.1H79.48V118.1H80.48V117.1ZM79.66 115.56V114.56H78.66V115.56H79.66ZM81.28 115.56H82.28V114.56H81.28V115.56ZM81.28 122.42V123.42H82.28V122.42H81.28ZM79.66 122.42H78.66V123.42H79.66V122.42ZM81.06 104.76L80.6079 103.868L79.6181 104.37L80.2197 105.302L81.06 104.76ZM82.52 104.02L83.3355 103.441L82.8367 102.738L82.0679 103.128L82.52 104.02ZM83.38 105.38L82.5103 105.874L82.5183 105.888L82.5267 105.901L83.38 105.38ZM84.04 106.66L84.5237 107.535L85.2915 107.111L84.9707 106.294L84.04 106.66ZM82.52 107.5L81.6062 107.906L82.0491 108.903L83.0037 108.375L82.52 107.5ZM81.86 106.18L80.9656 106.627L80.9723 106.641L80.9795 106.654L81.86 106.18ZM91.32 111.58V112.58H96.92V111.58V110.58H91.32V111.58ZM96.92 111.58H95.92V113.3H96.92H97.92V111.58H96.92ZM96.92 113.3V112.3H91.32V113.3V114.3H96.92V113.3ZM91.32 113.3H92.32V111.58H91.32H90.32V113.3H91.32ZM91.32 116V117H97.08V116V115H91.32V116ZM97.08 116H96.08V117.72H97.08H98.08V116H97.08ZM97.08 117.72V116.72H91.32V117.72V118.72H97.08V117.72ZM91.32 117.72H92.32V116H91.32H90.32V117.72H91.32ZM90.18 107.94V108.94H92.08V107.94V106.94H90.18V107.94ZM92.08 107.94H91.08V122.7H92.08H93.08V107.94H92.08ZM92.08 122.7V121.7H90.18V122.7V123.7H92.08V122.7ZM90.18 122.7H91.18V107.94H90.18H89.18V122.7H90.18ZM89.34 104.06L89.1159 105.035L91.1159 105.495L91.34 104.52L91.5641 103.545L89.5641 103.085L89.34 104.06ZM91.34 104.52L90.3804 104.239C90.0985 105.2 89.7589 106.142 89.3615 107.065L90.28 107.46L91.1985 107.855C91.6278 106.858 91.9948 105.84 92.2996 104.801L91.34 104.52ZM90.28 107.46L89.3615 107.065C88.9641 107.988 88.5303 108.842 88.0613 109.628L88.92 110.14L89.7787 110.652C90.2963 109.785 90.7693 108.852 91.1985 107.855L90.28 107.46ZM88.92 110.14L88.0552 109.638C87.6005 110.421 87.1275 111.097 86.6385 111.672L87.4 112.32L88.1615 112.968C88.7392 112.289 89.2795 111.512 89.7848 110.642L88.92 110.14ZM87.4 112.32L88.1071 111.613C87.9277 111.434 87.7069 111.261 87.4665 111.096L86.9 111.92L86.3335 112.744C86.5197 112.872 86.6323 112.966 86.6929 113.027L87.4 112.32ZM86.9 111.92L87.5247 111.139C87.3056 110.964 87.0796 110.796 86.8465 110.636L86.28 111.46L85.7135 112.284C85.9071 112.417 86.0944 112.556 86.2753 112.701L86.9 111.92ZM86.28 111.46L86.88 110.66C86.6396 110.48 86.4 110.322 86.1672 110.206L85.72 111.1L85.2728 111.994C85.36 112.038 85.4938 112.12 85.68 112.26L86.28 111.46ZM85.72 111.1L86.4441 111.79C87.0329 111.171 87.5689 110.459 88.0548 109.659L87.2 109.14L86.3452 108.621C85.9245 109.314 85.4737 109.909 84.9959 110.41L85.72 111.1ZM87.2 109.14L88.0548 109.659C88.5363 108.866 88.9655 108.014 89.3435 107.104L88.42 106.72L87.4965 106.336C87.1545 107.16 86.7704 107.921 86.3452 108.621L87.2 109.14ZM88.42 106.72L89.3406 107.111C89.7314 106.189 90.0534 105.259 90.3058 104.319L89.34 104.06L88.3742 103.801C88.1466 104.648 87.8553 105.491 87.4994 106.329L88.42 106.72ZM88.68 107.34V108.34H97.32V107.34V106.34H88.68V107.34ZM97.32 107.34H96.32V109.08H97.32H98.32V107.34H97.32ZM97.32 109.08V108.08H88V109.08V110.08H97.32V109.08ZM88 109.08L88.9314 109.444L89.6114 107.704L88.68 107.34L87.7486 106.976L87.0686 108.716L88 109.08ZM79.68 110.18V111.18H85.68V110.18V109.18H79.68V110.18ZM85.68 110.18H84.68V111.66H85.68H86.68V110.18H85.68ZM85.68 111.66V110.66H79.68V111.66V112.66H85.68V111.66ZM79.68 111.66H80.68V110.18H79.68H78.68V111.66H79.68ZM79.68 112.86V113.86H85.68V112.86V111.86H79.68V112.86ZM85.68 112.86H84.68V114.32H85.68H86.68V112.86H85.68ZM85.68 114.32V113.32H79.68V114.32V115.32H85.68V114.32ZM79.68 114.32H80.68V112.86H79.68H78.68V114.32H79.68ZM78.84 107.48V108.48H86.36V107.48V106.48H78.84V107.48ZM86.36 107.48H85.36V109H86.36H87.36V107.48H86.36ZM86.36 109V108H78.84V109V110H86.36V109ZM78.84 109H79.84V107.48H78.84H77.84V109H78.84ZM80.48 115.56V116.56H85.8V115.56V114.56H80.48V115.56ZM85.8 115.56H84.8V121.52H85.8H86.8V115.56H85.8ZM85.8 121.52V120.52H80.48V121.52V122.52H85.8V121.52ZM80.48 121.52H81.48V119.96H80.48H79.48V121.52H80.48ZM80.48 119.96V120.96H84.14V119.96V118.96H80.48V119.96ZM84.14 119.96H85.14V117.1H84.14H83.14V119.96H84.14ZM84.14 117.1V116.1H80.48V117.1V118.1H84.14V117.1ZM80.48 117.1H81.48V115.56H80.48H79.48V117.1H80.48ZM79.66 115.56V116.56H81.28V115.56V114.56H79.66V115.56ZM81.28 115.56H80.28V122.42H81.28H82.28V115.56H81.28ZM81.28 122.42V121.42H79.66V122.42V123.42H81.28V122.42ZM79.66 122.42H80.66V115.56H79.66H78.66V122.42H79.66ZM81.06 104.76L81.5121 105.652L82.9721 104.912L82.52 104.02L82.0679 103.128L80.6079 103.868L81.06 104.76ZM82.52 104.02L81.7045 104.599C81.9762 104.982 82.245 105.406 82.5103 105.874L83.38 105.38L84.2497 104.886C83.955 104.367 83.6505 103.885 83.3355 103.441L82.52 104.02ZM83.38 105.38L82.5267 105.901C82.8008 106.35 82.9904 106.723 83.1092 107.026L84.04 106.66L84.9707 106.294C84.7963 105.85 84.5459 105.37 84.2333 104.859L83.38 105.38ZM84.04 106.66L83.5563 105.785L82.0363 106.625L82.52 107.5L83.0037 108.375L84.5237 107.535L84.04 106.66ZM82.52 107.5L83.4338 107.094C83.2599 106.702 83.0272 106.238 82.7405 105.706L81.86 106.18L80.9795 106.654C81.2528 107.162 81.4601 107.578 81.6062 107.906L82.52 107.5ZM81.86 106.18L82.7544 105.733C82.4747 105.173 82.1903 104.667 81.9003 104.218L81.06 104.76L80.2197 105.302C80.463 105.679 80.7119 106.12 80.9656 106.627L81.86 106.18Z" fill="#FFFBF8" mask="url(#path-8-outside-1_232_2601)"/>
</g>
<defs>
<filter id="filter0_d_232_2601" x="0" y="0" width="116" height="130.404" filterUnits="userSpaceOnUse" color-interpolation-filters="sRGB">
<feFlood flood-opacity="0" result="BackgroundImageFix"/>
<feColorMatrix in="SourceAlpha" type="matrix" values="0 0 0 0 0 0 0 0 0 0 0 0 0 0 0 0 0 0 127 0" result="hardAlpha"/>
<feOffset dy="2"/>
<feGaussianBlur stdDeviation="2"/>
<feComposite in2="hardAlpha" operator="out"/>
<feColorMatrix type="matrix" values="0 0 0 0 0 0 0 0 0 0 0 0 0 0 0 0 0 0 0.25 0"/>
<feBlend mode="normal" in2="BackgroundImageFix" result="effect1_dropShadow_232_2601"/>
<feBlend mode="normal" in="SourceGraphic" in2="effect1_dropShadow_232_2601" result="shape"/>
</filter>
</defs>
</svg>
