<svg width="176" height="92" viewBox="0 0 176 92" fill="none" xmlns="http://www.w3.org/2000/svg">
<g opacity="0.6" filter="url(#filter0_d_0_501)">
<path d="M168 92H8C8 47.8172 43.8172 12 88 12C132.183 12 168 47.8172 168 92Z" fill="#DC5511"/>
</g>
<g filter="url(#filter1_d_0_501)">
<path d="M158 92H18C18 53.3401 49.3401 22 88 22C126.66 22 158 53.3401 158 92Z" fill="#DC5511"/>
</g>
<path d="M45.716 71.968H52.26V79.36H50.42V73.712H47.444V79.424H45.716V71.968ZM47.844 64.432H49.7V72.448H47.844V64.432ZM48.948 67.728H52.804V69.504H48.948V67.728ZM46.628 77.056H51.284V78.8H46.628V77.056ZM39.78 66.176V69.68H43.668V66.176H39.78ZM38.356 64.896H45.156V70.96H38.356V64.896ZM39.748 66.864L40.548 66.64C40.676 67.0027 40.788 67.3973 40.884 67.824C40.98 68.2507 41.0387 68.6187 41.06 68.928L40.212 69.2C40.2013 68.8907 40.1533 68.5173 40.068 68.08C39.9827 67.6427 39.876 67.2373 39.748 66.864ZM40.244 76.208L41.428 76.08C41.5027 76.528 41.556 77.0133 41.588 77.536C41.6307 78.048 41.6467 78.496 41.636 78.88L40.404 79.024C40.4253 78.64 40.42 78.1867 40.388 77.664C40.356 77.1413 40.308 76.656 40.244 76.208ZM41.876 76.176L43.012 75.968C43.1613 76.3947 43.3 76.8533 43.428 77.344C43.556 77.824 43.6413 78.2507 43.684 78.624L42.484 78.864C42.4627 78.5013 42.3933 78.0693 42.276 77.568C42.1587 77.0667 42.0253 76.6027 41.876 76.176ZM43.476 76.144L44.628 75.728C44.8627 76.1227 45.0867 76.56 45.3 77.04C45.5133 77.5093 45.6627 77.92 45.748 78.272L44.532 78.752C44.4573 78.3893 44.3187 77.968 44.116 77.488C43.924 76.9973 43.7107 76.5493 43.476 76.144ZM38.692 75.728L39.972 76.208C39.8653 76.6987 39.732 77.2213 39.572 77.776C39.4227 78.3307 39.236 78.8 39.012 79.184L37.684 78.64C37.8333 78.3947 37.972 78.1067 38.1 77.776C38.2387 77.4453 38.356 77.104 38.452 76.752C38.548 76.3893 38.628 76.048 38.692 75.728ZM42.884 66.624L43.844 66.944C43.6947 67.328 43.54 67.7333 43.38 68.16C43.2307 68.5867 43.092 68.944 42.964 69.232L42.244 68.96C42.3293 68.736 42.4093 68.4907 42.484 68.224C42.5693 67.9467 42.6493 67.6693 42.724 67.392C42.7987 67.104 42.852 66.848 42.884 66.624ZM38.388 71.648H45.124V73.104H38.388V71.648ZM41.124 65.552H42.276V70.368H42.548V74.544H40.852V70.368H41.124V65.552ZM38.068 73.904H45.348V75.36H38.068V73.904ZM66.452 64.848H68.068V66.208C68.068 66.368 68.0787 66.4853 68.1 66.56C68.132 66.6347 68.2013 66.672 68.308 66.672C68.372 66.672 68.452 66.672 68.548 66.672C68.6547 66.672 68.756 66.672 68.852 66.672C68.9587 66.672 69.0387 66.672 69.092 66.672C69.22 66.672 69.3693 66.6667 69.54 66.656C69.7213 66.6347 69.86 66.608 69.956 66.576C69.9773 66.768 69.9987 66.992 70.02 67.248C70.0413 67.504 70.0627 67.7333 70.084 67.936C69.9667 67.968 69.8227 67.9947 69.652 68.016C69.4813 68.0267 69.3107 68.032 69.14 68.032C69.0653 68.032 68.9587 68.032 68.82 68.032C68.692 68.032 68.5587 68.032 68.42 68.032C68.292 68.032 68.1853 68.032 68.1 68.032C67.6413 68.032 67.2893 67.9733 67.044 67.856C66.8093 67.728 66.6493 67.5307 66.564 67.264C66.4893 66.9867 66.452 66.6293 66.452 66.192V64.848ZM56.468 74.336H68.308V75.488H56.468V74.336ZM55.028 75.968H70.148V77.2H55.028V75.968ZM61.636 72.96H63.54V77.792C63.54 78.2187 63.476 78.5333 63.348 78.736C63.2307 78.9493 63.012 79.1093 62.692 79.216C62.372 79.3227 61.988 79.3867 61.54 79.408C61.092 79.4293 60.5587 79.44 59.94 79.44C59.8867 79.216 59.8013 78.9707 59.684 78.704C59.5667 78.4373 59.4493 78.208 59.332 78.016C59.588 78.0267 59.8493 78.032 60.116 78.032C60.3933 78.032 60.6387 78.0267 60.852 78.016C61.0653 78.016 61.2147 78.016 61.3 78.016C61.4173 78.016 61.5027 78 61.556 77.968C61.6093 77.9253 61.636 77.8507 61.636 77.744V72.96ZM67.556 72.352L68.676 73.312C67.844 73.4293 66.9213 73.5307 65.908 73.616C64.8947 73.7013 63.828 73.7653 62.708 73.808C61.5987 73.8507 60.4787 73.8773 59.348 73.888C58.228 73.8987 57.14 73.8933 56.084 73.872C56.084 73.7227 56.052 73.5413 55.988 73.328C55.9347 73.1147 55.8813 72.9387 55.828 72.8C56.852 72.8107 57.9133 72.816 59.012 72.816C60.1107 72.8053 61.1827 72.784 62.228 72.752C63.284 72.7093 64.2653 72.656 65.172 72.592C66.0893 72.5173 66.884 72.4373 67.556 72.352ZM55.508 65.136H62.516V66.08H55.508V65.136ZM55.14 69.584H62.596V70.512H55.14V69.584ZM57.188 68.144V68.544H60.82V68.144H57.188ZM57.188 67.12V67.504H60.82V67.12H57.188ZM55.94 66.464H62.116V69.2H55.94V66.464ZM58.228 64.416H59.684V71.952H58.228V64.416ZM63.204 68.32H68.052V69.52H63.204V68.32ZM64.468 64.848H67.316V66.144H64.468V64.848ZM67.62 68.32H67.924L68.212 68.272L69.092 68.544C68.772 69.3867 68.308 70.08 67.7 70.624C67.1027 71.1573 66.388 71.5733 65.556 71.872C64.7347 72.1707 63.812 72.4 62.788 72.56C62.724 72.3787 62.6333 72.1653 62.516 71.92C62.3987 71.6747 62.276 71.4773 62.148 71.328C63.0333 71.2427 63.844 71.0933 64.58 70.88C65.316 70.656 65.9453 70.352 66.468 69.968C66.9907 69.5733 67.3747 69.0773 67.62 68.48V68.32ZM64.772 69.376C65.092 69.7493 65.5293 70.08 66.084 70.368C66.6387 70.6453 67.2733 70.8747 67.988 71.056C68.7027 71.2373 69.4707 71.3653 70.292 71.44C70.1213 71.6 69.9453 71.8133 69.764 72.08C69.5827 72.336 69.4387 72.5653 69.332 72.768C68.4573 72.64 67.6413 72.448 66.884 72.192C66.1373 71.936 65.4653 71.6107 64.868 71.216C64.2813 70.8107 63.7853 70.3467 63.38 69.824L64.772 69.376ZM63.46 64.848H65.044V65.824C65.044 66.1867 64.98 66.544 64.852 66.896C64.724 67.2373 64.4893 67.552 64.148 67.84C63.8067 68.128 63.3107 68.3787 62.66 68.592C62.596 68.4747 62.4893 68.3413 62.34 68.192C62.2013 68.032 62.0573 67.8827 61.908 67.744C61.7587 67.5947 61.6307 67.4827 61.524 67.408C62.0893 67.248 62.5107 67.0827 62.788 66.912C63.0653 66.7413 63.2467 66.56 63.332 66.368C63.4173 66.176 63.46 65.9733 63.46 65.76V64.848ZM55.876 70.672H57.188V71.44H60.788V70.672H62.132V72.384H55.876V70.672ZM77.412 70.032V72.256H82.34V70.032H77.412ZM75.364 68.304H84.5V73.984H75.364V68.304ZM77.428 73.344H79.428C79.3533 74.1227 79.22 74.8373 79.028 75.488C78.8467 76.128 78.548 76.7093 78.132 77.232C77.7267 77.7547 77.1613 78.208 76.436 78.592C75.7107 78.9867 74.7613 79.3173 73.588 79.584C73.5347 79.4133 73.4493 79.2267 73.332 79.024C73.2147 78.832 73.0867 78.6347 72.948 78.432C72.82 78.24 72.6867 78.08 72.548 77.952C73.5827 77.7493 74.4093 77.5093 75.028 77.232C75.6467 76.944 76.116 76.6133 76.436 76.24C76.7667 75.856 76.996 75.424 77.124 74.944C77.2627 74.464 77.364 73.9307 77.428 73.344ZM80.276 73.296H82.196V76.896C82.196 77.152 82.2387 77.312 82.324 77.376C82.42 77.44 82.6333 77.472 82.964 77.472C83.028 77.472 83.14 77.472 83.3 77.472C83.4707 77.472 83.652 77.472 83.844 77.472C84.0467 77.472 84.2333 77.472 84.404 77.472C84.5747 77.472 84.708 77.472 84.804 77.472C84.996 77.472 85.14 77.4347 85.236 77.36C85.332 77.2747 85.4013 77.1093 85.444 76.864C85.4867 76.608 85.5187 76.2293 85.54 75.728C85.6787 75.824 85.844 75.92 86.036 76.016C86.2387 76.1013 86.452 76.1813 86.676 76.256C86.9 76.3307 87.092 76.3893 87.252 76.432C87.188 77.1573 87.0707 77.7173 86.9 78.112C86.74 78.5173 86.5053 78.8 86.196 78.96C85.8973 79.12 85.492 79.2 84.98 79.2C84.8947 79.2 84.772 79.2 84.612 79.2C84.4627 79.2 84.2973 79.2 84.116 79.2C83.9347 79.2 83.748 79.2 83.556 79.2C83.3747 79.2 83.204 79.2 83.044 79.2C82.8947 79.2 82.7827 79.2 82.708 79.2C82.0573 79.2 81.556 79.1307 81.204 78.992C80.852 78.8533 80.6067 78.6187 80.468 78.288C80.34 77.9573 80.276 77.504 80.276 76.928V73.296ZM77.06 64.528L79.076 65.216C78.66 65.8987 78.1587 66.544 77.572 67.152C76.9853 67.7493 76.3613 68.2987 75.7 68.8C75.0493 69.3013 74.3933 69.7333 73.732 70.096C73.6253 69.9573 73.4707 69.7973 73.268 69.616C73.076 69.424 72.8733 69.2373 72.66 69.056C72.4467 68.864 72.26 68.7147 72.1 68.608C72.772 68.3093 73.4173 67.952 74.036 67.536C74.6653 67.1093 75.2413 66.64 75.764 66.128C76.2867 65.616 76.7187 65.0827 77.06 64.528ZM80.628 65.472L82.244 64.496C82.6813 64.816 83.1453 65.1733 83.636 65.568C84.1267 65.952 84.612 66.352 85.092 66.768C85.572 67.184 86.0147 67.5893 86.42 67.984C86.8253 68.368 87.172 68.736 87.46 69.088L85.684 70.24C85.428 69.9093 85.108 69.5413 84.724 69.136C84.34 68.7307 83.9133 68.3147 83.444 67.888C82.9853 67.4613 82.5107 67.04 82.02 66.624C81.54 66.208 81.076 65.824 80.628 65.472ZM89.492 72.512C90.1427 72.352 90.916 72.1493 91.812 71.904C92.7187 71.648 93.6307 71.3813 94.548 71.104L94.82 72.816C93.988 73.0933 93.14 73.3653 92.276 73.632C91.4227 73.8987 90.6387 74.144 89.924 74.368L89.492 72.512ZM89.732 67.44H94.596V69.2H89.732V67.44ZM91.38 64.4H93.204V77.168C93.204 77.6267 93.1613 77.9893 93.076 78.256C92.9907 78.5333 92.8253 78.752 92.58 78.912C92.3347 79.072 92.0307 79.1787 91.668 79.232C91.316 79.2853 90.8893 79.312 90.388 79.312C90.356 79.056 90.292 78.7467 90.196 78.384C90.1107 78.0213 90.004 77.7013 89.876 77.424C90.1533 77.4347 90.404 77.44 90.628 77.44C90.8627 77.44 91.028 77.44 91.124 77.44C91.2947 77.44 91.38 77.3493 91.38 77.168V64.4ZM97.492 64.416L99.252 64.704C99.0067 65.3333 98.708 65.9573 98.356 66.576C98.0147 67.184 97.6093 67.776 97.14 68.352C96.6813 68.9173 96.1373 69.456 95.508 69.968C95.444 69.84 95.3427 69.6907 95.204 69.52C95.076 69.3493 94.9373 69.1893 94.788 69.04C94.6493 68.8907 94.516 68.7733 94.388 68.688C94.9213 68.2827 95.3853 67.84 95.78 67.36C96.1853 66.8693 96.5267 66.3733 96.804 65.872C97.092 65.3707 97.3213 64.8853 97.492 64.416ZM97.86 65.68H100.98V67.168H96.98L97.86 65.68ZM95.588 68.32H103.684V74.784H102.084V69.84H97.14V74.784H95.588V68.32ZM94.484 74.272H104.66V75.808H94.484V74.272ZM98.676 72.976H100.532C100.468 73.84 100.351 74.6187 100.18 75.312C100.02 75.9947 99.7427 76.6027 99.348 77.136C98.964 77.6587 98.4147 78.112 97.7 78.496C96.9853 78.88 96.0413 79.1947 94.868 79.44C94.804 79.216 94.676 78.9547 94.484 78.656C94.3027 78.3573 94.1213 78.1227 93.94 77.952C94.964 77.7707 95.78 77.5413 96.388 77.264C96.996 76.976 97.4547 76.6293 97.764 76.224C98.084 75.8187 98.3027 75.3493 98.42 74.816C98.548 74.2827 98.6333 73.6693 98.676 72.976ZM100.484 65.68H100.852L101.124 65.6L102.26 66.336C102.1 66.656 101.908 66.9973 101.684 67.36C101.46 67.7227 101.225 68.0693 100.98 68.4C100.745 68.7307 100.516 69.024 100.292 69.28C100.143 69.1627 99.9453 69.0293 99.7 68.88C99.4653 68.72 99.2573 68.5973 99.076 68.512C99.268 68.2773 99.4547 68.0107 99.636 67.712C99.8173 67.4027 99.9827 67.0987 100.132 66.8C100.281 66.4907 100.399 66.2187 100.484 65.984V65.68ZM99.236 69.424L100.644 69.808C100.345 70.4373 99.9667 71.0453 99.508 71.632C99.06 72.208 98.596 72.688 98.116 73.072C97.9773 72.9547 97.7853 72.8107 97.54 72.64C97.2947 72.4587 97.0813 72.32 96.9 72.224C97.4013 71.8827 97.8547 71.4667 98.26 70.976C98.676 70.4747 99.0013 69.9573 99.236 69.424ZM98.948 71.232L99.764 70.304C100.063 70.4533 100.377 70.624 100.708 70.816C101.039 71.008 101.353 71.2053 101.652 71.408C101.951 71.6 102.196 71.7867 102.388 71.968L101.54 72.992C101.359 72.8213 101.119 72.6293 100.82 72.416C100.532 72.2027 100.223 71.9947 99.892 71.792C99.5613 71.5787 99.2467 71.392 98.948 71.232ZM100.116 76.624L101.268 75.584C101.631 75.8613 102.036 76.1653 102.484 76.496C102.943 76.8267 103.38 77.152 103.796 77.472C104.212 77.792 104.553 78.0747 104.82 78.32L103.588 79.52C103.343 79.264 103.017 78.9653 102.612 78.624C102.217 78.2933 101.796 77.952 101.348 77.6C100.911 77.2373 100.5 76.912 100.116 76.624ZM114.964 74.144V75.072H119.108V74.144H114.964ZM113.396 72.992H120.74V76.24H113.396V72.992ZM114.436 68.608V69.376H119.636V68.608H114.436ZM114.436 66.768V67.536H119.636V66.768H114.436ZM112.9 65.648H121.236V70.512H112.9V65.648ZM112.356 71.072H121.732V72.432H112.356V71.072ZM112.164 77.744H121.908V79.168H112.164V77.744ZM115.108 64.4H116.58V66.368H115.108V64.4ZM117.476 64.4H118.98V66.368H117.476V64.4ZM115.364 66H116.58V70.128H115.364V66ZM117.476 66H118.692V70.128H117.476V66ZM118.404 76.112L120.116 76.576C119.892 76.928 119.668 77.28 119.444 77.632C119.231 77.9733 119.039 78.2613 118.868 78.496L117.636 78.064C117.775 77.7867 117.913 77.4613 118.052 77.088C118.201 76.7147 118.319 76.3893 118.404 76.112ZM114.244 76.544L115.684 76.112C115.823 76.3893 115.956 76.6987 116.084 77.04C116.223 77.3813 116.329 77.6747 116.404 77.92L114.884 78.432C114.841 78.176 114.756 77.872 114.628 77.52C114.5 77.1573 114.372 76.832 114.244 76.544ZM107.172 67.088H111.348V68.816H107.172V67.088ZM108.884 72.512L110.612 70.4V79.424H108.884V72.512ZM110.532 70.864C110.649 70.96 110.815 71.12 111.028 71.344C111.252 71.568 111.481 71.808 111.716 72.064C111.961 72.32 112.185 72.56 112.388 72.784C112.601 73.008 112.751 73.168 112.836 73.264L111.652 74.864C111.524 74.6507 111.364 74.4107 111.172 74.144C110.991 73.8667 110.793 73.584 110.58 73.296C110.377 72.9973 110.175 72.72 109.972 72.464C109.78 72.208 109.615 71.9947 109.476 71.824L110.532 70.864ZM110.804 67.088H111.188L111.508 67.024L112.5 67.712C112.18 68.6933 111.753 69.648 111.22 70.576C110.697 71.4933 110.116 72.3307 109.476 73.088C108.847 73.8347 108.207 74.4587 107.556 74.96C107.513 74.768 107.444 74.544 107.348 74.288C107.263 74.0213 107.172 73.7653 107.076 73.52C106.98 73.2747 106.895 73.088 106.82 72.96C107.396 72.576 107.945 72.0907 108.468 71.504C109.001 70.9067 109.471 70.256 109.876 69.552C110.281 68.848 110.591 68.1387 110.804 67.424V67.088ZM108.212 65.36L109.636 64.464C109.903 64.7627 110.159 65.104 110.404 65.488C110.66 65.8613 110.852 66.192 110.98 66.48L109.508 67.504C109.391 67.2053 109.204 66.8533 108.948 66.448C108.703 66.0427 108.457 65.68 108.212 65.36ZM131.956 64.4L133.7 64.736C133.497 65.6213 133.252 66.4853 132.964 67.328C132.676 68.16 132.345 68.9387 131.972 69.664C131.599 70.3787 131.193 71.008 130.756 71.552C130.66 71.4453 130.521 71.328 130.34 71.2C130.159 71.0613 129.972 70.928 129.78 70.8C129.599 70.6613 129.444 70.5493 129.316 70.464C129.743 69.9947 130.121 69.44 130.452 68.8C130.793 68.16 131.087 67.4667 131.332 66.72C131.588 65.9627 131.796 65.1893 131.956 64.4ZM137.332 66.896H139.156C139.156 66.896 139.151 66.9547 139.14 67.072C139.14 67.1787 139.14 67.3013 139.14 67.44C139.14 67.5787 139.135 67.6853 139.124 67.76C139.049 69.5627 138.969 71.0933 138.884 72.352C138.809 73.6107 138.724 74.6507 138.628 75.472C138.543 76.2827 138.441 76.9227 138.324 77.392C138.207 77.8507 138.073 78.1813 137.924 78.384C137.732 78.6507 137.54 78.8427 137.348 78.96C137.156 79.0773 136.927 79.1627 136.66 79.216C136.436 79.2587 136.164 79.28 135.844 79.28C135.524 79.2907 135.188 79.2853 134.836 79.264C134.815 78.9867 134.756 78.672 134.66 78.32C134.575 77.968 134.457 77.6587 134.308 77.392C134.607 77.424 134.884 77.4453 135.14 77.456C135.396 77.456 135.599 77.456 135.748 77.456C135.876 77.456 135.977 77.4347 136.052 77.392C136.137 77.3493 136.228 77.2693 136.324 77.152C136.431 77.024 136.532 76.7573 136.628 76.352C136.724 75.936 136.815 75.344 136.9 74.576C136.985 73.808 137.06 72.832 137.124 71.648C137.199 70.4533 137.268 69.008 137.332 67.312V66.896ZM132.436 66.896H138.148V68.672H131.572L132.436 66.896ZM133.572 67.472L134.964 68.16C134.751 69.0773 134.457 70.016 134.084 70.976C133.711 71.9253 133.273 72.816 132.772 73.648C132.281 74.48 131.748 75.168 131.172 75.712C130.991 75.5413 130.761 75.3547 130.484 75.152C130.207 74.9387 129.94 74.768 129.684 74.64C130.153 74.2773 130.591 73.8293 130.996 73.296C131.401 72.752 131.769 72.16 132.1 71.52C132.431 70.8693 132.719 70.2027 132.964 69.52C133.209 68.8267 133.412 68.144 133.572 67.472ZM135.796 67.664L137.284 68.352C137.081 69.3867 136.825 70.4213 136.516 71.456C136.217 72.4907 135.855 73.4827 135.428 74.432C135.012 75.3813 134.532 76.256 133.988 77.056C133.444 77.8453 132.836 78.512 132.164 79.056C131.983 78.8747 131.743 78.6773 131.444 78.464C131.156 78.2507 130.879 78.0747 130.612 77.936C131.305 77.4347 131.929 76.816 132.484 76.08C133.049 75.3333 133.545 74.5067 133.972 73.6C134.399 72.6827 134.761 71.7227 135.06 70.72C135.359 69.7067 135.604 68.688 135.796 67.664ZM124.132 73.136C124.655 73.008 125.247 72.8587 125.908 72.688C126.58 72.5173 127.284 72.3307 128.02 72.128C128.767 71.9147 129.508 71.7067 130.244 71.504L130.484 73.184C129.481 73.504 128.457 73.824 127.412 74.144C126.377 74.4533 125.439 74.7307 124.596 74.976L124.132 73.136ZM126.996 64.416H128.756V79.44H126.996V64.416ZM124.884 65.328L126.5 65.584C126.425 66.288 126.335 66.9973 126.228 67.712C126.121 68.416 125.993 69.0827 125.844 69.712C125.695 70.3413 125.524 70.896 125.332 71.376C125.236 71.3013 125.103 71.2107 124.932 71.104C124.761 70.9867 124.591 70.8747 124.42 70.768C124.249 70.6507 124.1 70.5653 123.972 70.512C124.143 70.0747 124.287 69.5787 124.404 69.024C124.532 68.4587 124.633 67.8613 124.708 67.232C124.793 66.592 124.852 65.9573 124.884 65.328ZM125.332 67.504H130.1V69.328H124.964L125.332 67.504Z" fill="white"/>
<path d="M87.2146 45.4683H81.0177C80.9798 45.4687 80.9423 45.4616 80.9072 45.4474C80.8721 45.4332 80.8401 45.4122 80.8132 45.3856C80.7863 45.359 80.7649 45.3273 80.7504 45.2923C80.7358 45.2574 80.7283 45.2199 80.7283 45.182V42.8952C80.7287 42.8185 80.7592 42.7451 80.8132 42.6907C80.8397 42.6645 80.8712 42.6437 80.9057 42.6297C80.9403 42.6157 80.9772 42.6086 81.0145 42.6089H87.2146C87.2905 42.6089 87.3633 42.6391 87.417 42.6927C87.4707 42.7464 87.5009 42.8192 87.5009 42.8952V45.1852C87.5015 45.2233 87.4943 45.2611 87.4797 45.2963C87.4651 45.3315 87.4434 45.3633 87.4159 45.3897C87.3617 45.4412 87.2894 45.4694 87.2146 45.4683Z" fill="#FABE00"/>
<path d="M94.7139 45.4685H88.5138C88.4376 45.4677 88.3648 45.4368 88.3112 45.3826C88.2576 45.3285 88.2275 45.2553 88.2275 45.1791V42.8922C88.2275 42.8546 88.2349 42.8174 88.2493 42.7827C88.2637 42.7479 88.2848 42.7164 88.3114 42.6898C88.338 42.6632 88.3695 42.6421 88.4043 42.6277C88.439 42.6134 88.4762 42.606 88.5138 42.606H94.7107C94.787 42.606 94.8601 42.636 94.9143 42.6896C94.9685 42.7432 94.9993 42.816 95.0001 42.8922V45.1854C94.9993 45.2611 94.9689 45.3334 94.9154 45.3869C94.8619 45.4404 94.7895 45.4708 94.7139 45.4717V45.4685Z" fill="#FABE00"/>
<path d="M87.2145 54.6509H81.3038C81.2662 54.6509 81.229 54.6435 81.1943 54.6291C81.1596 54.6147 81.128 54.5936 81.1014 54.567C81.0748 54.5405 81.0538 54.5089 81.0394 54.4742C81.025 54.4395 81.0176 54.4022 81.0176 54.3646V46.6232C81.0202 46.547 81.0504 46.4743 81.1025 46.4187C81.129 46.3925 81.1605 46.3718 81.195 46.3577C81.2296 46.3437 81.2665 46.3366 81.3038 46.3369H87.2177C87.2936 46.3369 87.3664 46.3671 87.4201 46.4208C87.4738 46.4745 87.5039 46.5473 87.5039 46.6232V54.3646C87.5044 54.4023 87.4972 54.4398 87.483 54.4747C87.4688 54.5096 87.4477 54.5413 87.421 54.568C87.3944 54.5947 87.3626 54.6157 87.3277 54.63C87.2928 54.6442 87.2554 54.6513 87.2177 54.6509H87.2145Z" fill="#FABE00"/>
<path d="M94.4308 54.654H88.5138C88.4762 54.654 88.439 54.6466 88.4043 54.6322C88.3695 54.6179 88.338 54.5968 88.3114 54.5702C88.2848 54.5436 88.2637 54.512 88.2493 54.4773C88.2349 54.4426 88.2275 54.4054 88.2275 54.3678V46.6232C88.2275 46.5856 88.2349 46.5484 88.2493 46.5136C88.2637 46.4789 88.2848 46.4473 88.3114 46.4208C88.338 46.3942 88.3695 46.3731 88.4043 46.3587C88.439 46.3443 88.4762 46.3369 88.5138 46.3369H94.4308C94.5067 46.3369 94.5795 46.3671 94.6332 46.4208C94.6869 46.4744 94.717 46.5473 94.717 46.6232V54.3678C94.7162 54.444 94.6853 54.5168 94.6312 54.5704C94.577 54.624 94.5038 54.654 94.4276 54.654H94.4308Z" fill="#FABE00"/>
<path d="M84.1066 41.6118C84.4658 41.9698 84.8518 42.3 85.261 42.5996H90.3193C90.7276 42.3001 91.1125 41.9699 91.4706 41.6118C92.8547 40.2277 93.8801 38.4662 93.0434 37.6294C92.9413 37.5261 92.8192 37.4449 92.6844 37.3908C92.5497 37.3367 92.4053 37.3109 92.2601 37.3149C91.4485 37.3149 90.2249 38.0384 89.0641 39.2023C88.5808 39.6778 88.1514 40.2053 87.7839 40.7751C87.4157 40.2057 86.9864 39.6783 86.5036 39.2023C85.3397 38.0415 84.116 37.3149 83.3044 37.3149C83.1593 37.3109 83.0149 37.3367 82.8801 37.3908C82.7454 37.4449 82.6232 37.5261 82.5212 37.6294C82.2349 37.9157 82.0053 38.485 82.5495 39.564C82.9625 40.321 83.4875 41.0114 84.1066 41.6118ZM89.9198 40.061C90.8635 39.1173 91.7222 38.6392 92.1217 38.5479C92.0305 38.9128 91.5964 39.7685 90.6024 40.7499C89.6775 41.6779 88.8282 42.156 88.4004 42.2598C88.5074 41.8509 88.9855 40.9953 89.9198 40.061ZM85.6574 40.061C86.6483 41.0519 87.0855 41.9075 87.1767 42.263C86.7615 42.1717 85.9028 41.6936 84.9591 40.7499C84.4306 40.241 83.983 39.6544 83.6316 39.0104C83.5504 38.8617 83.4891 38.7031 83.4491 38.5385C83.8644 38.6455 84.72 39.1236 85.6574 40.061Z" fill="#FABE00"/>
<path d="M89.105 42.6059C89.2595 42.3685 89.3471 42.0938 89.3585 41.8108C89.3699 41.5278 89.3046 41.247 89.1696 40.998C89.0346 40.749 88.8349 40.5411 88.5915 40.3962C88.3482 40.2513 88.0702 40.1748 87.7869 40.1748C87.5037 40.1748 87.2257 40.2513 86.9823 40.3962C86.739 40.5411 86.5392 40.749 86.4042 40.998C86.2693 41.247 86.204 41.5278 86.2154 41.8108C86.2268 42.0938 86.3144 42.3685 86.4689 42.6059H89.105Z" fill="#FABE00"/>
<path d="M80.0336 35.8137C80.2281 36.0081 80.466 36.1534 80.7278 36.2374C80.7635 36.2537 80.7937 36.28 80.8149 36.313C80.8361 36.346 80.8474 36.3844 80.8474 36.4237C80.8474 36.4629 80.8361 36.5013 80.8149 36.5344C80.7937 36.5674 80.7635 36.5936 80.7278 36.61C80.4662 36.6943 80.2283 36.8396 80.034 37.034C79.8396 37.2283 79.6943 37.4662 79.61 37.7278C79.5936 37.7635 79.5674 37.7937 79.5344 37.8149C79.5013 37.8361 79.4629 37.8474 79.4237 37.8474C79.3844 37.8474 79.346 37.8361 79.313 37.8149C79.28 37.7937 79.2537 37.7635 79.2374 37.7278C79.1525 37.4665 79.007 37.2289 78.8127 37.0346C78.6184 36.8403 78.3809 36.6948 78.1196 36.61C78.0839 36.5936 78.0537 36.5674 78.0325 36.5344C78.0113 36.5013 78 36.4629 78 36.4237C78 36.3844 78.0113 36.346 78.0325 36.313C78.0537 36.28 78.0839 36.2537 78.1196 36.2374C78.381 36.1528 78.6187 36.0074 78.8131 35.8131C79.0074 35.6187 79.1528 35.381 79.2374 35.1196C79.2537 35.0839 79.28 35.0537 79.313 35.0325C79.346 35.0113 79.3844 35 79.4237 35C79.4629 35 79.5013 35.0113 79.5344 35.0325C79.5674 35.0537 79.5936 35.0839 79.61 35.1196C79.694 35.3813 79.8392 35.6193 80.0336 35.8137Z" fill="#FABE00"/>
<path d="M97.0336 39.8137C97.2281 40.0081 97.466 40.1534 97.7278 40.2374C97.7635 40.2537 97.7937 40.28 97.8149 40.313C97.8361 40.346 97.8474 40.3844 97.8474 40.4237C97.8474 40.4629 97.8361 40.5013 97.8149 40.5344C97.7937 40.5674 97.7635 40.5936 97.7278 40.61C97.4662 40.6943 97.2283 40.8396 97.034 41.034C96.8396 41.2283 96.6943 41.4662 96.61 41.7278C96.5936 41.7635 96.5674 41.7937 96.5344 41.8149C96.5013 41.8361 96.4629 41.8474 96.4237 41.8474C96.3844 41.8474 96.346 41.8361 96.313 41.8149C96.28 41.7937 96.2537 41.7635 96.2374 41.7278C96.1525 41.4665 96.007 41.2289 95.8127 41.0346C95.6184 40.8403 95.3809 40.6948 95.1196 40.61C95.0839 40.5936 95.0537 40.5674 95.0325 40.5344C95.0113 40.5013 95 40.4629 95 40.4237C95 40.3844 95.0113 40.346 95.0325 40.313C95.0537 40.28 95.0839 40.2537 95.1196 40.2374C95.381 40.1528 95.6187 40.0074 95.8131 39.8131C96.0074 39.6187 96.1528 39.381 96.2374 39.1196C96.2537 39.0839 96.28 39.0537 96.313 39.0325C96.346 39.0113 96.3844 39 96.4237 39C96.4629 39 96.5013 39.0113 96.5344 39.0325C96.5674 39.0537 96.5936 39.0839 96.61 39.1196C96.694 39.3813 96.8392 39.6193 97.0336 39.8137Z" fill="#FABE00"/>
<defs>
<filter id="filter0_d_0_501" x="0" y="0" width="176" height="96" filterUnits="userSpaceOnUse" color-interpolation-filters="sRGB">
<feFlood flood-opacity="0" result="BackgroundImageFix"/>
<feColorMatrix in="SourceAlpha" type="matrix" values="0 0 0 0 0 0 0 0 0 0 0 0 0 0 0 0 0 0 127 0" result="hardAlpha"/>
<feOffset dy="-4"/>
<feGaussianBlur stdDeviation="4"/>
<feComposite in2="hardAlpha" operator="out"/>
<feColorMatrix type="matrix" values="0 0 0 0 0 0 0 0 0 0 0 0 0 0 0 0 0 0 0.1 0"/>
<feBlend mode="normal" in2="BackgroundImageFix" result="effect1_dropShadow_0_501"/>
<feBlend mode="normal" in="SourceGraphic" in2="effect1_dropShadow_0_501" result="shape"/>
</filter>
<filter id="filter1_d_0_501" x="10" y="10" width="156" height="86" filterUnits="userSpaceOnUse" color-interpolation-filters="sRGB">
<feFlood flood-opacity="0" result="BackgroundImageFix"/>
<feColorMatrix in="SourceAlpha" type="matrix" values="0 0 0 0 0 0 0 0 0 0 0 0 0 0 0 0 0 0 127 0" result="hardAlpha"/>
<feOffset dy="-4"/>
<feGaussianBlur stdDeviation="4"/>
<feComposite in2="hardAlpha" operator="out"/>
<feColorMatrix type="matrix" values="0 0 0 0 0 0 0 0 0 0 0 0 0 0 0 0 0 0 0.1 0"/>
<feBlend mode="normal" in2="BackgroundImageFix" result="effect1_dropShadow_0_501"/>
<feBlend mode="normal" in="SourceGraphic" in2="effect1_dropShadow_0_501" result="shape"/>
</filter>
</defs>
</svg>
