<svg width="128" height="103" viewBox="0 0 128 103" fill="none" xmlns="http://www.w3.org/2000/svg">
<g filter="url(#filter0_f_7032_8395)">
<ellipse cx="64" cy="76" rx="32" ry="4" fill="black" fill-opacity="0.5"/>
</g>
<rect x="32" y="12" width="64" height="64" rx="32" fill="url(#paint0_radial_7032_8395)"/>
<path d="M62.9527 45.9579H54.6901C54.6396 45.9585 54.5895 45.949 54.5427 45.9301C54.4959 45.9112 54.4534 45.8831 54.4175 45.8476C54.3816 45.8121 54.3531 45.7699 54.3337 45.7233C54.3142 45.6767 54.3042 45.6267 54.3042 45.5763V42.5271C54.3048 42.4249 54.3454 42.327 54.4174 42.2545C54.4528 42.2195 54.4947 42.1919 54.5408 42.1731C54.5868 42.1544 54.6362 42.145 54.6859 42.1454H62.9527C63.0539 42.1454 63.151 42.1856 63.2225 42.2572C63.2941 42.3288 63.3343 42.4258 63.3343 42.5271V45.5805C63.3352 45.6312 63.3256 45.6817 63.3061 45.7286C63.2867 45.7755 63.2577 45.8179 63.2211 45.8531C63.1488 45.9218 63.0524 45.9594 62.9527 45.9579Z" fill="#527ACC"/>
<path d="M72.9517 45.9582H64.6849C64.5833 45.9571 64.4862 45.916 64.4148 45.8437C64.3433 45.7715 64.3032 45.674 64.3032 45.5724V42.5232C64.3032 42.473 64.3131 42.4234 64.3323 42.3771C64.3515 42.3308 64.3796 42.2887 64.415 42.2533C64.4505 42.2178 64.4925 42.1897 64.5388 42.1705C64.5851 42.1514 64.6348 42.1415 64.6849 42.1415H72.9475C73.0491 42.1415 73.1466 42.1816 73.2189 42.253C73.2911 42.3245 73.3323 42.4215 73.3334 42.5232V45.5807C73.3323 45.6816 73.2917 45.7781 73.2204 45.8494C73.149 45.9208 73.0526 45.9613 72.9517 45.9624V45.9582Z" fill="#527ACC"/>
<path d="M62.9525 58.2009H55.0716C55.0215 58.2009 54.9719 58.191 54.9256 58.1719C54.8793 58.1527 54.8372 58.1246 54.8017 58.0891C54.7663 58.0537 54.7382 58.0116 54.719 57.9653C54.6998 57.919 54.6899 57.8694 54.6899 57.8192V47.4973C54.6934 47.3957 54.7337 47.2988 54.8032 47.2247C54.8385 47.1897 54.8805 47.1621 54.9265 47.1434C54.9726 47.1246 55.0219 47.1152 55.0716 47.1156H62.9567C63.058 47.1156 63.155 47.1558 63.2266 47.2274C63.2982 47.299 63.3384 47.3961 63.3384 47.4973V57.8192C63.339 57.8695 63.3295 57.9194 63.3105 57.966C63.2915 58.0125 63.2634 58.0548 63.2279 58.0904C63.1923 58.1259 63.15 58.154 63.1035 58.173C63.0569 58.192 63.007 58.2015 62.9567 58.2009H62.9525Z" fill="#527ACC"/>
<path d="M72.5742 58.2051H64.6849C64.6348 58.2051 64.5851 58.1952 64.5388 58.176C64.4925 58.1569 64.4505 58.1287 64.415 58.0933C64.3796 58.0579 64.3515 58.0158 64.3323 57.9695C64.3131 57.9232 64.3032 57.8735 64.3032 57.8234V47.4973C64.3032 47.4472 64.3131 47.3975 64.3323 47.3512C64.3515 47.3049 64.3796 47.2628 64.415 47.2274C64.4505 47.192 64.4925 47.1638 64.5388 47.1447C64.5851 47.1255 64.6348 47.1156 64.6849 47.1156H72.5742C72.6754 47.1156 72.7725 47.1558 72.8441 47.2274C72.9157 47.299 72.9559 47.396 72.9559 47.4973V57.8234C72.9548 57.925 72.9136 58.0221 72.8414 58.0936C72.7691 58.165 72.6716 58.2051 72.57 58.2051H72.5742Z" fill="#527ACC"/>
<path d="M58.8086 40.8159C59.2876 41.2932 59.8022 41.7335 60.3479 42.1329H67.0922C67.6366 41.7336 68.1498 41.2933 68.6273 40.8159C70.4727 38.9704 71.84 36.6217 70.7244 35.506C70.5883 35.3683 70.4254 35.26 70.2457 35.1879C70.0661 35.1157 69.8735 35.0813 69.68 35.0866C68.5979 35.0866 66.9664 36.0513 65.4187 37.6031C64.7742 38.2372 64.2017 38.9405 63.7116 39.7002C63.2207 38.9411 62.6483 38.2379 62.0046 37.6031C60.4527 36.0555 58.8212 35.0866 57.7391 35.0866C57.5456 35.0813 57.353 35.1157 57.1734 35.1879C56.9937 35.26 56.8308 35.3683 56.6947 35.506C56.3131 35.8877 56.0069 36.6468 56.7325 38.0855C57.2832 39.0949 57.9832 40.0154 58.8086 40.8159ZM66.5595 38.7481C67.8178 37.4899 68.9628 36.8524 69.4955 36.7307C69.3738 37.2172 68.795 38.3581 67.4697 39.6667C66.2366 40.904 65.1041 41.5415 64.5337 41.6799C64.6763 41.1346 65.3138 39.9938 66.5595 38.7481ZM60.8764 38.7481C62.1975 40.0693 62.7805 41.2101 62.9022 41.6841C62.3485 41.5624 61.2035 40.9249 59.9452 39.6667C59.2406 38.9881 58.6438 38.206 58.1753 37.3473C58.0671 37.1491 57.9853 36.9376 57.932 36.7181C58.4857 36.8607 59.6265 37.4983 60.8764 38.7481Z" fill="#527ACC"/>
<path d="M65.4731 42.1412C65.6792 41.8247 65.796 41.4585 65.8112 41.0811C65.8264 40.7038 65.7393 40.3294 65.5593 39.9974C65.3793 39.6654 65.113 39.3881 64.7885 39.1949C64.464 39.0018 64.0934 38.8998 63.7158 38.8998C63.3381 38.8998 62.9675 39.0018 62.643 39.1949C62.3185 39.3881 62.0522 39.6654 61.8722 39.9974C61.6922 40.3294 61.6052 40.7038 61.6203 41.0811C61.6355 41.4585 61.7523 41.8247 61.9584 42.1412H65.4731Z" fill="#527ACC"/>
<path d="M53.378 33.0849C53.6372 33.3442 53.9545 33.5378 54.3036 33.6498C54.3511 33.6716 54.3914 33.7066 54.4197 33.7507C54.448 33.7947 54.463 33.8459 54.463 33.8982C54.463 33.9506 54.448 34.0018 54.4197 34.0458C54.3914 34.0898 54.3511 34.1248 54.3036 34.1466C53.9547 34.259 53.6376 34.4528 53.3785 34.712C53.1193 34.9711 52.9255 35.2882 52.8131 35.6371C52.7913 35.6846 52.7564 35.7249 52.7123 35.7532C52.6683 35.7815 52.6171 35.7965 52.5647 35.7965C52.5124 35.7965 52.4612 35.7815 52.4172 35.7532C52.3731 35.7249 52.3381 35.6846 52.3163 35.6371C52.2032 35.2886 52.0092 34.9719 51.7502 34.7128C51.4911 34.4538 51.1744 34.2598 50.8259 34.1466C50.7784 34.1248 50.738 34.0898 50.7098 34.0458C50.6815 34.0018 50.6665 33.9506 50.6665 33.8982C50.6665 33.8459 50.6815 33.7947 50.7098 33.7507C50.738 33.7066 50.7784 33.6716 50.8259 33.6498C51.1746 33.5371 51.4915 33.3432 51.7506 33.0841C52.0097 32.825 52.2036 32.5081 52.3163 32.1594C52.3381 32.1118 52.3731 32.0715 52.4172 32.0433C52.4612 32.015 52.5124 32 52.5647 32C52.6171 32 52.6683 32.015 52.7123 32.0433C52.7564 32.0715 52.7913 32.1118 52.8131 32.1594C52.9252 32.5084 53.1188 32.8257 53.378 33.0849Z" fill="#527ACC"/>
<path d="M76.0445 38.4183C76.3037 38.6775 76.621 38.8712 76.9701 38.9832C77.0176 39.005 77.0579 39.04 77.0862 39.084C77.1145 39.1281 77.1295 39.1793 77.1295 39.2316C77.1295 39.2839 77.1145 39.3352 77.0862 39.3792C77.0579 39.4232 77.0176 39.4582 76.9701 39.48C76.6212 39.5924 76.3041 39.7862 76.045 40.0453C75.7858 40.3045 75.592 40.6216 75.4797 40.9704C75.4579 41.018 75.4229 41.0583 75.3788 41.0866C75.3348 41.1148 75.2836 41.1299 75.2312 41.1299C75.1789 41.1299 75.1277 41.1148 75.0837 41.0866C75.0396 41.0583 75.0046 41.018 74.9828 40.9704C74.8697 40.622 74.6757 40.3053 74.4167 40.0462C74.1576 39.7872 73.8409 39.5931 73.4924 39.48C73.4449 39.4582 73.4046 39.4232 73.3763 39.3792C73.348 39.3352 73.333 39.2839 73.333 39.2316C73.333 39.1793 73.348 39.1281 73.3763 39.084C73.4046 39.04 73.4449 39.005 73.4924 38.9832C73.8411 38.8705 74.158 38.6766 74.4171 38.4175C74.6762 38.1583 74.8701 37.8414 74.9828 37.4928C75.0046 37.4452 75.0396 37.4049 75.0837 37.3767C75.1277 37.3484 75.1789 37.3334 75.2312 37.3334C75.2836 37.3334 75.3348 37.3484 75.3788 37.3767C75.4229 37.4049 75.4579 37.4452 75.4797 37.4928C75.5917 37.8418 75.7853 38.1591 76.0445 38.4183Z" fill="#527ACC"/>
<path d="M17.088 92.344C17.12 92.632 17.152 92.92 17.168 93.192C17.184 93.56 17.008 93.736 16.64 93.784C16.192 93.848 15.968 93.672 15.968 93.224C15.952 93 15.936 92.76 15.904 92.504C15.872 92.2 15.84 91.896 15.792 91.608C15.728 91.224 15.904 91.016 16.304 90.968C16.656 90.92 16.88 91.064 16.944 91.416C17.008 91.72 17.04 92.04 17.088 92.344ZM18.832 92.12C18.912 92.376 18.96 92.648 19.008 92.888C19.072 93.272 18.928 93.448 18.544 93.528C18.128 93.608 17.904 93.496 17.84 93.064C17.808 92.84 17.76 92.6 17.696 92.36C17.632 92.104 17.568 91.832 17.488 91.56C17.344 91.16 17.488 90.936 17.904 90.856C18.24 90.792 18.464 90.92 18.576 91.24C18.656 91.528 18.752 91.832 18.832 92.12ZM20.688 91.688C20.8 91.928 20.912 92.152 21.008 92.376C21.136 92.76 21.008 92.968 20.64 93.128C20.192 93.32 19.92 93.24 19.776 92.776C19.696 92.568 19.616 92.36 19.52 92.152C19.408 91.912 19.296 91.672 19.168 91.432C18.928 91.032 19.04 90.76 19.472 90.6C19.792 90.472 20.032 90.552 20.224 90.84C20.384 91.112 20.544 91.4 20.688 91.688ZM13.92 92.52C14.032 92.248 14.112 91.96 14.176 91.656C14.256 91.176 14.544 91.032 15.008 91.16C15.392 91.272 15.552 91.512 15.472 91.912C15.408 92.296 15.312 92.68 15.2 93.032C15.088 93.384 14.944 93.704 14.768 93.992C14.544 94.296 14.272 94.344 13.936 94.168C13.472 93.928 13.344 93.608 13.632 93.16C13.744 92.968 13.84 92.744 13.92 92.52ZM23.312 83.208V80.344C23.312 79.736 23.632 79.432 24.24 79.432C24.848 79.432 25.152 79.736 25.152 80.344V82.728H27.344C27.936 82.728 28.224 83.016 28.224 83.608C28.224 84.2 27.936 84.504 27.344 84.504H26.688H25.152V86.968H26.656C27.28 86.968 27.696 87.384 27.696 88.008V92.76C27.696 93.384 27.28 93.8 26.656 93.8H22.256C21.632 93.8 21.216 93.384 21.216 92.76V88.008C21.216 87.384 21.632 86.968 22.256 86.968H23.312V83.208ZM25.872 90.392V89.192C25.872 88.872 25.712 88.712 25.392 88.712H24.4H23.408C23.088 88.712 22.928 88.872 22.928 89.192V91.576C22.928 91.896 23.088 92.056 23.408 92.056H25.392C25.712 92.056 25.872 91.896 25.872 91.576V90.392ZM15.328 83.32V84.2C15.328 84.52 15.488 84.68 15.808 84.68H16.672V82.936V81.176H15.808C15.488 81.176 15.328 81.336 15.328 81.656V81.848L15.76 81.736C15.968 81.672 16.144 81.768 16.208 81.976C16.368 82.504 16.512 83.112 16.576 83.608C16.608 83.864 16.496 83.96 16.256 84.04C15.92 84.152 15.744 84.088 15.712 83.736C15.648 83.192 15.504 82.52 15.328 81.96V83.32ZM18.816 83.384C18.752 83.56 18.688 83.736 18.624 83.896C18.544 84.088 18.336 84.168 18.112 84.088L17.808 83.976V84.68H18.704C19.024 84.68 19.184 84.52 19.184 84.2V83.544V82.408C19.056 82.728 18.928 83.08 18.816 83.384ZM18.16 82.744C18.224 82.52 18.272 82.312 18.32 82.104C18.368 81.832 18.608 81.688 18.912 81.784L19.184 81.88V81.48C19.184 81.272 19.088 81.176 18.88 81.176H17.808V82.536V83.88C17.936 83.544 18.048 83.144 18.16 82.744ZM13.92 82.936V80.936C13.92 80.312 14.336 79.896 14.96 79.896H17.28H19.616C20.24 79.896 20.656 80.312 20.656 80.936V84.92C20.656 85.544 20.24 85.96 19.616 85.96H18.08V86.648H19.904C20.384 86.648 20.624 86.888 20.624 87.368C20.624 87.848 20.384 88.104 19.904 88.104H18.08V88.808L20.096 88.728C20.624 88.712 20.88 88.952 20.864 89.48C20.848 89.96 20.576 90.216 20.096 90.248C18.048 90.36 15.952 90.472 14.288 90.536C13.744 90.568 13.6 90.296 13.584 89.752C13.568 89.224 13.84 88.952 14.368 88.936L16.4 88.872V88.104H14.672C14.192 88.104 13.952 87.848 13.952 87.368C13.952 86.888 14.192 86.648 14.672 86.648H16.4V85.96H14.96C14.336 85.96 13.92 85.544 13.92 84.92V82.936ZM42.112 90.968H44.608C45.008 90.968 45.216 91.176 45.216 91.576C45.216 91.976 45.008 92.2 44.608 92.2H42.112H39.024V92.792C39.024 93.64 38.832 94.008 38.192 94.216C37.696 94.392 37.088 94.424 36.272 94.44C35.84 94.44 35.424 94.296 35.248 93.896C34.976 93.24 35.424 93.016 36.128 93.032C36.448 93.032 36.704 93.016 36.816 93.016C37.056 93.016 37.152 92.952 37.152 92.744V92.2H31.6C31.2 92.2 30.992 91.976 30.992 91.576C30.992 91.176 31.2 90.968 31.6 90.968H37.152V90.44H32.624C32.24 90.44 32.048 90.232 32.048 89.848C32.048 89.464 32.24 89.272 32.624 89.272H37.152V88.792C35.824 88.84 34.48 88.856 33.216 88.84C32.896 88.824 32.72 88.68 32.64 88.376C32.528 87.96 32.72 87.784 33.152 87.784C36.144 87.784 39.552 87.656 41.616 87.368C41.872 87.336 42 87.416 42.192 87.592C42.72 88.04 42.752 88.312 42.064 88.424C41.136 88.536 40.096 88.632 39.024 88.696V89.272H43.68C44.064 89.272 44.256 89.464 44.256 89.848C44.256 90.232 44.064 90.44 43.68 90.44H39.024V90.968H42.112ZM36 87.384H34.544H32.656C32.032 87.384 31.616 86.968 31.616 86.344V86.264C31.616 85.832 31.952 85.624 32.384 85.624C32.656 85.624 32.896 85.768 32.896 86.04V86.072C32.896 86.312 33.008 86.424 33.248 86.424H33.776V85.512H31.312C31.008 85.512 30.848 85.352 30.848 85.048C30.848 84.744 31.008 84.584 31.312 84.584H33.776V84.2H32.544C31.92 84.2 31.504 83.784 31.504 83.16V82.504C31.504 81.88 31.92 81.464 32.544 81.464H33.776V81.224C33.776 81.128 33.728 81.08 33.632 81.08H31.536C31.232 81.08 31.072 80.904 31.072 80.6C31.072 80.296 31.232 80.136 31.536 80.136H33.776V80.104C33.776 79.656 34.048 79.416 34.496 79.416C34.944 79.416 35.216 79.656 35.216 80.104V80.136H37.552C37.856 80.136 38.016 80.296 38.016 80.6C38.016 80.904 37.856 81.08 37.552 81.08H35.552C35.328 81.08 35.216 81.192 35.216 81.416V81.464H36.576C37.2 81.464 37.616 81.88 37.616 82.504V83.16C37.616 83.784 37.2 84.2 36.576 84.2H35.216V84.584H37.6C37.904 84.584 38.064 84.744 38.064 85.048C38.064 85.352 37.904 85.512 37.6 85.512H35.216V86.424H35.728C36 86.424 36.128 86.296 36.128 86.024V85.768C36.128 85.672 36.176 85.624 36.272 85.624H36.592C37.184 85.624 37.472 85.912 37.472 86.504C37.472 87.096 37.184 87.384 36.592 87.384H36ZM33.248 83.544H33.776V83.144H33.248H32.944C32.8 83.144 32.736 83.208 32.736 83.352V83.4C32.736 83.496 32.784 83.544 32.88 83.544H33.248ZM35.776 83.544H36.128C36.272 83.544 36.336 83.48 36.336 83.336V83.288C36.336 83.192 36.288 83.144 36.192 83.144H35.76H35.216V83.544H35.776ZM33.248 82.504H33.776V82.12H33.248H32.928C32.8 82.12 32.736 82.184 32.736 82.312V82.36C32.736 82.456 32.784 82.504 32.88 82.504H33.248ZM35.776 82.504H36.144C36.272 82.504 36.336 82.44 36.336 82.312V82.264C36.336 82.168 36.288 82.12 36.192 82.12H35.76H35.216V82.504H35.776ZM40.864 84.968C41.024 85.112 41.216 85.24 41.408 85.368C41.616 85.24 41.824 85.112 42 84.984C42.176 84.84 42.352 84.68 42.496 84.52H40.432C40.56 84.68 40.704 84.824 40.864 84.968ZM41.456 83.32H43.376C44.112 83.32 44.4 83.768 44.064 84.584C43.712 85.192 43.28 85.656 42.768 86.04C43.264 86.216 43.792 86.376 44.368 86.488C45.136 86.616 45.408 86.888 44.96 87.528C44.704 87.88 44.368 87.96 43.936 87.88C42.912 87.656 42 87.32 41.216 86.872C40.624 87.112 39.952 87.288 39.232 87.416C38.832 87.48 38.512 87.4 38.32 87.032C38.032 86.488 38.272 86.248 38.896 86.168C39.264 86.104 39.6 86.024 39.936 85.944C39.728 85.752 39.536 85.56 39.36 85.352C39.104 85.016 39.2 84.712 39.616 84.584L39.84 84.52H38.912C38.512 84.52 38.32 84.264 38.32 83.864C38.32 83.544 38.48 83.32 38.8 83.32H38.832C38.672 83.144 38.464 82.952 38.272 82.792C38.032 82.6 38.048 82.328 38.56 81.992C38.96 81.608 39.024 81.208 39.024 80.792V80.264C39.024 80.008 39.184 79.848 39.44 79.848H41.264H42.48C43.104 79.848 43.52 80.264 43.52 80.888V81.256C43.52 81.464 43.52 81.592 43.552 81.656C43.584 81.704 43.632 81.72 43.696 81.72C43.76 81.72 43.856 81.72 43.936 81.72C44.016 81.72 44.08 81.704 44.128 81.688C44.176 81.656 44.224 81.608 44.256 81.48V81.464C44.304 81.016 44.544 80.904 44.944 81.112C45.264 81.288 45.408 81.64 45.36 82.008C45.312 82.216 45.28 82.376 45.216 82.472C45.12 82.68 44.96 82.84 44.736 82.92C44.544 83.032 44.224 83.048 43.984 83.048C43.76 83.048 43.472 83.048 43.264 83.048C42.896 83.048 42.48 82.952 42.24 82.712C42.016 82.456 41.92 82.136 41.92 81.304V81.176C41.92 81.144 41.92 81.144 41.888 81.144H40.576C40.544 81.768 40.368 82.392 39.888 82.936C39.584 83.208 39.632 83.32 39.952 83.32H41.456ZM55.36 87.56H58.08C58.4 87.56 58.56 87.4 58.56 87.08V85.416H55.36H52.176V87.08C52.176 87.4 52.336 87.56 52.656 87.56H55.36ZM56.24 79.784H57.904C58.368 79.784 58.8 80.04 59.008 80.408C59.68 81.496 60.672 82.552 61.776 83.352C62.544 83.832 62.72 84.296 62.096 84.936C61.616 85.416 61.184 85.4 60.624 85C60.592 84.968 60.544 84.936 60.512 84.904V88.232C60.512 88.856 60.096 89.272 59.472 89.272H58.032V91.96C58.032 92.488 58.128 92.552 58.72 92.552C58.976 92.552 60.016 92.552 60.352 92.552C60.576 92.552 60.704 92.504 60.816 92.344C60.928 91.48 61.296 90.616 62.096 90.952C62.624 91.176 62.672 92.056 62.592 92.632C62.304 93.928 61.728 94.312 60.544 94.312C60.144 94.312 58.816 94.312 58.432 94.312C56.528 94.312 56.096 93.752 56.096 91.976V89.272H54.416C54.048 91.496 53.216 93.112 50.192 94.104C49.616 94.264 48.752 94.312 48.432 93.8C47.952 93.032 49.008 92.488 49.888 92.264C51.68 91.576 52.16 90.6 52.4 89.272H51.312C50.704 89.272 50.32 88.888 50.32 88.28V84.936C50.256 84.984 50.192 85.032 50.128 85.096C49.6 85.496 49.184 85.496 48.72 85.032C48.112 84.424 48.24 83.96 48.96 83.48C49.808 82.824 50.608 82.024 51.184 81.176C51.488 80.68 51.92 80.536 52.48 80.712C53.184 80.936 53.36 81.368 52.976 81.992C52.576 82.584 52.128 83.16 51.632 83.688H55.408H59.2C58.56 83.016 57.968 82.28 57.504 81.528H54.704C54.128 81.528 53.84 81.224 53.84 80.648C53.84 80.072 54.128 79.784 54.704 79.784H56.24ZM79.36 85.832V87.672C79.36 88.2 79.088 88.472 78.56 88.472C78.032 88.472 77.76 88.2 77.76 87.672V85.144C77.76 84.824 77.6 84.664 77.28 84.664H75.856C75.792 85.032 75.664 85.256 75.536 85.512C76.144 85.832 76.816 86.264 77.312 86.648C77.648 86.92 77.6 87.176 77.328 87.512C77.024 87.896 76.768 88.008 76.4 87.688C75.952 87.32 75.36 86.92 74.8 86.568C74.528 86.936 74.24 87.288 73.936 87.592C73.552 87.928 73.024 87.96 72.608 87.64C72.496 87.56 72.384 87.48 72.272 87.416V87.736C72.272 88.248 72.016 88.504 71.504 88.504C70.992 88.504 70.72 88.248 70.72 87.736V84.12C70.528 83.88 70.32 83.672 70.16 83.496V83.896C70.16 84.088 70.048 84.2 69.856 84.2H68.704V86.536L69.088 86.424C69.696 86.248 70.048 86.472 70.128 87.096C70.192 87.608 70 87.944 69.504 88.088L68.704 88.344V92.424C68.704 93.288 68.56 93.784 68.08 94.072C67.792 94.264 67.408 94.36 66.928 94.408C66.352 94.424 65.824 94.248 65.68 93.688C65.488 92.936 65.872 92.68 66.64 92.68C66.672 92.68 66.704 92.68 66.72 92.68C66.912 92.68 66.992 92.632 66.992 92.424V88.824L66.4 89C65.776 89.192 65.408 88.968 65.264 88.344C65.136 87.752 65.344 87.384 65.936 87.24L66.992 86.968V84.2H66.176C65.6 84.2 65.312 83.896 65.312 83.32C65.312 82.744 65.6 82.456 66.176 82.456H66.992V80.28C66.992 79.72 67.296 79.432 67.856 79.432C68.416 79.432 68.704 79.72 68.704 80.28V82.456H69.84C70.032 82.456 70.16 82.584 70.16 82.776V82.824C71.072 82.056 71.808 81.144 72.304 80.104C72.512 79.608 72.88 79.416 73.408 79.496C74.016 79.592 74.224 79.944 73.968 80.52L73.952 80.552H76.208C76.912 80.552 77.248 81 76.976 81.896C76.768 82.424 76.528 82.824 76.304 83.176H77.824H78.64C79.072 83.176 79.36 83.464 79.36 83.896V85.832ZM71.984 89H73.936C73.968 88.84 73.984 88.68 74 88.52C74.048 87.976 74.336 87.688 74.88 87.688C75.488 87.688 75.744 88.008 75.68 88.6L75.648 89H77.76H79.088C79.616 89 79.872 89.256 79.872 89.784C79.872 90.312 79.616 90.568 79.088 90.568H76.368C76.832 91.4 77.568 92.008 78.608 92.408C79.472 92.632 79.968 93.032 79.472 93.768C79.168 94.232 78.64 94.264 78.112 94.12C76.592 93.592 75.584 92.728 74.944 91.464C74.32 92.68 73.232 93.576 71.28 94.184C70.768 94.328 70.16 94.328 69.872 93.88C69.456 93.208 70.112 92.792 70.88 92.6C72.272 92.12 73.04 91.464 73.472 90.568H70.816C70.288 90.568 70.032 90.312 70.032 89.784C70.032 89.256 70.288 89 70.816 89H71.984ZM72.704 82.6C72.544 82.792 72.384 82.984 72.192 83.176H73.328H74.464C74.672 82.84 74.912 82.408 75.072 82.008H73.12C72.992 82.2 72.848 82.408 72.704 82.6ZM73.344 86.056C73.664 85.672 73.92 85.224 74.128 84.664H72.272V85.88V86.616C72.272 86.936 72.4 87 72.656 86.776C72.912 86.552 73.136 86.312 73.344 86.056ZM92.512 89.976H94.128C94.432 89.976 94.576 89.832 94.576 89.528V89.48C94.576 89.208 94.448 89.08 94.176 89.08H92.512H90.912C90.608 89.08 90.464 89.224 90.464 89.528V89.576C90.464 89.848 90.592 89.976 90.864 89.976H92.512ZM92.48 86.04H96.48C96.928 86.04 97.152 86.264 97.152 86.712C97.152 87.16 96.928 87.4 96.48 87.4H92.48H88.496C88.048 87.4 87.824 87.16 87.824 86.712C87.824 86.264 88.048 86.04 88.496 86.04H92.48ZM93.504 91.912C93.616 91.656 93.712 91.384 93.792 91.144H92.448H91.136C91.344 91.528 91.52 91.976 91.632 92.344C91.664 92.504 91.568 92.664 91.376 92.728L91.328 92.744H93.536L93.312 92.68C93.232 92.664 93.2 92.6 93.232 92.536C93.312 92.344 93.408 92.136 93.504 91.912ZM92.544 87.944H95.152C95.776 87.944 96.192 88.36 96.192 88.984V90.104C96.192 90.728 95.776 91.144 95.152 91.144H95.088L95.36 91.208C95.472 91.24 95.504 91.32 95.456 91.416L94.8 92.744H96.624C97.088 92.744 97.328 93 97.328 93.464C97.328 93.928 97.088 94.168 96.624 94.168H92.496H88.384C87.92 94.168 87.68 93.928 87.68 93.464C87.68 93 87.92 92.744 88.384 92.744H90.128C90.048 92.424 89.92 92.056 89.76 91.72C89.632 91.464 89.744 91.24 90.016 91.16L90.064 91.144H89.44C89.12 91.144 88.912 90.936 88.912 90.616V88.984C88.912 88.36 89.328 87.944 89.952 87.944H92.544ZM90.384 84.376H90.848V83.608H90.4H89.936V84.04C89.936 84.264 90.048 84.376 90.272 84.376H90.384ZM92.496 84.376H92.944V83.608H92.496H92.064V84.376H92.496ZM94.608 84.376H94.896C95.024 84.376 95.088 84.312 95.088 84.184V83.608H94.608H94.144V84.376H94.608ZM90.384 82.536H90.848V81.768H90.4H90.112C89.984 81.768 89.936 81.816 89.936 81.944V82.536H90.384ZM92.496 82.536H92.944V81.768H92.496H92.064V82.536H92.496ZM94.608 82.536H95.088V82.104C95.088 81.88 94.976 81.768 94.752 81.768H94.608H94.144V82.536H94.608ZM96.672 83.08V84.472C96.672 85.096 96.256 85.512 95.632 85.512H92.528H89.456C88.832 85.512 88.416 85.096 88.416 84.472V81.688C88.416 81.064 88.832 80.648 89.456 80.648H90.608V80.12C90.608 79.64 90.864 79.4 91.344 79.4C91.824 79.4 92.064 79.64 92.064 80.12V80.648H92.944V80.136C92.944 79.64 93.2 79.4 93.696 79.4C94.192 79.4 94.432 79.64 94.432 80.136V80.648H95.632C96.256 80.648 96.672 81.064 96.672 81.688V83.08ZM86.368 91.32V93.544C86.368 94.136 86.064 94.44 85.472 94.44C84.88 94.44 84.56 94.136 84.56 93.544V89.048C84.368 89.256 84.176 89.448 83.984 89.624C83.36 90.136 82.928 90.136 82.592 89.4C82.304 88.776 82.416 88.408 82.976 87.992C84.16 86.984 85.264 85.576 85.984 84.072H84.384H83.6C83.04 84.072 82.768 83.784 82.768 83.224C82.768 82.664 83.04 82.392 83.6 82.392H84.56V80.312C84.56 79.72 84.88 79.416 85.472 79.416C86.064 79.416 86.368 79.72 86.368 80.312V82.392H87.344C87.872 82.392 88.128 82.728 87.952 83.4C87.6 84.616 87.152 85.528 86.624 86.36C87.024 86.728 87.632 87.32 88.064 87.752C88.448 88.152 88.368 88.376 88.048 88.824C87.6 89.432 87.248 89.416 86.816 88.792C86.672 88.6 86.528 88.392 86.368 88.2V91.32ZM110.08 81.896H111.584H113.52C114.16 81.896 114.56 82.312 114.496 83.976C114.208 90.408 113.92 92.648 113.36 93.384C112.976 93.928 112.656 94.104 112.112 94.216C111.888 94.248 111.616 94.28 111.312 94.28C110.704 94.264 110.256 94.104 110.096 93.512C109.856 92.632 110.256 92.408 111.168 92.456C111.184 92.456 111.184 92.456 111.2 92.456C111.44 92.456 111.584 92.392 111.776 92.152C112.192 91.64 112.48 89.448 112.736 83.672H112.672C111.936 87.416 110.48 91.272 108.24 93.512C107.808 93.928 107.488 93.928 107.008 93.576C106.352 93.096 106.352 92.744 106.976 92.232C109.008 90.248 110.336 87 111.072 83.672H110.304C109.696 85.992 108.576 88.536 107.216 90.136C106.8 90.568 106.512 90.6 106.032 90.248C105.408 89.8 105.408 89.464 105.968 88.936C107.184 87.608 108.128 85.624 108.736 83.672H107.936C107.6 84.472 107.2 85.192 106.784 85.816C106.416 86.344 106.08 86.408 105.568 86.024C105.04 85.624 104.976 85.288 105.392 84.76C106.208 83.592 106.832 82.008 107.248 80.344C107.376 79.768 107.744 79.448 108.32 79.56C108.896 79.672 109.12 80.024 108.976 80.6C108.864 81.048 108.72 81.464 108.592 81.896H110.08ZM102.544 91.848V89.256L101.088 89.688C100.464 89.88 100.096 89.672 99.936 89.048C99.792 88.424 99.904 88.088 100.528 87.944C101.136 87.784 101.84 87.608 102.544 87.4V84.328H101.504C101.408 84.744 101.296 85.144 101.184 85.528C100.976 86.136 100.688 86.248 100.144 85.896C99.728 85.624 99.6 85.368 99.76 84.904C100.064 83.88 100.256 82.568 100.368 81.24C100.416 80.68 100.72 80.36 101.28 80.456C101.792 80.536 102.016 80.84 101.968 81.352C101.92 81.736 101.872 82.12 101.808 82.504H102.544V80.28C102.544 79.704 102.848 79.416 103.424 79.416C104 79.416 104.288 79.704 104.288 80.28V82.504H104.704C105.312 82.504 105.616 82.808 105.616 83.416C105.616 84.024 105.312 84.328 104.704 84.328H104.288V86.92L104.88 86.76C105.472 86.584 105.808 86.808 105.888 87.416C105.952 87.912 105.744 88.264 105.264 88.408L104.288 88.728V91.592V93.576C104.288 94.152 104 94.44 103.424 94.44C102.848 94.44 102.544 94.152 102.544 93.576V91.848Z" fill="#527ACC"/>
<defs>
<filter id="filter0_f_7032_8395" x="24" y="64" width="80" height="24" filterUnits="userSpaceOnUse" color-interpolation-filters="sRGB">
<feFlood flood-opacity="0" result="BackgroundImageFix"/>
<feBlend mode="normal" in="SourceGraphic" in2="BackgroundImageFix" result="shape"/>
<feGaussianBlur stdDeviation="4" result="effect1_foregroundBlur_7032_8395"/>
</filter>
<radialGradient id="paint0_radial_7032_8395" cx="0" cy="0" r="1" gradientUnits="userSpaceOnUse" gradientTransform="translate(64 33.3333) rotate(90) scale(42.6667)">
<stop offset="0.2" stop-color="white"/>
<stop offset="1" stop-color="#99DDFF"/>
</radialGradient>
</defs>
</svg>
