<svg width="240" height="59" viewBox="0 0 240 59" fill="none" xmlns="http://www.w3.org/2000/svg">
<path d="M71.956 18V6.144H74.324V16.016H79.14V18H71.956ZM86.5025 18.224C85.4572 18.224 84.5345 17.9787 83.7345 17.488C82.9452 16.9867 82.3265 16.272 81.8785 15.344C81.4305 14.416 81.2065 13.3067 81.2065 12.016C81.2065 10.736 81.4305 9.64267 81.8785 8.736C82.3265 7.82933 82.9452 7.136 83.7345 6.656C84.5345 6.176 85.4572 5.936 86.5025 5.936C87.5585 5.936 88.4812 6.18133 89.2705 6.672C90.0598 7.152 90.6785 7.84533 91.1265 8.752C91.5745 9.648 91.7985 10.736 91.7985 12.016C91.7985 13.3067 91.5745 14.416 91.1265 15.344C90.6785 16.272 90.0598 16.9867 89.2705 17.488C88.4812 17.9787 87.5585 18.224 86.5025 18.224ZM86.5025 16.176C87.0892 16.176 87.5958 16.0053 88.0225 15.664C88.4598 15.3227 88.7958 14.8427 89.0305 14.224C89.2652 13.5947 89.3825 12.8587 89.3825 12.016C89.3825 11.1733 89.2652 10.4533 89.0305 9.856C88.7958 9.248 88.4598 8.784 88.0225 8.464C87.5958 8.13333 87.0892 7.968 86.5025 7.968C85.9158 7.968 85.4038 8.13333 84.9665 8.464C84.5398 8.784 84.2092 9.248 83.9745 9.856C83.7505 10.4533 83.6385 11.1733 83.6385 12.016C83.6385 12.8587 83.7505 13.5947 83.9745 14.224C84.2092 14.8427 84.5398 15.3227 84.9665 15.664C85.4038 16.0053 85.9158 16.176 86.5025 16.176ZM93.6054 18L97.3974 6.144H100.197L103.989 18H101.493L99.8134 11.824C99.632 11.2053 99.456 10.5653 99.2854 9.904C99.1254 9.232 98.9547 8.58133 98.7734 7.952H98.7094C98.56 8.592 98.3947 9.24267 98.2134 9.904C98.0427 10.5653 97.872 11.2053 97.7014 11.824L96.0054 18H93.6054ZM95.9574 14.96V13.12H101.589V14.96H95.9574ZM106.655 18V6.144H109.903C111.119 6.144 112.159 6.35733 113.023 6.784C113.898 7.21067 114.57 7.856 115.039 8.72C115.519 9.584 115.759 10.6827 115.759 12.016C115.759 13.3493 115.525 14.4587 115.055 15.344C114.586 16.2293 113.925 16.896 113.071 17.344C112.218 17.7813 111.205 18 110.031 18H106.655ZM109.023 16.08H109.743C110.49 16.08 111.13 15.9467 111.663 15.68C112.207 15.4027 112.623 14.9653 112.911 14.368C113.199 13.76 113.343 12.976 113.343 12.016C113.343 11.056 113.199 10.288 112.911 9.712C112.623 9.12533 112.207 8.704 111.663 8.448C111.13 8.18133 110.49 8.048 109.743 8.048H109.023V16.08ZM119.357 18V6.144H121.725V18H119.357ZM125.919 18V6.144H128.335L131.775 12.464L132.975 15.024H133.055C132.991 14.4053 132.921 13.728 132.847 12.992C132.772 12.256 132.735 11.552 132.735 10.88V6.144H134.975V18H132.559L129.151 11.664L127.951 9.12H127.871C127.924 9.76 127.988 10.4373 128.063 11.152C128.137 11.8667 128.175 12.5653 128.175 13.248V18H125.919ZM144.271 18.224C143.204 18.224 142.239 17.9893 141.375 17.52C140.522 17.0507 139.844 16.3627 139.343 15.456C138.842 14.5493 138.591 13.44 138.591 12.128C138.591 11.1467 138.735 10.2773 139.023 9.52C139.322 8.752 139.732 8.10133 140.255 7.568C140.778 7.03467 141.38 6.62933 142.063 6.352C142.746 6.07467 143.482 5.936 144.271 5.936C145.124 5.936 145.85 6.096 146.447 6.416C147.055 6.72533 147.551 7.072 147.935 7.456L146.671 8.96C146.372 8.68267 146.042 8.448 145.679 8.256C145.327 8.064 144.884 7.968 144.351 7.968C143.69 7.968 143.108 8.13333 142.607 8.464C142.106 8.784 141.716 9.248 141.439 9.856C141.162 10.464 141.023 11.1947 141.023 12.048C141.023 12.912 141.151 13.6533 141.407 14.272C141.674 14.88 142.068 15.3493 142.591 15.68C143.114 16.0107 143.759 16.176 144.527 16.176C144.815 16.176 145.092 16.1387 145.359 16.064C145.626 15.9787 145.839 15.8667 145.999 15.728V13.392H143.903V11.456H148.127V16.8C147.722 17.1947 147.183 17.5307 146.511 17.808C145.839 18.0853 145.092 18.224 144.271 18.224ZM153.084 18.224C152.657 18.224 152.305 18.0747 152.028 17.776C151.75 17.4773 151.612 17.1147 151.612 16.688C151.612 16.24 151.75 15.872 152.028 15.584C152.305 15.296 152.657 15.152 153.084 15.152C153.5 15.152 153.846 15.296 154.124 15.584C154.401 15.872 154.54 16.24 154.54 16.688C154.54 17.1147 154.401 17.4773 154.124 17.776C153.846 18.0747 153.5 18.224 153.084 18.224ZM159.567 18.224C159.14 18.224 158.788 18.0747 158.511 17.776C158.233 17.4773 158.095 17.1147 158.095 16.688C158.095 16.24 158.233 15.872 158.511 15.584C158.788 15.296 159.14 15.152 159.567 15.152C159.983 15.152 160.329 15.296 160.607 15.584C160.884 15.872 161.023 16.24 161.023 16.688C161.023 17.1147 160.884 17.4773 160.607 17.776C160.329 18.0747 159.983 18.224 159.567 18.224ZM166.05 18.224C165.623 18.224 165.271 18.0747 164.994 17.776C164.717 17.4773 164.578 17.1147 164.578 16.688C164.578 16.24 164.717 15.872 164.994 15.584C165.271 15.296 165.623 15.152 166.05 15.152C166.466 15.152 166.813 15.296 167.09 15.584C167.367 15.872 167.506 16.24 167.506 16.688C167.506 17.1147 167.367 17.4773 167.09 17.776C166.813 18.0747 166.466 18.224 166.05 18.224Z" fill="#DC5511"/>
<rect x="1" y="36" width="238" height="22" rx="11" fill="#FFFBF8"/>
<rect x="1" y="36" width="238" height="22" rx="11" stroke="#DC5511" stroke-width="2"/>
<rect x="6" y="41" width="122" height="12" rx="6" fill="url(#paint0_linear_0_426)"/>
<defs>
<linearGradient id="paint0_linear_0_426" x1="6" y1="47" x2="128" y2="47" gradientUnits="userSpaceOnUse">
<stop stop-color="#DA3700"/>
<stop offset="1" stop-color="#DA3700" stop-opacity="0"/>
</linearGradient>
</defs>
</svg>
