<svg width="170" height="40" viewBox="0 0 170 40" fill="none" xmlns="http://www.w3.org/2000/svg">
<g clip-path="url(#clip0_232_2438)">
<path d="M58.946 19.538C58.944 19.0028 58.7744 18.4818 58.461 18.048L58.414 17.985L58.371 17.929L44.178 0H14.768L0.532 17.985C0.189828 18.4291 0.00292518 18.9733 0 19.534L0 19.574C0.002 20.112 0.174 20.637 0.492 21.071L14.768 39.111H44.178L58.414 21.127C58.7577 20.6833 58.9448 20.1383 58.946 19.577V19.538ZM47.758 19.561L35.218 35.39V3.72L47.758 19.56V19.561ZM23.735 3.721V35.39L11.192 19.554L23.735 3.721Z" fill="white"/>
<path d="M57.8629 18.4609L43.8469 0.764893H15.0989L1.0869 18.4599C0.84445 18.773 0.712891 19.1579 0.712891 19.5539C0.712891 19.9499 0.84445 20.3347 1.0869 20.6479L15.0989 38.3499H43.8469L57.8629 20.6499C58.103 20.3355 58.2331 19.951 58.2331 19.5554C58.2331 19.1598 58.103 18.7752 57.8629 18.4609ZM24.1089 36.4899L10.7199 19.5379L24.1099 2.60589V36.4889L24.1089 36.4899ZM34.8359 36.4899V2.62089L48.2459 19.5729L34.8359 36.4889V36.4899Z" fill="white"/>
<path d="M36.656 2.566C36.4958 2.35878 36.2906 2.19076 36.0558 2.07467C35.821 1.95859 35.5629 1.89748 35.301 1.896C35.178 1.896 35.056 1.91 34.935 1.936L34.801 1.971L34.679 2.011C34.5631 2.05824 34.4525 2.11757 34.349 2.188C34.1289 2.38179 33.9608 2.62767 33.8602 2.90315C33.7596 3.17863 33.7296 3.47494 33.773 3.765C33.7933 3.94611 33.8756 4.11463 34.006 4.242V3.765C34.0012 3.47333 34.0889 3.18763 34.2565 2.94888C34.4241 2.71013 34.663 2.53059 34.939 2.436C35.183 2.36255 35.4436 2.36553 35.6858 2.44454C35.928 2.52355 36.1403 2.67481 36.294 2.878L49.084 19.041C49.201 19.192 49.264 19.378 49.266 19.569H49.731C49.731 19.265 49.629 18.969 49.443 18.729L36.656 2.566Z" fill="white"/>
<path d="M49.085 20.1049L36.294 36.2699C36.1774 36.4227 36.0272 36.5466 35.855 36.6319C35.6827 36.7173 35.4932 36.7617 35.301 36.7619H35.25L34.856 36.9789C34.856 36.9789 35.896 37.3739 36.561 36.6789C36.589 36.6489 36.617 36.6209 36.644 36.5849L49.431 20.4219C49.617 20.1799 49.718 19.8829 49.719 19.5779H49.266C49.2654 19.769 49.2018 19.9546 49.085 20.1059V20.1049Z" fill="white"/>
<path d="M23.8921 36.7261C24.0151 36.7261 24.1371 36.7071 24.2551 36.6711C24.5343 36.5797 24.7769 36.4014 24.9476 36.1623C25.1184 35.9232 25.2082 35.6359 25.2041 35.3421V3.7571C25.2059 3.52216 25.1483 3.29056 25.0368 3.08376C24.9253 2.87697 24.7634 2.70167 24.5661 2.5741L24.2121 2.2041C24.5079 2.24466 24.7892 2.35761 25.031 2.53292C25.2728 2.70823 25.4676 2.94049 25.5981 3.2091C25.6481 3.3871 25.6741 3.5721 25.6731 3.7571V35.3421C25.6803 35.7361 25.5621 36.1221 25.3357 36.4446C25.1092 36.7671 24.7861 37.0092 24.4131 37.1361C24.3331 37.1631 24.2511 37.1831 24.1681 37.1961C23.9092 37.1993 23.6534 37.1399 23.4224 37.0231C23.1914 36.9063 22.992 36.7355 22.8411 36.5251L23.0221 36.3631C23.2521 36.5951 23.5661 36.7251 23.8921 36.7261Z" fill="white"/>
<path d="M24.1099 36.4901L10.7199 19.5371H9.56592C9.56592 19.7831 9.64992 20.0221 9.80192 20.2151L22.5889 36.3781C22.7283 36.5583 22.9074 36.7041 23.1122 36.8039C23.317 36.9038 23.5421 36.9552 23.7699 36.9541C23.9169 36.9541 24.0629 36.9341 24.2039 36.8901L24.1089 36.4881L24.1099 36.4901Z" fill="white"/>
<path d="M48.246 19.562H49.368C49.3694 19.3132 49.2862 19.0713 49.132 18.876L36.345 2.712C36.2066 2.52961 36.0279 2.38171 35.8228 2.27988C35.6178 2.17804 35.3919 2.12503 35.163 2.125C35.017 2.125 34.87 2.148 34.73 2.192L34.829 2.61L48.246 19.562Z" fill="white"/>
<path d="M24.1099 2.62191L24.1959 2.19991C24.0557 2.1542 23.9093 2.13026 23.7619 2.12891C23.5339 2.1302 23.3091 2.18337 23.1047 2.28438C22.9002 2.38538 22.7215 2.53158 22.5819 2.71191L9.79288 18.8759C9.64056 19.0722 9.55757 19.3134 9.55688 19.5619H10.6949L24.1079 2.62191H24.1099Z" fill="white"/>
<path d="M24.1959 2.19995L24.1089 2.62195V36.4889L24.1959 36.8839C24.5228 36.7723 24.8054 36.559 25.0024 36.2753C25.1994 35.9915 25.3005 35.6522 25.2909 35.3069V3.75695C25.2963 3.41501 25.1933 3.08013 24.9966 2.80039C24.7998 2.52066 24.5195 2.31045 24.1959 2.19995Z" fill="white"/>
<path d="M1.75605 19.049L15.5081 1.67504L14.9651 0.394043L0.835051 18.221C0.547773 18.5984 0.392787 19.0598 0.394051 19.534V19.557H1.57505C1.57385 19.3717 1.63792 19.1919 1.75605 19.049Z" fill="white"/>
<path d="M48.246 19.562L34.836 36.4901L34.738 36.911C34.878 36.956 35.024 36.9781 35.171 36.9781C35.3996 36.978 35.625 36.9254 35.83 36.8243C36.035 36.7233 36.2139 36.5764 36.353 36.3951L49.14 20.232C49.293 20.037 49.376 19.797 49.376 19.55L48.246 19.562Z" fill="white"/>
<path d="M34.8371 36.4899V2.61988L34.7381 2.20288C34.4116 2.31509 34.1294 2.5285 33.9324 2.81211C33.7355 3.09571 33.6342 3.43473 33.6431 3.77988V35.3529C33.6377 35.6948 33.7407 36.0297 33.9374 36.3094C34.1342 36.5892 34.4145 36.7994 34.7381 36.9099L34.8371 36.4879V36.4899Z" fill="white"/>
<path d="M1.75599 20.0661C1.6383 19.9231 1.57459 19.7433 1.57599 19.5581H0.392989C0.386989 20.0401 0.542989 20.5101 0.832989 20.8941L14.963 38.7241L15.507 37.4521L1.75599 20.0661Z" fill="white"/>
<path d="M58.5639 19.561H57.3819C57.3819 19.745 57.3219 19.923 57.2119 20.071L43.4419 37.451L43.9919 38.737L58.1149 20.894C58.4069 20.512 58.5649 20.043 58.5639 19.561Z" fill="white"/>
<path d="M58.1149 18.22L43.9929 0.39502L43.4409 1.68802L57.1929 19.058C57.3039 19.204 57.3629 19.383 57.3629 19.566H58.5429C58.553 19.083 58.4024 18.6103 58.1149 18.222V18.22Z" fill="white"/>
<path d="M58.564 19.562C58.5653 19.0802 58.407 18.6115 58.114 18.229L57.122 16.979L56.189 17.768L57.193 19.038C57.3028 19.1848 57.3621 19.3632 57.3621 19.5465C57.3621 19.7298 57.3028 19.9082 57.193 20.055L56.19 21.32L57.123 22.108L58.116 20.894C58.408 20.512 58.565 20.044 58.564 19.562Z" fill="white"/>
<path d="M1.75607 20.0661C1.6383 19.9231 1.57458 19.7433 1.57607 19.5581C1.57246 19.3734 1.63367 19.1933 1.74907 19.0491L2.75707 17.7761L1.81907 16.9871L0.835066 18.2211C0.547789 18.5984 0.392802 19.0598 0.394066 19.5341V19.5741C0.391869 20.0504 0.546487 20.5143 0.834066 20.8941L1.82707 22.1481L2.76507 21.3591L1.75607 20.0661Z" fill="white"/>
<path d="M1.51589 18.836C1.35959 19.0393 1.27644 19.2895 1.27989 19.546H1.57489C1.57148 19.3612 1.63306 19.181 1.74889 19.037L15.5089 1.67497L15.3589 1.34497L1.51589 18.835V18.836Z" fill="white"/>
<path d="M43.441 1.67508L43.993 0.38208H14.957L15.508 1.67508H43.441Z" fill="white"/>
<path d="M43.441 1.67508L44.811 3.40208L45.639 2.46008L43.993 0.38208H41.24V1.67508H43.441Z" fill="white"/>
<path d="M15.508 37.4399L14.957 38.7249H43.993L43.441 37.4399H15.508Z" fill="white"/>
<path d="M15.5079 37.4401L14.1339 35.7051L13.3069 36.6471L14.9569 38.7251H17.7059V37.4401H15.5079Z" fill="white"/>
<path d="M1.51207 20.2671L15.3601 37.7631L15.5101 37.4401L1.75507 20.0661C1.63731 19.9231 1.57359 19.7433 1.57507 19.5581H1.27107C1.26807 19.8151 1.35307 20.0651 1.51107 20.2681L1.51207 20.2671Z" fill="white"/>
<path d="M43.4409 1.67499L43.5829 1.34799L15.3669 1.34399L15.5079 1.67499H43.4409Z" fill="white"/>
<path d="M73.4931 31.711V32.855H71.2801V38.977H69.9531V32.855H67.7231V31.71H73.4931V31.711ZM76.0491 33.36C76.4069 33.3507 76.7637 33.4024 77.1041 33.513C77.3651 33.603 77.6001 33.754 77.7901 33.955C77.9641 34.151 78.0901 34.386 78.1561 34.641C78.2321 34.93 78.2691 35.228 78.2661 35.528V38.851C78.0691 38.891 77.7781 38.941 77.3801 39.005C76.939 39.0648 76.4943 39.0939 76.0491 39.092C75.7458 39.0947 75.4432 39.0628 75.1471 38.997C74.8964 38.9444 74.6592 38.8409 74.4501 38.693C74.2568 38.5526 74.1023 38.3654 74.0011 38.149C73.8849 37.8878 73.8299 37.6036 73.8401 37.318C73.8301 37.043 73.8931 36.772 74.0201 36.529C74.1401 36.314 74.3111 36.132 74.5171 35.997C74.7411 35.857 74.9871 35.758 75.2461 35.705C75.5291 35.645 75.8181 35.614 76.1081 35.615C76.4223 35.6191 76.7352 35.6573 77.0411 35.729V35.519C77.0419 35.3732 77.0251 35.2278 76.9911 35.086C76.9563 34.9568 76.8927 34.8371 76.8051 34.736C76.7126 34.6293 76.5946 34.5477 76.4621 34.499C76.2886 34.439 76.1056 34.4109 75.9221 34.416C75.6584 34.4145 75.3952 34.4356 75.1351 34.479C74.9321 34.509 74.7311 34.559 74.5371 34.625L74.3791 33.6C74.609 33.5241 74.8448 33.4673 75.0841 33.43C75.4031 33.379 75.7261 33.355 76.0491 33.36ZM76.1511 38.09C76.4491 38.096 76.7471 38.075 77.0411 38.027V36.62C76.8007 36.5508 76.5512 36.5188 76.3011 36.525C76.1591 36.525 76.0171 36.534 75.8761 36.553C75.7391 36.573 75.6061 36.613 75.4821 36.671C75.3709 36.7239 75.2756 36.8053 75.2061 36.907C75.129 37.0237 75.0918 37.1623 75.1001 37.302C75.087 37.4217 75.1064 37.5427 75.1562 37.6523C75.206 37.7619 75.2844 37.8561 75.3831 37.925C75.6201 38.047 75.8851 38.103 76.1511 38.086V38.09ZM81.0191 31.889C81.0247 31.9945 81.0072 32.1 80.9676 32.1979C80.928 32.2959 80.8674 32.384 80.7901 32.456C80.6416 32.5938 80.4457 32.669 80.2431 32.666C80.0392 32.67 79.8416 32.5948 79.6921 32.456C79.6142 32.3842 79.553 32.2963 79.5127 32.1983C79.4725 32.1004 79.4542 31.9948 79.4591 31.889C79.4541 31.7819 79.4723 31.6749 79.5125 31.5755C79.5527 31.476 79.614 31.3865 79.6921 31.313C79.8415 31.1748 80.0386 31.0999 80.2421 31.104C80.445 31.1007 80.6413 31.176 80.7901 31.314C80.8674 31.3877 80.9279 31.4772 80.9674 31.5765C81.0069 31.6757 81.0246 31.7823 81.0191 31.889ZM80.8851 38.985H79.6171V33.509H80.8851V38.985ZM85.5601 35.528C85.4007 36.1309 85.2273 36.7301 85.0401 37.325C84.8657 37.8784 84.683 38.4291 84.4921 38.977H83.4521C83.1147 38.1828 82.8137 37.3736 82.5501 36.552C82.4011 36.084 82.2401 35.595 82.0901 35.078C81.9401 34.562 81.7831 34.034 81.6371 33.501H82.9761C83.0391 33.797 83.1141 34.112 83.2011 34.451C83.2871 34.791 83.3701 35.138 83.4611 35.488C83.5511 35.839 83.6501 36.186 83.7481 36.521C83.8461 36.856 83.9451 37.164 84.0431 37.444C84.1461 37.12 84.2481 36.789 84.3501 36.446C84.4531 36.103 84.5471 35.764 84.6381 35.421C84.8071 34.7839 84.9645 34.1438 85.1101 33.501H86.0831C86.1461 33.789 86.2131 34.093 86.2921 34.42C86.3711 34.747 86.4531 35.078 86.5401 35.421C86.7134 36.1019 86.9102 36.7767 87.1301 37.444C87.2201 37.165 87.3141 36.858 87.4141 36.521C87.6136 35.835 87.7986 35.1448 87.9691 34.451C88.0521 34.112 88.1271 33.797 88.1901 33.501H89.5011C89.3561 34.041 89.2021 34.566 89.0491 35.078C88.9021 35.5717 88.7485 36.0634 88.5881 36.553C88.4341 37.018 88.2811 37.463 88.1281 37.877C87.9741 38.291 87.8201 38.666 87.6741 38.977H86.6381C86.4469 38.4283 86.2605 37.878 86.0791 37.326C85.8871 36.7322 85.7146 36.1326 85.5601 35.528ZM92.0651 33.36C92.4251 33.35 92.7831 33.402 93.1251 33.513C93.3851 33.603 93.6201 33.755 93.8101 33.955C93.9831 34.152 94.1091 34.387 94.1761 34.641C94.2531 34.93 94.2901 35.228 94.2861 35.528V38.851C94.0891 38.891 93.7941 38.941 93.4001 39.005C92.9581 39.065 92.5121 39.093 92.0651 39.091C91.7632 39.0939 91.4619 39.0624 91.1671 38.997C90.9164 38.9443 90.6792 38.8409 90.4701 38.693C90.2766 38.5517 90.121 38.3649 90.0171 38.149C89.9026 37.887 89.8476 37.6028 89.8561 37.317C89.8482 37.0427 89.912 36.7711 90.0411 36.529C90.1611 36.314 90.3311 36.132 90.5371 35.997C90.7601 35.857 91.0071 35.757 91.2661 35.705C91.5491 35.645 91.8381 35.614 92.1281 35.615C92.4427 35.6179 92.756 35.6562 93.0621 35.729V35.519C93.0621 35.379 93.0421 35.239 93.0061 35.102C92.9734 34.9729 92.9119 34.8529 92.8261 34.751C92.732 34.6446 92.6127 34.5634 92.4791 34.515C92.3057 34.4546 92.1227 34.4265 91.9391 34.432C91.6754 34.4304 91.4121 34.4515 91.1521 34.495C90.9483 34.525 90.7478 34.5739 90.5531 34.641L90.3951 33.616C90.6238 33.5405 90.8582 33.4837 91.0961 33.446C91.4163 33.3888 91.7409 33.3597 92.0661 33.359L92.0651 33.36ZM92.1711 38.09C92.4691 38.096 92.7671 38.075 93.0611 38.027V36.62C92.9621 36.591 92.8611 36.569 92.7581 36.553C92.6123 36.533 92.4653 36.5237 92.3181 36.525C92.1751 36.525 92.0331 36.534 91.8921 36.553C91.7561 36.573 91.6231 36.613 91.4981 36.671C91.3857 36.7238 91.2892 36.8052 91.2181 36.907C91.1241 37.069 91.0908 37.2591 91.1241 37.4435C91.1575 37.6278 91.2553 37.7942 91.4001 37.913C91.6361 38.041 91.9031 38.101 92.1711 38.086V38.09ZM95.6251 33.67C95.9391 33.5878 96.2572 33.5221 96.5781 33.473C97.0082 33.4071 97.443 33.3757 97.8781 33.379C98.2581 33.367 98.6381 33.429 98.9961 33.56C99.2751 33.67 99.5211 33.847 99.7131 34.077C99.9011 34.307 100.036 34.577 100.107 34.865C100.182 35.2 100.218 35.543 100.213 35.886V38.969H98.9491V36.091C98.9515 35.8402 98.9331 35.5897 98.8941 35.342C98.8646 35.1644 98.8 34.9944 98.7041 34.842C98.6157 34.7142 98.4915 34.6154 98.3471 34.558C98.1717 34.4938 97.9858 34.4629 97.7991 34.467C97.6307 34.4679 97.4624 34.4783 97.2951 34.498C97.1221 34.522 96.9921 34.538 96.9011 34.554V38.977H95.6331L95.6251 33.671V33.67ZM106.022 39.06C105.628 39.06 105.234 39.06 104.84 39.025C104.493 39.0081 104.149 38.9565 103.812 38.871V31.818C104.153 31.7568 104.496 31.7108 104.84 31.68L105.38 31.649H105.888C106.298 31.646 106.708 31.679 107.113 31.747C107.456 31.803 107.787 31.915 108.093 32.078C108.356 32.222 108.577 32.431 108.735 32.685C108.897 32.969 108.976 33.293 108.964 33.62C108.973 33.93 108.888 34.237 108.719 34.499C108.55 34.747 108.321 34.949 108.054 35.086C108.437 35.196 108.777 35.422 109.027 35.733C109.246 36.053 109.357 36.436 109.342 36.825C109.362 37.1523 109.297 37.4792 109.154 37.7741C109.01 38.0689 108.793 38.3217 108.523 38.508C107.979 38.871 107.144 39.06 106.022 39.06ZM105.148 34.668H106.077C106.482 34.6873 106.886 34.6134 107.258 34.452C107.402 34.3802 107.52 34.2661 107.597 34.125C107.674 33.9839 107.706 33.8227 107.688 33.663C107.694 33.509 107.656 33.3565 107.577 33.2241C107.498 33.0918 107.382 32.9854 107.243 32.918C106.878 32.7595 106.483 32.6853 106.085 32.701L105.541 32.721C105.384 32.721 105.25 32.721 105.148 32.752V34.668ZM105.148 35.705V37.917C105.293 37.917 105.451 37.94 105.62 37.948H106.077C106.331 37.949 106.585 37.931 106.837 37.893C107.049 37.867 107.255 37.806 107.447 37.712C107.606 37.63 107.741 37.509 107.841 37.361C107.95 37.1923 108.004 36.9937 107.995 36.793C108.011 36.6216 107.978 36.4491 107.898 36.2964C107.818 36.1438 107.696 36.0175 107.546 35.933C107.155 35.7556 106.727 35.6734 106.297 35.693L105.148 35.705ZM114.93 38.808C114.69 38.871 114.371 38.934 113.977 39.005C113.551 39.072 113.12 39.105 112.689 39.103C112.313 39.1141 111.938 39.0498 111.586 38.914C111.309 38.801 111.064 38.6209 110.874 38.39C110.689 38.1574 110.555 37.8886 110.48 37.601C110.402 37.265 110.363 36.921 110.366 36.576V33.51H111.634V36.384C111.598 36.819 111.687 37.255 111.89 37.642C111.992 37.7795 112.128 37.8882 112.285 37.9572C112.442 38.0263 112.614 38.0534 112.784 38.036H113.268C113.401 38.0295 113.532 38.0124 113.662 37.985V33.51H114.926L114.93 38.808ZM117.706 38.063C117.956 38.078 118.206 38.037 118.439 37.944C118.511 37.9067 118.57 37.8499 118.61 37.7801C118.651 37.7103 118.67 37.6305 118.667 37.55C118.667 37.4602 118.644 37.372 118.602 37.2929C118.559 37.2139 118.498 37.1466 118.423 37.097C118.17 36.9332 117.897 36.8006 117.612 36.702C117.396 36.6242 117.184 36.5347 116.978 36.434C116.798 36.3477 116.631 36.2367 116.482 36.104C116.34 35.9784 116.227 35.8235 116.151 35.65C116.066 35.4427 116.026 35.2199 116.033 34.996C116.024 34.7692 116.069 34.5434 116.165 34.3377C116.261 34.1319 116.405 33.952 116.584 33.813C117.023 33.503 117.555 33.349 118.092 33.379C118.403 33.3773 118.713 33.4064 119.018 33.466C119.241 33.507 119.461 33.566 119.675 33.639L119.443 34.669C119.271 34.5934 119.091 34.5351 118.907 34.495C118.661 34.4374 118.408 34.4109 118.155 34.416C117.938 34.4078 117.722 34.4524 117.525 34.546C117.452 34.5824 117.391 34.6388 117.35 34.7086C117.308 34.7784 117.287 34.8587 117.289 34.94C117.286 35.0238 117.3 35.1074 117.332 35.185C117.372 35.261 117.429 35.327 117.498 35.378C117.592 35.448 117.694 35.507 117.801 35.555C117.951 35.625 118.104 35.685 118.262 35.737C118.522 35.834 118.777 35.944 119.026 36.067C119.215 36.164 119.389 36.287 119.541 36.434C119.674 36.565 119.777 36.724 119.841 36.9C119.909 37.103 119.943 37.316 119.939 37.53C119.951 37.7605 119.903 37.9901 119.801 38.1971C119.699 38.4041 119.546 38.5816 119.356 38.713C118.855 39.0072 118.278 39.1445 117.698 39.107C117.301 39.1183 116.904 39.0787 116.517 38.989C116.308 38.934 116.102 38.8682 115.899 38.792L116.119 37.735C116.339 37.823 116.564 37.897 116.793 37.956C117.091 38.03 117.398 38.067 117.706 38.063ZM122.326 31.889C122.331 31.9952 122.312 32.1011 122.271 32.1991C122.23 32.2972 122.168 32.3849 122.089 32.456C122.017 32.5247 121.933 32.5786 121.841 32.6147C121.748 32.6507 121.649 32.6681 121.55 32.666C121.345 32.6713 121.146 32.5959 120.995 32.456C120.917 32.384 120.856 32.2959 120.816 32.1978C120.776 32.0996 120.757 31.9939 120.762 31.888C120.757 31.781 120.776 31.6743 120.816 31.5751C120.856 31.4759 120.917 31.3865 120.995 31.313C121.145 31.173 121.345 31.099 121.55 31.104C121.703 31.1033 121.853 31.1474 121.981 31.2309C122.11 31.3145 122.211 31.4337 122.272 31.574C122.312 31.674 122.331 31.781 122.326 31.889ZM122.188 38.985H120.92V33.509H122.188V38.985ZM123.59 33.67C123.904 33.588 124.222 33.523 124.543 33.473C124.973 33.407 125.407 33.376 125.842 33.379C126.223 33.367 126.603 33.429 126.961 33.56C127.239 33.67 127.486 33.847 127.677 34.077C127.869 34.305 128.004 34.575 128.071 34.865C128.148 35.2 128.185 35.543 128.182 35.886V38.969H126.917V36.091C126.92 35.8399 126.899 35.5891 126.854 35.342C126.829 35.1634 126.764 34.9927 126.665 34.842C126.581 34.7117 126.457 34.6121 126.311 34.558C126.136 34.4936 125.951 34.4627 125.764 34.467C125.595 34.468 125.427 34.4784 125.259 34.498C125.082 34.522 124.956 34.538 124.866 34.554V38.977H123.598L123.59 33.671V33.67ZM129.202 36.269C129.193 35.8358 129.266 35.4048 129.418 34.999C129.545 34.6623 129.738 34.3544 129.985 34.093C130.218 33.8573 130.497 33.6721 130.804 33.549C131.104 33.429 131.423 33.367 131.746 33.368C132.072 33.349 132.397 33.4012 132.701 33.5209C133.004 33.6405 133.277 33.8249 133.502 34.061C133.965 34.656 134.191 35.402 134.136 36.155V36.628H130.525C130.528 36.8208 130.571 37.0109 130.651 37.1864C130.73 37.362 130.846 37.5191 130.989 37.648C131.326 37.91 131.746 38.038 132.171 38.011C132.454 38.014 132.736 37.986 133.014 37.929C133.22 37.889 133.421 37.829 133.616 37.751L133.785 38.788C133.692 38.831 133.596 38.868 133.498 38.898C133.195 38.9899 132.884 39.0506 132.569 39.079C132.385 39.1017 132.199 39.1124 132.013 39.111C131.585 39.1202 131.159 39.0482 130.757 38.899C130.427 38.7711 130.13 38.5697 129.889 38.3099C129.648 38.0502 129.47 37.739 129.367 37.4C129.252 37.0342 129.196 36.6524 129.202 36.269ZM132.876 35.701C132.877 35.5331 132.853 35.3659 132.805 35.205C132.758 35.061 132.684 34.927 132.588 34.81C132.497 34.6931 132.38 34.5987 132.246 34.534C132.093 34.4644 131.925 34.4309 131.757 34.436C131.579 34.4315 131.402 34.4692 131.241 34.546C131.101 34.617 130.975 34.715 130.871 34.834C130.771 34.951 130.691 35.084 130.635 35.228C130.582 35.38 130.543 35.538 130.521 35.698L132.876 35.701ZM136.652 38.063C136.902 38.078 137.153 38.037 137.385 37.944C137.457 37.907 137.517 37.8503 137.558 37.7806C137.599 37.7108 137.62 37.6309 137.617 37.55C137.617 37.4602 137.594 37.3718 137.551 37.293C137.509 37.2139 137.448 37.1466 137.373 37.097C137.118 36.9334 136.845 36.8008 136.558 36.702C136.343 36.6249 136.133 36.5354 135.928 36.434C135.747 36.3499 135.58 36.2386 135.432 36.104C135.279 35.9783 135.158 35.8188 135.077 35.638C134.99 35.4313 134.948 35.2082 134.955 34.984C134.947 34.7568 134.993 34.531 135.089 34.3252C135.186 34.1194 135.33 33.9397 135.51 33.801C135.949 33.4886 136.481 33.3354 137.019 33.367C137.327 33.3651 137.634 33.3942 137.936 33.454C138.161 33.494 138.382 33.553 138.598 33.628L138.366 34.657C137.96 34.4814 137.521 34.3955 137.078 34.405C136.862 34.3963 136.647 34.4409 136.452 34.535C136.379 34.571 136.317 34.6272 136.274 34.697C136.232 34.7668 136.21 34.8472 136.211 34.929C136.21 35.0128 136.226 35.0959 136.259 35.173C136.297 35.2489 136.352 35.3149 136.42 35.366C136.514 35.436 136.616 35.496 136.723 35.544C136.873 35.614 137.027 35.674 137.184 35.724C137.445 35.821 137.7 35.932 137.948 36.056C138.139 36.151 138.314 36.275 138.468 36.423C138.601 36.553 138.703 36.713 138.767 36.888C138.834 37.091 138.866 37.304 138.862 37.518C138.874 37.7486 138.827 37.9783 138.725 38.1854C138.623 38.3925 138.469 38.57 138.279 38.701C137.779 38.997 137.201 39.134 136.621 39.096C136.23 39.106 135.84 39.066 135.459 38.977C135.25 38.9231 135.043 38.8574 134.841 38.78L135.061 37.724C135.281 37.812 135.506 37.886 135.735 37.944C136.034 38.023 136.343 38.063 136.652 38.063ZM141.221 38.063C141.471 38.078 141.721 38.038 141.953 37.944C142.025 37.9071 142.085 37.8505 142.127 37.7808C142.168 37.711 142.189 37.631 142.186 37.55C142.185 37.4599 142.162 37.3714 142.118 37.2924C142.075 37.2134 142.013 37.1463 141.937 37.097C141.685 36.933 141.414 36.8004 141.13 36.702C140.914 36.6254 140.702 36.5359 140.496 36.434C140.314 36.3487 140.146 36.2375 139.996 36.104C139.856 35.9779 139.744 35.823 139.669 35.65C139.582 35.443 139.54 35.2196 139.547 34.995C139.539 34.768 139.585 34.5423 139.681 34.3367C139.778 34.1311 139.922 33.9516 140.102 33.813C140.541 33.5006 141.073 33.3474 141.611 33.379C141.92 33.3775 142.229 33.4066 142.532 33.466C142.755 33.507 142.975 33.565 143.19 33.639L142.953 34.649C142.547 34.4751 142.108 34.3889 141.666 34.396C141.449 34.3869 141.232 34.4315 141.036 34.526C140.962 34.5617 140.901 34.6179 140.858 34.6877C140.815 34.7575 140.793 34.8381 140.795 34.92C140.794 35.0041 140.81 35.0876 140.843 35.165C140.881 35.2409 140.936 35.3069 141.004 35.358C141.098 35.428 141.2 35.488 141.307 35.536C141.457 35.606 141.611 35.666 141.768 35.716C142.028 35.814 142.283 35.924 142.532 36.048C142.722 36.145 142.897 36.268 143.052 36.415C143.184 36.545 143.285 36.705 143.347 36.88C143.418 37.082 143.451 37.296 143.446 37.51C143.457 37.7404 143.409 37.9698 143.307 38.1768C143.205 38.3837 143.053 38.5613 142.863 38.693C142.361 38.9881 141.782 39.1257 141.201 39.088C140.81 39.097 140.42 39.058 140.039 38.969C139.83 38.9139 139.624 38.8481 139.421 38.772L139.642 37.716C139.863 37.803 140.089 37.876 140.319 37.936C140.613 38.016 140.916 38.059 141.221 38.063ZM148.908 39.06C148.514 39.06 148.12 39.06 147.746 39.025C147.399 39.0084 147.055 38.9568 146.718 38.871V31.818C147.059 31.7568 147.402 31.7108 147.746 31.68L148.282 31.649H148.794C149.204 31.646 149.614 31.679 150.018 31.747C150.36 31.803 150.69 31.915 150.995 32.078C151.259 32.221 151.482 32.431 151.641 32.685C151.801 32.97 151.88 33.293 151.869 33.62C151.876 33.93 151.791 34.236 151.625 34.499C151.451 34.75 151.215 34.952 150.94 35.086C151.323 35.196 151.663 35.422 151.913 35.733C152.132 36.053 152.243 36.436 152.228 36.825C152.247 37.1521 152.181 37.4786 152.038 37.7733C151.895 38.068 151.678 38.3209 151.409 38.508C150.865 38.871 150.042 39.06 148.908 39.06ZM148.018 34.668H148.947C149.352 34.688 149.757 34.613 150.129 34.452C150.272 34.3799 150.39 34.2658 150.467 34.125C150.543 33.9842 150.575 33.8234 150.558 33.664C150.565 33.5097 150.527 33.3568 150.448 33.2242C150.368 33.0916 150.252 32.9852 150.113 32.918C149.748 32.7595 149.353 32.6853 148.955 32.701H148.416C148.258 32.701 148.124 32.701 148.022 32.733L148.018 34.668ZM148.018 35.705V37.917C148.164 37.917 148.321 37.94 148.486 37.948H148.947C149.202 37.949 149.456 37.931 149.707 37.893C149.919 37.866 150.125 37.805 150.318 37.712C150.475 37.628 150.61 37.507 150.712 37.361C150.819 37.1914 150.872 36.9934 150.865 36.793C150.88 36.6258 150.848 36.4578 150.772 36.3081C150.696 36.1583 150.58 36.0329 150.436 35.946C150.045 35.7676 149.617 35.6854 149.187 35.706L148.018 35.705ZM155.162 33.36C155.521 33.35 155.879 33.402 156.221 33.513C156.481 33.603 156.716 33.755 156.906 33.955C157.08 34.152 157.205 34.387 157.272 34.641C157.349 34.93 157.386 35.228 157.383 35.528V38.851C157.186 38.891 156.89 38.941 156.497 39.005C156.055 39.0644 155.609 39.0932 155.162 39.091C154.86 39.0942 154.559 39.0627 154.264 38.997C154.013 38.946 153.775 38.8424 153.567 38.693C153.373 38.5519 153.218 38.365 153.114 38.149C152.999 37.887 152.944 37.6029 152.952 37.317C152.944 37.0427 153.008 36.7711 153.137 36.529C153.258 36.314 153.428 36.132 153.634 35.997C153.857 35.857 154.104 35.757 154.362 35.705C154.646 35.645 154.935 35.614 155.225 35.615C155.539 35.617 155.852 35.655 156.158 35.729V35.519C156.158 35.379 156.139 35.239 156.103 35.102C156.069 34.9652 156.001 34.8392 155.905 34.7358C155.809 34.6324 155.689 34.5551 155.555 34.511C155.382 34.4508 155.199 34.4226 155.016 34.428C154.746 34.4253 154.476 34.4464 154.209 34.491C154.006 34.521 153.807 34.57 153.614 34.637L153.456 33.612C153.685 33.536 153.92 33.48 154.157 33.442C154.489 33.3841 154.825 33.3574 155.162 33.36ZM155.264 38.09C155.563 38.0959 155.863 38.0748 156.158 38.027V36.62C156.059 36.5915 155.957 36.5691 155.855 36.553C155.709 36.533 155.562 36.5236 155.414 36.525C155.272 36.5245 155.129 36.5338 154.988 36.553C154.852 36.573 154.719 36.613 154.595 36.671C154.483 36.7236 154.386 36.805 154.315 36.907C154.221 37.069 154.188 37.259 154.221 37.443C154.254 37.6273 154.352 37.7939 154.496 37.913C154.727 38.037 154.987 38.097 155.248 38.086L155.264 38.09ZM158.706 33.67C159.02 33.588 159.338 33.523 159.659 33.473C160.088 33.4073 160.521 33.3759 160.955 33.379C161.337 33.367 161.718 33.429 162.077 33.56C162.355 33.67 162.602 33.847 162.794 34.077C162.985 34.305 163.12 34.575 163.187 34.865C163.264 35.2 163.301 35.543 163.298 35.886V38.969H162.014V36.091C162.016 35.8402 161.998 35.5897 161.959 35.342C161.93 35.1645 161.865 34.9946 161.77 34.842C161.683 34.7124 161.557 34.6132 161.411 34.558C161.236 34.4938 161.051 34.4629 160.864 34.467C160.696 34.4682 160.527 34.4789 160.36 34.499C160.187 34.522 160.057 34.538 159.966 34.554V38.977H158.706V33.67ZM165.889 35.634L167.834 33.509H169.339L167.074 35.953L169.477 38.993H168.012L165.897 36.478V38.993H164.613V31.053L165.877 30.844L165.889 35.634ZM77.7541 8.56999H70.2721V9.82799H87.8201C87.9432 9.83234 88.0631 9.78794 88.1537 9.70444C88.2444 9.62094 88.2984 9.50508 88.3041 9.38199V8.56999H80.8221V7.54499H89.1151C89.2367 7.54636 89.3541 7.50002 89.4419 7.41589C89.5298 7.33177 89.5812 7.21657 89.5851 7.09499V6.22499H80.8101V5.04199H77.7541V6.22499H68.9801V7.54499H77.7541V8.56999ZM80.8101 23.508H87.8201C87.9432 23.5123 88.0631 23.4679 88.1537 23.3844C88.2444 23.3009 88.2984 23.1851 88.3041 23.062V22.246H80.8221V21.351H85.6621C85.8772 21.3594 86.0919 21.3253 86.2937 21.2505C86.4956 21.1757 86.6807 21.0617 86.8384 20.9152C86.9961 20.7687 87.1232 20.5924 87.2126 20.3966C87.302 20.2007 87.3518 19.9891 87.3591 19.774V19.096H84.3271V19.711C84.3276 19.7673 84.316 19.8231 84.2931 19.8746C84.2701 19.926 84.2365 19.972 84.1943 20.0093C84.1521 20.0466 84.1024 20.0745 84.0486 20.091C83.9947 20.1075 83.938 20.1123 83.8821 20.105H74.1981L75.7731 18.402H86.8801C87.0031 18.4063 87.1228 18.3621 87.2134 18.2788C87.304 18.1955 87.3581 18.0799 87.3641 17.957V17.168H71.2171V18.387H72.5641L71.3271 19.758C71.1759 19.9293 71.0921 20.1496 71.0911 20.378C71.1025 20.6467 71.22 20.9 71.4177 21.0823C71.6154 21.2647 71.8773 21.3613 72.1461 21.351H77.7501V22.246H70.2681V23.508H77.7501V24.398H67.7041V25.912H90.3801C90.5026 25.9161 90.6218 25.8716 90.7117 25.7882C90.8015 25.7049 90.8549 25.5895 90.8601 25.467V24.398H80.8101V23.508ZM87.7961 10.62H70.7641C70.647 10.6157 70.5321 10.653 70.4398 10.7253C70.3476 10.7976 70.2839 10.9002 70.2601 11.015V14.357H86.6101C86.8253 14.3658 87.0401 14.332 87.2421 14.2574C87.4441 14.1828 87.6294 14.069 87.7872 13.9225C87.9451 13.776 88.0724 13.5997 88.1618 13.4038C88.2512 13.2079 88.3009 12.9962 88.3081 12.781V11.089C88.3019 10.9591 88.2446 10.8369 88.1487 10.7491C88.0528 10.6612 87.926 10.6148 87.7961 10.62ZM85.7961 12.816C85.7959 12.8694 85.7849 12.9222 85.7637 12.9712C85.7426 13.0202 85.7118 13.0645 85.6731 13.1013C85.6344 13.1381 85.5887 13.1667 85.5387 13.1854C85.4887 13.204 85.4354 13.2124 85.3821 13.21H72.7801V11.748H85.8081L85.7961 12.816ZM89.1661 15.142H68.2161C68.0855 15.1369 67.9582 15.1838 67.8622 15.2725C67.7662 15.3612 67.7093 15.4844 67.7041 15.615V18.891H70.2171V16.404H87.9381C87.9914 16.4014 88.0447 16.4097 88.0947 16.4283C88.1447 16.447 88.1904 16.4756 88.2291 16.5125C88.2677 16.5493 88.2984 16.5936 88.3194 16.6427C88.3404 16.6918 88.3512 16.7446 88.3511 16.798V18.903H90.8681V16.707C90.8494 16.2741 90.6598 15.8663 90.341 15.573C90.0222 15.2796 89.599 15.1247 89.1661 15.142ZM98.6731 10.368L97.0981 5.95999C97.0581 5.8621 96.9892 5.77875 96.9005 5.72104C96.8119 5.66333 96.7078 5.63401 96.6021 5.63699H94.5151L96.1881 10.367H98.6731V10.368ZM111.578 7.21399V6.36999H109.609V5.04999H107.314V6.36999H105.344V7.65199H111.055C111.184 7.66194 111.311 7.62059 111.409 7.537C111.507 7.45341 111.568 7.33439 111.578 7.20599V7.21399ZM111.082 9.18499V8.44499H105.829V9.62699H110.555C110.62 9.63344 110.685 9.62679 110.746 9.60744C110.808 9.58809 110.865 9.55645 110.915 9.51441C110.964 9.47237 111.004 9.4208 111.033 9.36282C111.062 9.30483 111.078 9.24162 111.082 9.17699V9.18499ZM105.829 11.649H110.555C110.682 11.6581 110.807 11.6169 110.903 11.5344C111 11.4518 111.06 11.3345 111.07 11.208V10.47H105.829V11.649ZM105.782 16.853H109.479C109.884 16.8819 110.285 16.7494 110.592 16.4843C110.9 16.2192 111.091 15.843 111.122 15.438V12.875C111.113 12.7528 111.056 12.6392 110.964 12.5586C110.872 12.4781 110.751 12.4373 110.629 12.445H106.27C106.16 12.4394 106.052 12.4716 105.963 12.5362C105.875 12.6008 105.811 12.6939 105.782 12.8V16.853ZM107.593 13.431H109.322V15.493C109.31 15.5891 109.264 15.6775 109.191 15.7414C109.118 15.8054 109.025 15.8405 108.928 15.84H107.605L107.593 13.431ZM99.1531 12.122C99.1693 12.3627 99.2799 12.5872 99.4608 12.7468C99.6417 12.9063 99.8783 12.988 100.119 12.974H101.43V16.916H103.143V15.26L104.943 15.938V14.858C104.941 14.7638 104.909 14.6727 104.854 14.5966C104.798 14.5206 104.721 14.4631 104.632 14.432L103.143 13.872V12.966H103.427C103.872 12.9915 104.309 12.8399 104.642 12.5445C104.976 12.249 105.179 11.8336 105.207 11.389V10.644H103.135V11.472C103.133 11.5267 103.12 11.5805 103.096 11.6301C103.073 11.6796 103.04 11.7241 102.999 11.7608C102.959 11.7975 102.911 11.8257 102.859 11.8437C102.808 11.8618 102.753 11.8694 102.698 11.866H101.493L104.328 8.19999C104.338 8.18955 104.346 8.17688 104.35 8.16299C104.355 8.14958 104.357 8.13526 104.356 8.12099C104.353 8.09063 104.342 8.0617 104.323 8.03772C104.304 8.01375 104.279 7.99578 104.25 7.98599C104.231 7.97975 104.211 7.97737 104.191 7.97899H101.702L103.887 5.16399H101.82C101.737 5.1625 101.654 5.17979 101.579 5.21459C101.503 5.24939 101.436 5.3008 101.383 5.36499L99.3071 8.04999C99.2079 8.18173 99.1542 8.34211 99.1541 8.50699C99.1703 8.74748 99.2807 8.97186 99.4614 9.13139C99.6421 9.29092 99.8785 9.37271 100.119 9.35899H101.087L99.3071 11.665C99.2089 11.7946 99.1553 11.9524 99.1541 12.115L99.1531 12.122ZM97.1131 12.221C97.0718 12.1245 97.0026 12.0425 96.9144 11.9855C96.8262 11.9285 96.7231 11.8991 96.6181 11.901H94.5151L97.0071 18.923L94.5151 25.913H96.6051C96.7106 25.916 96.8144 25.8871 96.9031 25.8299C96.9918 25.7728 97.0612 25.6902 97.1021 25.593L99.2561 19.51C99.3978 19.1177 99.3978 18.6883 99.2561 18.296L97.1131 12.221ZM115.91 22.076H102.667L102.974 21.036H115.024C115.43 21.0625 115.829 20.9284 116.137 20.6627C116.444 20.397 116.635 20.021 116.667 19.616V18.04C116.66 17.9158 116.604 17.7995 116.512 17.716C116.467 17.6745 116.413 17.6426 116.355 17.6224C116.297 17.6021 116.235 17.5938 116.174 17.598H100.505V18.875H113.93V19.498C113.918 19.594 113.871 19.6822 113.799 19.7462C113.726 19.8101 113.633 19.8452 113.536 19.845H100.934C100.83 19.8395 100.726 19.8675 100.639 19.9251C100.552 19.9827 100.485 20.0668 100.449 20.165L99.8551 22.215C99.8347 22.2811 99.8239 22.3498 99.8231 22.419C99.8432 22.6499 99.9498 22.8647 100.121 23.0205C100.293 23.1762 100.517 23.2614 100.749 23.259H114.205L113.985 24.253C113.96 24.3434 113.905 24.4226 113.829 24.4776C113.753 24.5327 113.661 24.5603 113.567 24.556H102.95L103.056 25.451C103.087 25.5804 103.161 25.6952 103.267 25.7763C103.372 25.8573 103.502 25.8996 103.635 25.896H115.032C115.409 25.9148 115.782 25.8032 116.087 25.58C116.391 25.3567 116.61 25.0354 116.706 24.67L116.997 23.093C117.005 23.0239 117.005 22.9541 116.997 22.885C116.937 22.6453 116.796 22.4338 116.598 22.2863C116.4 22.1388 116.157 22.0645 115.91 22.076ZM100.631 16.238C100.821 15.385 100.915 14.514 100.91 13.64H99.5241C99.5146 14.642 99.3675 15.638 99.0871 16.6H100.115C100.231 16.6049 100.346 16.5702 100.439 16.5015C100.533 16.4328 100.601 16.3342 100.631 16.222V16.238ZM116.036 12.982C116.481 13.0085 116.918 12.8573 117.251 12.5615C117.584 12.2658 117.787 11.8498 117.813 11.405V10.644H115.745V11.472C115.742 11.5267 115.729 11.5803 115.706 11.63C115.671 11.7045 115.614 11.7667 115.543 11.8088C115.472 11.8508 115.39 11.8707 115.308 11.866H114.103L116.938 8.19999C116.948 8.1893 116.956 8.17668 116.96 8.16291C116.965 8.14915 116.967 8.13454 116.966 8.11999C116.962 8.07866 116.942 8.04051 116.91 8.0139C116.879 7.98729 116.837 7.97438 116.796 7.97799H114.312L116.497 5.16399H114.43C114.347 5.16228 114.264 5.17947 114.189 5.21429C114.113 5.2491 114.046 5.30063 113.993 5.36499L111.913 8.04999C111.816 8.18273 111.762 8.34246 111.76 8.50699C111.777 8.74764 111.888 8.97187 112.07 9.13128C112.251 9.29068 112.487 9.37247 112.728 9.35899H113.697L111.913 11.665C111.816 11.7977 111.762 11.9575 111.76 12.122C111.777 12.3626 111.888 12.5869 112.07 12.7463C112.251 12.9057 112.487 12.9875 112.728 12.974H114.04V16.916H115.753V15.26L117.553 15.938V14.858C117.549 14.764 117.518 14.6732 117.462 14.5973C117.407 14.5214 117.33 14.4638 117.241 14.432L115.753 13.872V12.966L116.036 12.982ZM113.24 16.238C113.431 15.385 113.525 14.514 113.52 13.64H112.134C112.125 14.643 111.977 15.64 111.693 16.6H112.721C112.838 16.6045 112.952 16.5697 113.046 16.5011C113.14 16.4325 113.209 16.3342 113.24 16.222V16.238ZM134.333 17.823H142C142.092 17.8263 142.183 17.8026 142.261 17.7548C142.34 17.707 142.403 17.6372 142.442 17.554C142.468 17.4987 142.482 17.4389 142.485 17.378V16.1H134.333V9.59499H131.643V24.201H126.063C125.982 24.2062 125.902 24.1862 125.833 24.1438C125.764 24.1013 125.71 24.0385 125.678 23.964C125.656 23.9146 125.645 23.8611 125.645 23.807V15.576H123.046V24.347C123.063 24.7806 123.25 25.1902 123.566 25.487C123.884 25.7825 124.306 25.9396 124.74 25.924H142.855C142.918 25.9272 142.98 25.9179 143.039 25.8965C143.098 25.8751 143.152 25.8421 143.198 25.7995C143.244 25.7569 143.28 25.7055 143.306 25.6484C143.332 25.5913 143.346 25.5296 143.347 25.467V24.202H134.333V17.823ZM125.5 12.395C126.851 10.963 128.024 8.84599 128.772 7.30899H136.869L139.779 12.158C139.902 12.3292 140.064 12.4683 140.252 12.5637C140.439 12.6591 140.647 12.7079 140.858 12.706H143.438L139.267 6.00399C139.144 5.83218 138.981 5.69264 138.793 5.59723C138.604 5.50182 138.395 5.45336 138.184 5.45599H127.028C126.835 5.45567 126.645 5.50945 126.481 5.61124C126.317 5.71303 126.184 5.85877 126.098 6.03199C124.887 8.44317 123.372 10.6889 121.589 12.714H124.763C124.901 12.7137 125.038 12.6852 125.165 12.6302C125.291 12.5752 125.406 12.4948 125.5 12.394V12.395ZM153.677 12.726H156.115C156.236 12.7279 156.352 12.6821 156.439 12.5985C156.526 12.515 156.576 12.4005 156.579 12.28V11.17H148.861V12.746H151.314V15.446H148.191V17.004H151.318V24.368H150.57C150.489 24.3734 150.408 24.3535 150.339 24.3111C150.27 24.2686 150.216 24.2057 150.184 24.131C150.163 24.0814 150.152 24.0279 150.152 23.974V18.695H148.183V24.36C148.195 24.6845 148.303 24.9982 148.493 25.2613C148.683 25.5244 148.948 25.7251 149.252 25.838C149.454 25.913 149.669 25.946 149.885 25.938H156.556C156.616 25.9392 156.675 25.9286 156.731 25.9068C156.787 25.8851 156.837 25.8525 156.881 25.8111C156.924 25.7697 156.958 25.7202 156.982 25.6654C157.006 25.6107 157.019 25.5517 157.02 25.492V24.368H153.669V16.984H156.556C156.675 16.99 156.791 16.9486 156.88 16.869C156.968 16.7893 157.022 16.6779 157.028 16.559V15.427H153.677V12.727V12.726ZM154.52 23.37H156.032C156.135 23.3692 156.233 23.3317 156.31 23.2644C156.388 23.1971 156.438 23.1044 156.453 23.003L156.678 18.013H154.807L154.52 23.37ZM155.449 5.06999H150.605C150.429 5.06314 150.255 5.11583 150.112 5.21959C149.97 5.32335 149.866 5.47214 149.818 5.64199C149.341 7.27302 148.586 8.8093 147.585 10.183H149.869C149.996 10.1884 150.123 10.163 150.238 10.1088C150.353 10.0547 150.453 9.9734 150.53 9.87199C151.187 8.87819 151.687 7.78862 152.011 6.64199H154.039L154.768 9.63499C154.806 9.79628 154.898 9.93989 155.028 10.0423C155.158 10.1448 155.319 10.2 155.485 10.199H157.304L156.158 5.64499C156.119 5.48629 156.028 5.34518 155.899 5.24382C155.771 5.14246 155.613 5.08659 155.449 5.08499V5.06999ZM160.647 23.843V16.029H166.846C167.057 16.0336 167.267 15.9965 167.464 15.9197C167.661 15.8429 167.841 15.728 167.993 15.5815C168.145 15.4351 168.267 15.26 168.351 15.0663C168.435 14.8726 168.481 14.6642 168.484 14.453V5.91299C168.483 5.84928 168.47 5.78638 168.444 5.72811C168.418 5.66985 168.381 5.61741 168.334 5.57399C168.288 5.52972 168.234 5.49506 168.175 5.47205C168.115 5.44904 168.052 5.43814 167.988 5.43999H158.773C158.659 5.43844 158.548 5.47719 158.459 5.54942C158.371 5.62166 158.31 5.72277 158.289 5.83499V24.146C158.3 24.6248 158.501 25.0797 158.847 25.4109C159.193 25.7421 159.656 25.9227 160.135 25.913H161.746C161.925 25.9075 162.096 25.8412 162.232 25.725C162.368 25.6088 162.461 25.4497 162.494 25.274L162.609 24.292H161.1C161.012 24.2947 160.926 24.2709 160.852 24.2239C160.777 24.1768 160.719 24.1086 160.684 24.028C160.661 23.9743 160.648 23.9165 160.647 23.858V23.843ZM160.647 11.579H164.68C164.74 11.5806 164.8 11.5703 164.856 11.5487C164.911 11.5271 164.962 11.4946 165.006 11.4531C165.049 11.4116 165.084 11.3619 165.107 11.307C165.131 11.2521 165.144 11.1929 165.145 11.133V9.87199H160.647V6.99399H166.125V14.09C166.125 14.1943 166.084 14.2944 166.01 14.3682C165.936 14.4421 165.836 14.4837 165.732 14.484H160.647V11.579ZM164.928 21.04L168.551 17.165H165.861C165.713 17.1675 165.566 17.2003 165.431 17.2613C165.296 17.3224 165.174 17.4104 165.074 17.52L162.223 20.547C162.15 20.6115 162.092 20.6907 162.052 20.7795C162.011 20.8683 161.991 20.9646 161.991 21.062C161.991 21.1594 162.011 21.2557 162.052 21.3445C162.092 21.4333 162.15 21.5125 162.223 21.577L165.988 25.518C166.088 25.628 166.209 25.7162 166.345 25.7773C166.48 25.8384 166.627 25.8709 166.775 25.873H169.461L164.928 21.04Z" fill="white"/>
</g>
<defs>
<clipPath id="clip0_232_2438">
<rect width="170" height="40" fill="white"/>
</clipPath>
</defs>
</svg>
