<svg width="75" height="56" viewBox="0 0 75 56" fill="none" xmlns="http://www.w3.org/2000/svg">
<rect x="22" y="0.5" width="31" height="31" rx="15.5" stroke="#DC5511"/>
<g clip-path="url(#clip0_0_505)">
<path d="M45.3356 10.9587C45.2849 10.9097 45.2235 10.8714 45.1555 10.8464C45.0875 10.8213 45.0146 10.8102 44.9416 10.8137C44.2895 10.8275 43.6426 10.926 43.0199 11.1063V9.50879C43.0199 9.37385 42.9622 9.24443 42.8597 9.14902C42.7571 9.0536 42.6179 9 42.4728 9C42.3141 9 39.681 9.05009 37.5042 12.1634C35.3274 9.03954 32.6858 9 32.5327 9C32.4609 9 32.3897 9.01316 32.3234 9.03873C32.257 9.0643 32.1967 9.10177 32.1459 9.14902C32.0951 9.19626 32.0548 9.25236 32.0273 9.31409C31.9998 9.37582 31.9857 9.44197 31.9857 9.50879V11.1063C31.3639 10.926 30.718 10.8275 30.0668 10.8137C29.9933 10.8098 29.9198 10.8208 29.8513 10.8458C29.7829 10.8708 29.721 10.9093 29.67 10.9587C29.6179 11.0061 29.5766 11.0627 29.5483 11.1252C29.5201 11.1876 29.5056 11.2547 29.5056 11.3225V21.638C29.5061 21.7112 29.5234 21.7836 29.5563 21.8501C29.5893 21.9167 29.6372 21.9759 29.6968 22.0238C29.7563 22.0718 29.8263 22.1073 29.9018 22.128C29.9774 22.1488 30.0568 22.1543 30.1348 22.1441C31.3687 21.9888 32.6234 22.0618 33.8268 22.359C35.0303 22.6563 36.1586 23.1718 37.1471 23.8761L37.1782 23.8972H37.1981L37.2378 23.9209L37.2859 23.9394H37.3171H37.337H37.3596C37.4002 23.95 37.4422 23.9553 37.4844 23.9552C37.5274 23.9551 37.5703 23.9498 37.6119 23.9394H37.6346C37.6411 23.9379 37.6479 23.9379 37.6544 23.9394H37.6828L37.7309 23.9209L37.8018 23.913H37.8216C37.8332 23.9066 37.8438 23.8986 37.8528 23.8893H37.867C38.8541 23.1795 39.9833 22.6597 41.1887 22.3601C42.3941 22.0604 43.6515 21.987 44.8877 22.1441C44.9656 22.1543 45.0449 22.1487 45.1202 22.1278C45.1955 22.1068 45.2651 22.071 45.3242 22.0228C45.3842 21.9755 45.4322 21.9165 45.465 21.85C45.4979 21.7835 45.5146 21.7111 45.5141 21.638V11.3225C45.5123 11.2538 45.4956 11.1861 45.4649 11.1236C45.4342 11.0611 45.3902 11.005 45.3356 10.9587ZM41.9343 10.0993V18.949C41.2087 19.2127 39.681 19.9376 38.0597 21.862V13.3049C39.4429 10.9719 41.084 10.297 41.923 10.0993H41.9343ZM33.0911 10.0993C33.9272 10.297 35.5712 10.9719 36.9628 13.3049V21.862C35.3416 19.9376 33.8167 19.2074 33.0911 18.949V10.0993ZM30.611 21.0659V11.8735C31.0887 11.9106 31.5558 12.0248 31.9914 12.2109V19.3286C31.9947 19.4445 32.039 19.556 32.1174 19.6461C32.1958 19.7362 32.3039 19.7997 32.425 19.8269C32.442 19.8269 33.7997 20.138 35.4493 21.7935C33.919 21.1923 32.2556 20.9427 30.5997 21.0659H30.611ZM44.4144 21.0659C42.7617 20.9412 41.1011 21.1889 39.5733 21.7882C41.2229 20.1327 42.5805 19.8243 42.5947 19.819C42.718 19.7953 42.8287 19.7328 42.9083 19.6421C42.9878 19.5513 43.0312 19.4378 43.0312 19.3207V12.203C43.4683 12.0178 43.936 11.9028 44.4144 11.8629V21.0659Z" fill="#DC5511"/>
</g>
<path d="M0.91 38.66H3.99V40.158H2.296V51.218H0.91V38.66ZM3.57 38.66H3.836L4.06 38.604L5.096 39.22C4.928 39.808 4.74133 40.4333 4.536 41.096C4.33067 41.7493 4.12533 42.3467 3.92 42.888C4.33067 43.448 4.59667 43.9753 4.718 44.47C4.84867 44.9553 4.914 45.408 4.914 45.828C4.914 46.276 4.86733 46.654 4.774 46.962C4.68067 47.27 4.52667 47.508 4.312 47.676C4.20933 47.7693 4.09267 47.8393 3.962 47.886C3.84067 47.9233 3.70533 47.956 3.556 47.984C3.43467 48.0027 3.29467 48.0167 3.136 48.026C2.98667 48.026 2.83267 48.026 2.674 48.026C2.674 47.8207 2.646 47.578 2.59 47.298C2.534 47.018 2.45 46.7753 2.338 46.57C2.45 46.5793 2.55267 46.5887 2.646 46.598C2.74867 46.598 2.842 46.5933 2.926 46.584C3.066 46.584 3.18733 46.5513 3.29 46.486C3.36467 46.4207 3.42067 46.3133 3.458 46.164C3.49533 46.0147 3.514 45.8373 3.514 45.632C3.514 45.296 3.45333 44.9087 3.332 44.47C3.22 44.0313 2.968 43.5647 2.576 43.07C2.67867 42.762 2.77667 42.426 2.87 42.062C2.96333 41.698 3.052 41.334 3.136 40.97C3.22933 40.5967 3.31333 40.2513 3.388 39.934C3.46267 39.6167 3.52333 39.346 3.57 39.122V38.66ZM8.484 41.488H10.038V43.07H8.484V41.488ZM5.726 41.026H12.922V42.048H5.726V41.026ZM5.096 45.436H13.524V46.318H5.096V45.436ZM5.292 42.594H13.44V43.63H5.292V42.594ZM5.572 44.022H12.908V47.746H5.516V46.794H11.424V44.974H5.572V44.022ZM6.692 48.166H8.162V49.566C8.162 49.7247 8.19 49.8273 8.246 49.874C8.31133 49.9113 8.45133 49.93 8.666 49.93C8.71267 49.93 8.792 49.93 8.904 49.93C9.02533 49.93 9.156 49.93 9.296 49.93C9.436 49.93 9.56667 49.93 9.688 49.93C9.80933 49.93 9.90733 49.93 9.982 49.93C10.1407 49.93 10.248 49.888 10.304 49.804C10.36 49.7107 10.402 49.496 10.43 49.16C10.5607 49.2533 10.752 49.3467 11.004 49.44C11.2653 49.524 11.494 49.5847 11.69 49.622C11.606 50.2193 11.452 50.6207 11.228 50.826C11.0133 51.0407 10.654 51.148 10.15 51.148C10.066 51.148 9.94467 51.148 9.786 51.148C9.63667 51.148 9.47333 51.148 9.296 51.148C9.11867 51.148 8.95067 51.148 8.792 51.148C8.64267 51.148 8.53533 51.148 8.47 51.148C7.994 51.148 7.62533 51.1013 7.364 51.008C7.112 50.9147 6.93467 50.7513 6.832 50.518C6.73867 50.2847 6.692 49.972 6.692 49.58V48.166ZM5.446 48.166L6.678 48.642C6.566 49.0433 6.426 49.468 6.258 49.916C6.09933 50.364 5.91733 50.7467 5.712 51.064L4.438 50.504C4.65267 50.196 4.84867 49.8273 5.026 49.398C5.20333 48.9593 5.34333 48.5487 5.446 48.166ZM8.05 47.984L8.918 47.242C9.198 47.4567 9.48733 47.6993 9.786 47.97C10.0847 48.2313 10.3273 48.46 10.514 48.656L9.618 49.496C9.49667 49.356 9.34267 49.1973 9.156 49.02C8.97867 48.8333 8.792 48.6513 8.596 48.474C8.4 48.2873 8.218 48.124 8.05 47.984ZM11.116 48.6L12.334 48.11C12.5767 48.4833 12.8193 48.8893 13.062 49.328C13.3047 49.7573 13.4913 50.126 13.622 50.434L12.334 51.022C12.25 50.798 12.138 50.546 11.998 50.266C11.8673 49.9953 11.7227 49.7153 11.564 49.426C11.4147 49.1273 11.2653 48.852 11.116 48.6ZM11.452 39.5L12.67 39.864C12.5207 40.1813 12.3433 40.5127 12.138 40.858C11.9327 41.2033 11.7413 41.4927 11.564 41.726C11.4427 41.642 11.27 41.5393 11.046 41.418C10.8313 41.2873 10.6447 41.1847 10.486 41.11C10.6727 40.8767 10.85 40.62 11.018 40.34C11.186 40.0507 11.3307 39.7707 11.452 39.5ZM12.432 38.128L13.37 39.178C12.67 39.3553 11.872 39.5047 10.976 39.626C10.0893 39.7473 9.17467 39.8407 8.232 39.906C7.28933 39.962 6.37933 39.9993 5.502 40.018C5.48333 39.8593 5.43667 39.6727 5.362 39.458C5.29667 39.2433 5.23133 39.0613 5.166 38.912C5.81 38.884 6.46333 38.8513 7.126 38.814C7.798 38.7673 8.456 38.7113 9.1 38.646C9.75333 38.5807 10.3647 38.506 10.934 38.422C11.5033 38.3287 12.0027 38.2307 12.432 38.128ZM8.274 40.13L9.464 39.696C9.576 39.8547 9.688 40.032 9.8 40.228C9.912 40.424 9.996 40.592 10.052 40.732L8.806 41.236C8.75933 41.096 8.68 40.9187 8.568 40.704C8.46533 40.4893 8.36733 40.298 8.274 40.13ZM5.908 40.256L7.112 39.808C7.224 39.9387 7.34533 40.0927 7.476 40.27C7.60667 40.4473 7.70467 40.5967 7.77 40.718L6.524 41.222C6.45867 41.0913 6.36533 40.9373 6.244 40.76C6.132 40.5733 6.02 40.4053 5.908 40.256ZM25.032 44.47L26.586 43.91C26.81 44.4233 27.0293 44.9647 27.244 45.534C27.468 46.1033 27.678 46.6773 27.874 47.256C28.0793 47.8253 28.2613 48.3713 28.42 48.894C28.5787 49.4167 28.7 49.888 28.784 50.308L27.062 51.008C26.9873 50.588 26.88 50.112 26.74 49.58C26.6 49.048 26.4367 48.488 26.25 47.9C26.0633 47.312 25.8627 46.7287 25.648 46.15C25.4427 45.562 25.2373 45.002 25.032 44.47ZM21.21 50.532C21.182 50.42 21.1353 50.266 21.07 50.07C21.0047 49.874 20.93 49.6687 20.846 49.454C20.7713 49.2393 20.7013 49.0527 20.636 48.894C20.8507 48.81 21.0327 48.6187 21.182 48.32C21.3407 48.0213 21.518 47.5967 21.714 47.046C21.798 46.8407 21.9007 46.528 22.022 46.108C22.1527 45.688 22.2973 45.1933 22.456 44.624C22.6147 44.0453 22.7733 43.42 22.932 42.748C23.1 42.076 23.254 41.3807 23.394 40.662C23.5433 39.934 23.674 39.2153 23.786 38.506L25.592 38.842C25.424 39.794 25.2327 40.7507 25.018 41.712C24.8127 42.664 24.584 43.5973 24.332 44.512C24.08 45.4267 23.8187 46.3087 23.548 47.158C23.2773 47.998 23.0113 48.782 22.75 49.51V49.538C22.75 49.538 22.694 49.5613 22.582 49.608C22.4793 49.6547 22.3533 49.72 22.204 49.804C22.0547 49.8787 21.9007 49.958 21.742 50.042C21.5927 50.1353 21.4667 50.224 21.364 50.308C21.2613 50.392 21.21 50.4667 21.21 50.532ZM21.21 50.532L21.126 49.062L21.994 48.516L27.314 47.788C27.3327 48.0213 27.37 48.2873 27.426 48.586C27.4913 48.8847 27.5473 49.1273 27.594 49.314C26.5767 49.4727 25.718 49.6127 25.018 49.734C24.318 49.846 23.744 49.9393 23.296 50.014C22.848 50.098 22.4887 50.168 22.218 50.224C21.9473 50.28 21.7373 50.3313 21.588 50.378C21.4387 50.4247 21.3127 50.476 21.21 50.532ZM18.088 39.416H19.712V51.246H18.088V39.416ZM15.834 42.048H21.798V43.602H15.834V42.048ZM18.172 42.678L19.194 43.154C19.0353 43.658 18.844 44.1853 18.62 44.736C18.4053 45.2773 18.1673 45.8093 17.906 46.332C17.654 46.8547 17.3833 47.3493 17.094 47.816C16.814 48.2827 16.52 48.684 16.212 49.02C16.128 48.7773 16.002 48.4973 15.834 48.18C15.666 47.8627 15.5167 47.5967 15.386 47.382C15.666 47.102 15.9413 46.7753 16.212 46.402C16.4827 46.0287 16.744 45.6273 16.996 45.198C17.248 44.7687 17.472 44.3393 17.668 43.91C17.8733 43.4713 18.0413 43.0607 18.172 42.678ZM20.958 38.226L21.84 39.626C21.308 39.8033 20.72 39.962 20.076 40.102C19.4413 40.242 18.7927 40.368 18.13 40.48C17.4767 40.5827 16.8373 40.6667 16.212 40.732C16.184 40.5453 16.1233 40.326 16.03 40.074C15.946 39.822 15.862 39.6073 15.778 39.43C16.3847 39.346 17.0007 39.2433 17.626 39.122C18.2513 39.0007 18.8533 38.8653 19.432 38.716C20.0107 38.5573 20.5193 38.394 20.958 38.226ZM19.698 43.672C19.7727 43.7373 19.8847 43.84 20.034 43.98C20.1833 44.12 20.342 44.2787 20.51 44.456C20.6873 44.624 20.86 44.792 21.028 44.96C21.196 45.128 21.3453 45.282 21.476 45.422C21.616 45.562 21.714 45.6693 21.77 45.744L20.804 47.13C20.7107 46.9527 20.5847 46.738 20.426 46.486C20.2673 46.234 20.0947 45.9773 19.908 45.716C19.7307 45.4453 19.558 45.1933 19.39 44.96C19.222 44.7267 19.0727 44.5307 18.942 44.372L19.698 43.672ZM35.21 39.038H37.954V40.27H35.21V39.038ZM40.642 39.038H43.82V40.27H40.642V39.038ZM37.436 38.1H38.878V40.788H37.436V38.1ZM39.914 38.1H41.37V40.774H39.914V38.1ZM40.894 42.062V42.832H41.958V42.062H40.894ZM39.676 41.04H43.218V43.854H39.676V41.04ZM36.848 42.062V42.832H37.884V42.062H36.848ZM35.644 41.04H39.144V43.854H35.644V41.04ZM36.89 46.346H42.896V47.424H36.89V46.346ZM36.89 47.984H42.896V49.048H36.89V47.984ZM36.736 49.622H43.722V50.798H36.736V49.622ZM39.032 45.436H40.488V50.504H39.032V45.436ZM37.506 44.764H43.386V45.8H37.506V51.26H36.008V45.422L36.638 44.764H37.506ZM36.806 43.588L38.136 44.05C37.8187 44.722 37.4267 45.3847 36.96 46.038C36.4933 46.6913 36.008 47.2373 35.504 47.676C35.4573 47.5733 35.3873 47.4333 35.294 47.256C35.2007 47.0693 35.1027 46.8873 35 46.71C34.8973 46.5233 34.804 46.3787 34.72 46.276C35.1307 45.9493 35.5227 45.548 35.896 45.072C36.2693 44.596 36.5727 44.1013 36.806 43.588ZM38.822 44.232L40.25 43.84C40.3433 44.092 40.4367 44.3673 40.53 44.666C40.6327 44.9647 40.7073 45.2167 40.754 45.422L39.284 45.884C39.2373 45.66 39.1673 45.3893 39.074 45.072C38.99 44.7547 38.906 44.4747 38.822 44.232ZM30.87 40.718H35.35V42.272H30.87V40.718ZM32.578 38.1H34.034V51.246H32.578V38.1ZM32.452 41.866L33.292 42.272C33.1987 42.8133 33.082 43.378 32.942 43.966C32.802 44.554 32.6433 45.1327 32.466 45.702C32.298 46.2713 32.1113 46.808 31.906 47.312C31.71 47.8067 31.5 48.2407 31.276 48.614C31.2293 48.4367 31.1593 48.2453 31.066 48.04C30.982 47.8347 30.8887 47.6293 30.786 47.424C30.6927 47.2187 30.6087 47.0413 30.534 46.892C30.7393 46.6027 30.9353 46.2573 31.122 45.856C31.318 45.4453 31.5 45.0113 31.668 44.554C31.8453 44.0967 31.9993 43.6393 32.13 43.182C32.27 42.7153 32.3773 42.2767 32.452 41.866ZM33.978 42.832C34.0527 42.916 34.16 43.056 34.3 43.252C34.4493 43.4387 34.6033 43.644 34.762 43.868C34.93 44.092 35.0793 44.302 35.21 44.498C35.3407 44.6847 35.4387 44.82 35.504 44.904L34.594 46.038C34.5287 45.87 34.44 45.6693 34.328 45.436C34.216 45.1933 34.0947 44.946 33.964 44.694C33.8333 44.4327 33.7027 44.19 33.572 43.966C33.4507 43.742 33.348 43.5553 33.264 43.406L33.978 42.832ZM45.976 38.926H52.416V40.55H45.976V38.926ZM49.518 43H52.024V44.582H49.518V43ZM48.79 39.794H50.428V48.586H48.79V39.794ZM46.382 42.23H47.894V48.852H46.382V42.23ZM45.64 48.362C46.2093 48.2687 46.8627 48.152 47.6 48.012C48.3467 47.872 49.1307 47.718 49.952 47.55C50.7827 47.382 51.5993 47.214 52.402 47.046L52.556 48.586C51.7813 48.754 51.002 48.9267 50.218 49.104C49.434 49.2813 48.6733 49.454 47.936 49.622C47.208 49.7807 46.5453 49.9253 45.948 50.056L45.64 48.362ZM53.424 40.662H58.926V42.216H53.424V40.662ZM53.774 38.1L55.44 38.366C55.2813 39.262 55.076 40.1347 54.824 40.984C54.5813 41.8333 54.292 42.6173 53.956 43.336C53.62 44.0547 53.2373 44.68 52.808 45.212C52.724 45.1093 52.6027 44.9833 52.444 44.834C52.2947 44.6847 52.1313 44.54 51.954 44.4C51.786 44.2507 51.6367 44.134 51.506 44.05C51.9073 43.5927 52.2527 43.0513 52.542 42.426C52.8313 41.8007 53.0787 41.1193 53.284 40.382C53.4893 39.6353 53.6527 38.8747 53.774 38.1ZM56.434 41.614L58.1 41.754C57.8947 43.35 57.582 44.7547 57.162 45.968C56.742 47.172 56.1587 48.2127 55.412 49.09C54.6653 49.9673 53.704 50.7 52.528 51.288C52.4813 51.1573 52.402 50.9987 52.29 50.812C52.178 50.6253 52.0567 50.4387 51.926 50.252C51.7953 50.0747 51.6787 49.9253 51.576 49.804C52.64 49.328 53.4987 48.7167 54.152 47.97C54.8147 47.2233 55.3233 46.3227 55.678 45.268C56.0327 44.2133 56.2847 42.9953 56.434 41.614ZM54.25 41.894C54.4553 43.0887 54.754 44.2087 55.146 45.254C55.538 46.29 56.0513 47.2 56.686 47.984C57.3207 48.7587 58.1093 49.3653 59.052 49.804C58.9307 49.9067 58.7953 50.042 58.646 50.21C58.4967 50.378 58.3567 50.5507 58.226 50.728C58.1047 50.9147 57.9973 51.0827 57.904 51.232C56.896 50.6907 56.056 49.9813 55.384 49.104C54.7213 48.2267 54.18 47.2 53.76 46.024C53.3493 44.848 53.018 43.5507 52.766 42.132L54.25 41.894ZM61.362 42.076H73.612V43.518H61.362V42.076ZM66.738 41.306H68.544V51.26H66.738V41.306ZM62.258 44.19H72.058V45.618H64.05V48.096H62.258V44.19ZM71.176 44.19H72.898V46.584C72.898 46.9293 72.856 47.2 72.772 47.396C72.688 47.5827 72.5153 47.7273 72.254 47.83C72.002 47.9327 71.7127 47.998 71.386 48.026C71.0687 48.0447 70.7093 48.054 70.308 48.054C70.252 47.8393 70.168 47.6153 70.056 47.382C69.9533 47.1393 69.8553 46.9293 69.762 46.752C69.986 46.7707 70.2193 46.78 70.462 46.78C70.7047 46.78 70.868 46.78 70.952 46.78C71.0267 46.78 71.0827 46.766 71.12 46.738C71.1573 46.71 71.176 46.6587 71.176 46.584V44.19ZM66.906 46.402L68.166 46.878C67.7273 47.5127 67.1907 48.0913 66.556 48.614C65.9213 49.1367 65.2213 49.5893 64.456 49.972C63.6907 50.3453 62.8927 50.6487 62.062 50.882C61.9873 50.742 61.8893 50.5833 61.768 50.406C61.656 50.2287 61.53 50.056 61.39 49.888C61.25 49.72 61.124 49.58 61.012 49.468C61.8333 49.3 62.6173 49.0713 63.364 48.782C64.12 48.4833 64.8013 48.1333 65.408 47.732C66.024 47.3307 66.5233 46.8873 66.906 46.402ZM68.11 46.416C68.4553 46.7987 68.9313 47.186 69.538 47.578C70.1447 47.9607 70.8447 48.306 71.638 48.614C72.4313 48.922 73.2713 49.1507 74.158 49.3C74.046 49.4213 73.92 49.5707 73.78 49.748C73.6493 49.9253 73.5187 50.1027 73.388 50.28C73.2667 50.4667 73.1687 50.6347 73.094 50.784C72.226 50.56 71.4093 50.2567 70.644 49.874C69.888 49.482 69.216 49.0527 68.628 48.586C68.04 48.11 67.5733 47.648 67.228 47.2L68.11 46.416ZM62.902 38.954H67.312V40.242H62.902V38.954ZM68.712 38.954H73.948V40.228H68.712V38.954ZM62.986 37.974L64.47 38.408C64.2927 38.8653 64.0733 39.318 63.812 39.766C63.5507 40.214 63.2707 40.6387 62.972 41.04C62.6827 41.432 62.384 41.7727 62.076 42.062C62.0013 41.9593 61.894 41.838 61.754 41.698C61.614 41.558 61.474 41.418 61.334 41.278C61.194 41.1287 61.068 41.012 60.956 40.928C61.3667 40.5547 61.754 40.1113 62.118 39.598C62.4913 39.0753 62.7807 38.534 62.986 37.974ZM68.782 37.974L70.322 38.366C70.098 38.982 69.804 39.5793 69.44 40.158C69.076 40.7367 68.6933 41.2173 68.292 41.6C68.1987 41.5067 68.0727 41.3993 67.914 41.278C67.7647 41.1473 67.6107 41.0213 67.452 40.9C67.2933 40.7787 67.1533 40.6853 67.032 40.62C67.424 40.2933 67.7693 39.8967 68.068 39.43C68.376 38.9633 68.614 38.478 68.782 37.974ZM63.812 40.704L64.82 39.822C65.0627 40.0087 65.324 40.2327 65.604 40.494C65.884 40.746 66.1033 40.97 66.262 41.166L65.198 42.132C65.058 41.9267 64.8527 41.6887 64.582 41.418C64.3113 41.1473 64.0547 40.9093 63.812 40.704ZM69.93 40.732L70.994 39.85C71.246 40.0273 71.5167 40.2327 71.806 40.466C72.0953 40.6993 72.324 40.9093 72.492 41.096L71.372 42.076C71.2133 41.8893 70.994 41.67 70.714 41.418C70.4433 41.1567 70.182 40.928 69.93 40.732Z" fill="#DC5511"/>
<defs>
<clipPath id="clip0_0_505">
<rect width="16" height="15" fill="white" transform="translate(29.5 9)"/>
</clipPath>
</defs>
</svg>
