<svg width="192" height="144" viewBox="0 0 192 144" fill="none" xmlns="http://www.w3.org/2000/svg">
<g style="mix-blend-mode:multiply">
<path d="M191.617 73.7004C190.688 76.9788 189.741 80.2572 188.846 83.5356C185.787 94.9086 182.745 106.282 179.703 117.655C178.504 122.116 174.634 124.465 170.172 123.282C155.048 119.277 139.923 115.204 124.799 111.148C90.2403 101.888 55.6651 92.6103 21.1068 83.3497C16.0033 81.9809 10.9167 80.6121 5.81324 79.2602C2.61934 78.4152 0.878745 76.2184 0 73.1766C0 72.3316 0 71.4867 0 70.6417C1.26742 66.0114 2.55174 61.3641 3.80226 56.7169C6.52299 46.6114 9.22682 36.489 11.9306 26.3834C13.1643 21.7869 17.0848 19.4886 21.6644 20.7053C40.304 25.6905 58.9266 30.7096 77.5662 35.6947C104.638 42.9444 131.71 50.194 158.782 57.4437C167.671 59.8264 176.543 62.226 185.449 64.575C188.71 65.4368 190.688 67.4647 191.634 70.6417V73.6835L191.617 73.7004ZM21.4109 24.6597C17.9635 24.6259 15.8851 26.3158 15.057 29.3745C11.542 42.4204 8.06083 55.4665 4.57965 68.5125C3.54881 72.3823 5.20485 75.1875 9.05781 76.2184C23.6585 80.122 38.2423 84.0257 52.843 87.9462C74.8623 93.844 96.8647 99.7586 118.884 105.656C135.563 110.135 152.226 114.596 168.905 119.04C169.936 119.311 171.102 119.412 172.133 119.209C174.938 118.652 176.104 116.573 176.78 113.971C180.176 101.11 183.641 88.2842 187.071 75.441C188.085 71.6218 186.463 68.8673 182.644 67.8365C158.918 61.4656 135.192 55.1285 111.465 48.7576C83.2611 41.1869 55.0398 33.6161 26.8355 26.0454C24.8076 25.5047 22.7629 25.0146 21.3772 24.6597H21.4109Z" fill="#E84C2D"/>
<path d="M91.8792 144C89.3274 143.679 86.7757 143.425 84.224 143.02C72.6482 141.195 62.1539 136.75 52.8088 129.72C39.239 119.496 30.2826 106.113 26.0072 89.6361C25.9396 89.3657 25.9058 89.0784 25.8213 88.5546C27.1732 88.9263 28.3899 89.1798 29.5559 89.6023C29.877 89.7206 30.0798 90.3121 30.1981 90.7177C33.1554 100.908 38.1406 109.982 45.3226 117.807C56.2562 129.72 69.7077 137.004 85.7279 139.42C99.5682 141.499 112.834 139.437 125.457 133.404C131.862 130.346 137.658 126.341 142.762 121.389C143.657 120.527 144.452 120.139 145.652 120.629C146.378 120.933 147.172 121.068 148.17 121.355C147.713 121.829 147.358 122.2 147.003 122.572C138.892 130.836 129.293 136.75 118.326 140.4C112.783 142.242 107.071 143.375 101.224 143.763C100.717 143.797 100.227 143.915 99.7372 144H91.8623H91.8792Z" fill="#E84C2D"/>
<path d="M43.498 22.6319C61.6306 3.14739 90.3081 -5.15001 117.346 3.28256C145.331 12.0024 161.672 35.5596 165.762 55.4158C164.545 55.0948 163.362 54.8243 162.23 54.4188C161.892 54.3005 161.588 53.8104 161.47 53.4218C158.462 42.8261 153.189 33.4809 145.652 25.454C135.445 14.571 122.991 7.65945 108.322 4.93872C93.8906 2.26869 79.966 4.07686 66.6665 10.3126C60.0759 13.4051 54.1275 17.4777 48.8888 22.5474C47.9594 23.4599 47.1313 23.8317 45.9146 23.3079C45.1879 23.0037 44.3768 22.8515 43.498 22.6149V22.6319Z" fill="#E84C2D"/>
<path d="M73.1045 30.5743C93.4001 18.7958 122.737 24.7441 136.205 47.4225C134.921 47.1014 133.873 46.7297 132.808 46.5945C131.355 46.3917 130.493 45.5298 129.581 44.4652C119.458 32.5852 106.581 27.296 91.0342 28.7155C86.9785 29.0873 83.0748 30.135 79.2895 31.6728C78.7994 31.8756 78.1403 31.8756 77.6165 31.7573C76.1463 31.4362 74.7099 30.9968 73.1214 30.5743H73.1045Z" fill="#E84C2D"/>
<path d="M64.5879 21.6349C67.2917 20.4351 68.6098 18.4579 68.576 15.4836C70.5532 17.6129 72.8176 17.9508 75.4876 17.0214C74.1526 19.5224 74.1865 21.77 75.9947 24.0345C73.1219 23.6965 70.8912 24.4739 69.404 27.2115C68.8802 25.7244 68.745 24.3556 68.0183 23.5106C67.2917 22.6657 65.9566 22.3277 64.6047 21.618L64.5879 21.6349Z" fill="#E84C2D"/>
<path d="M131.812 22.7333C129.142 23.7303 127.604 25.4202 127.503 28.3776C125.576 26.2314 123.396 25.3864 120.54 26.2652C121.96 23.8993 122.23 21.6349 120.422 19.4211C121.892 19.4211 123.227 19.7083 124.359 19.3366C125.458 18.9817 126.336 17.9678 127.57 17.0383C127.655 19.9449 129.108 21.7531 131.795 22.7163L131.812 22.7333Z" fill="#E84C2D"/>
<path d="M147.24 35.3568C146.835 36.9284 146.209 38.1452 146.344 39.2774C146.463 40.3589 147.358 41.3559 148.102 42.7078C145.314 42.2515 143.066 42.8092 141.528 45.344C140.971 42.5219 139.433 40.7138 136.425 40.0885C137.658 39.1253 138.892 38.5675 139.467 37.6043C140.041 36.6411 139.94 35.2723 140.193 33.7683C142.204 35.9145 144.435 36.6073 147.257 35.3568H147.24Z" fill="#E84C2D"/>
<path d="M104.824 12.8643C102.712 14.8245 102.188 17.0382 103.066 19.759C100.481 18.4577 98.2165 18.7282 95.9351 20.4857C96.3407 17.7143 95.5126 15.6019 92.9102 14.1992C94.4142 13.6416 95.7999 13.4388 96.7124 12.6783C97.5912 11.9516 97.9798 10.6335 98.7234 9.31543C99.9739 11.8334 101.917 13.1009 104.841 12.8643H104.824Z" fill="#E84C2D"/>
<path d="M118.614 113.43C96.6449 125.817 67.8998 117.993 55.4453 96.4971C57.169 96.9533 58.7913 97.3589 60.3967 97.849C60.7854 97.9673 61.1402 98.3728 61.4275 98.7108C68.9137 108.124 78.5969 113.666 90.5106 115.238C97.7602 116.201 104.841 115.272 111.651 112.568C112.767 112.129 113.78 111.976 114.93 112.382C116.062 112.788 117.262 113.041 118.63 113.396L118.614 113.43Z" fill="#E84C2D"/>
<path d="M93.7045 124.144C96.3239 125.529 98.6222 125.039 100.92 123.366C100.413 126.155 101.225 128.233 103.793 129.653C102.306 130.227 100.92 130.43 100.025 131.207C99.1629 131.951 98.7742 133.269 98.0307 134.621C96.8646 131.951 94.8875 130.819 92.0146 130.988C93.9411 129.011 94.7692 126.898 93.7045 124.144Z" fill="#E84C2D"/>
<path d="M50.8993 110.287C49.0742 107.938 46.8774 107.177 44.0722 108.14C44.5454 106.67 45.2382 105.487 45.1706 104.355C45.103 103.223 44.275 102.124 43.6328 100.705C46.4549 101.651 48.6349 101.009 50.3924 98.677C50.7473 101.533 52.0823 103.442 55.0734 104.254C53.7891 105.132 52.5217 105.606 51.8964 106.518C51.2543 107.448 51.2542 108.799 50.8993 110.303V110.287Z" fill="#E84C2D"/>
<path d="M69.4207 117.317C70.6712 118.28 71.5331 119.361 72.6146 119.699C73.6961 120.037 75.0142 119.666 76.4169 119.598C75.9437 120.832 75.1832 121.947 75.1832 123.062C75.1832 124.161 75.9436 125.242 76.4337 126.51C75.0649 126.442 73.7299 126.087 72.6146 126.425C71.5162 126.763 70.6542 127.811 69.5727 128.656C69.2009 127.388 69.1334 126.02 68.4574 125.141C67.7646 124.228 66.4633 123.789 65.1621 122.995C67.8659 122.082 69.4207 120.358 69.4038 117.35L69.4207 117.317Z" fill="#E84C2D"/>
<path d="M118.935 119.75C121.858 120.426 123.92 119.395 125.509 117.012C126.032 119.682 127.215 121.66 130.359 122.048C129.024 123.096 127.773 123.687 127.165 124.685C126.539 125.682 126.573 127.084 126.286 128.402C125.204 127.693 124.258 126.695 123.16 126.459C122.061 126.222 120.794 126.746 119.425 126.983C119.83 125.682 120.523 124.516 120.456 123.4C120.388 122.268 119.56 121.186 118.918 119.75H118.935Z" fill="#E84C2D"/>
<path d="M152.749 79.2096C154.422 79.6827 155.926 80.0883 157.548 80.5446C156.568 84.2454 155.588 87.8956 154.608 91.6133C155.2 91.833 155.74 92.0359 156.416 92.2893C156.011 93.8102 155.622 95.2973 155.2 96.9027C151.769 95.9902 148.44 95.1114 145.094 94.2157C145.415 96.8689 147.223 98.5588 154 102.53C153.053 103.662 152.09 104.778 151.195 105.927C150.721 106.535 150.333 106.501 149.707 106.13C145.99 103.848 142.661 101.195 140.903 96.9196C136.78 100.198 131.93 100.468 127.063 100.823C126.64 98.9475 126.235 97.1731 125.812 95.2973C130.189 95.2128 134.701 95.6691 138.791 92.5428C135.141 91.5457 131.811 90.6501 128.347 89.7037C128.702 88.2842 129.04 86.9661 129.395 85.4959H127.08C126.353 88.1998 125.61 90.9543 124.849 93.7257C124.663 94.3679 124.477 95.0269 124.207 95.6353C123.294 97.7308 121.959 98.5419 119.695 98.2884C118.478 98.1532 117.278 97.866 116.112 97.5449C115.825 97.4604 115.403 97.021 115.419 96.7675C115.521 95.2128 115.741 93.675 115.943 92.002C116.619 92.171 117.228 92.3231 117.819 92.4752C118.85 92.7625 119.577 92.4245 119.881 91.3767C120.455 89.3996 120.996 87.4224 121.588 85.2593C120.371 85.1917 119.289 85.1241 118.106 85.0565C118.478 83.0456 118.816 81.1022 119.205 79.0405C120.269 79.125 121.267 79.1927 122.247 79.2941C122.889 79.3616 123.227 79.2095 123.396 78.4997C123.818 76.6916 124.342 74.9172 124.866 72.9907C123.801 72.6696 122.754 72.3655 121.605 72.0275C122.027 70.4728 122.399 68.935 122.872 67.414C122.94 67.1775 123.48 66.8902 123.751 66.924C124.579 67.0423 125.373 67.3296 126.302 67.5662C126.826 65.6397 127.401 63.7808 127.823 61.905C128.026 60.9755 128.432 60.8573 129.243 61.1108C130.527 61.4995 131.828 61.8374 133.282 62.243C132.707 64.4736 132.133 66.6536 131.524 68.9687C132.454 69.2391 133.332 69.5096 134.262 69.7799C134.093 70.608 133.924 71.3684 133.721 72.3148C137.033 70.5235 139.872 68.428 142.255 65.7749C142.999 64.9469 143.641 64.7609 144.655 65.0989C146.125 65.589 147.646 65.9439 149.353 66.4002C148.491 67.3465 147.747 68.1745 146.919 69.087C150.519 70.0503 154 70.9967 157.734 72.0106C157.227 73.4977 157.008 75.0693 156.197 76.2523C155.402 77.4183 154 78.1787 152.715 79.2264L152.749 79.2096ZM131.93 85.6312C132.572 83.2315 133.079 80.9163 133.822 78.7025C134.346 77.114 133.873 75.796 133.315 74.3427C132.251 75.7791 131.119 74.0553 130.003 74.5961C129.564 76.2522 129.108 77.9759 128.618 79.801C129.564 79.8517 130.341 79.8855 131.203 79.9193C130.798 81.6937 130.426 83.3498 130.02 85.0735C130.679 85.2593 131.203 85.4114 131.913 85.6142L131.93 85.6312ZM150.35 74.7144C147.781 74.0215 145.516 73.4132 143.235 72.8048C143.049 72.7541 142.779 72.7711 142.644 72.8725C141.495 73.6836 140.362 74.5285 139.01 75.5255C141.63 76.2353 143.945 76.8775 146.243 77.452C146.513 77.5196 146.919 77.4013 147.156 77.2154C148.17 76.4719 149.133 75.6607 150.35 74.6975V74.7144ZM142.508 81.3726C141.157 81.0177 140.007 80.7304 138.74 80.3924C138.132 82.6569 137.574 84.7693 136.999 86.9661C138.301 87.3041 139.416 87.6083 140.599 87.9294C141.241 85.7325 141.849 83.637 142.525 81.3726H142.508ZM151.33 83.7553C150.062 83.4173 148.947 83.1132 147.713 82.7921C147.071 85.0059 146.446 87.1183 145.804 89.332C147.105 89.6869 148.271 89.991 149.538 90.329C150.147 88.0983 150.704 86.0029 151.33 83.7385V83.7553Z" fill="#E84C2D"/>
<path d="M82.6188 54.8919C84.8663 55.4834 87.0125 56.041 89.429 56.6663C88.7192 54.6891 88.094 52.9654 87.418 51.0728C89.6318 51.2417 91.7273 51.3769 93.8228 51.6135C94.1101 51.6473 94.465 52.1036 94.5663 52.4246C95.1409 54.1483 95.5971 55.9058 96.2224 57.6126C96.4083 58.1027 96.9322 58.559 97.4223 58.8125C99.5008 59.9109 101.174 59.3702 102.728 57.6465C103.709 56.5649 104.892 55.2299 106.159 55.0102C107.359 54.8074 108.795 55.9059 110.113 56.4635C110.806 56.7508 111.499 57.0718 112.395 57.4774C110.806 58.8631 109.336 60.1475 107.714 61.567C109.978 62.1923 112.074 62.7668 114.355 63.392C112.783 69.2898 111.212 75.1368 109.623 81.1359C106.767 80.3924 104.013 79.6657 101.106 78.9053C100.515 81.1528 99.9402 83.299 99.4163 85.4621C99.3487 85.7662 99.3656 86.1887 99.5346 86.4422C100.363 87.7772 101.867 87.7434 103.151 87.8955C103.759 87.9631 104.706 87.4054 105.077 86.8478C105.872 85.6311 106.412 84.2285 107.105 82.7583C108.643 83.806 110.198 84.8706 112.006 86.1042C110.891 88.0983 109.927 90.1768 108.626 92.0019C107.342 93.7932 105.28 93.8947 103.303 93.4384C100.87 92.8976 98.47 92.2217 96.1041 91.4613C93.451 90.6163 92.3526 88.8418 92.8934 86.1042C93.3834 83.6201 94.127 81.2036 94.7691 78.7532C94.8874 78.3138 94.9888 77.8744 95.1409 77.3167C93.6875 76.9281 92.2681 76.5563 90.7641 76.1507C90.0205 79.5981 88.2123 82.1499 85.255 83.8229C82.0104 85.6649 78.4616 86.2901 74.7946 86.4253C74.5411 86.4253 74.1186 86.2056 74.0341 86.0028C73.375 84.2284 72.7666 82.4541 72.209 80.8318C74.6424 80.4938 77.0591 80.3248 79.3742 79.7671C82.0105 79.1419 84.0552 77.6548 84.5959 74.5285C82.3653 73.9032 80.1684 73.2949 77.8702 72.6527C79.4587 66.7043 81.0303 60.8403 82.6188 54.9257V54.8919ZM106.852 66.9409C100.278 65.1834 93.7889 63.4428 87.1983 61.6684C86.5055 64.254 85.8634 66.6874 85.1875 69.2222C91.7949 70.9966 98.2503 72.7203 104.824 74.4777C105.5 71.9429 106.159 69.5095 106.852 66.9409Z" fill="#E84C2D"/>
<path d="M71.0936 47.2367C69.4207 53.4724 67.7815 59.573 66.1254 65.7918C57.8618 63.578 49.7165 61.398 41.4191 59.1843C40.6418 62.1247 39.8137 64.9975 39.1546 67.921C38.8504 69.256 39.7292 70.1855 41.4022 70.6418C45.1876 71.6726 48.9898 72.6697 52.7752 73.7005C54.1947 74.0892 55.6311 74.4778 57.0506 74.8496C59.2475 75.4242 60.5318 74.782 61.3937 72.7034C62.0358 71.1656 62.6779 69.6109 63.3539 67.9717C65.2297 69.0364 66.9703 70.0334 68.8968 71.1149C67.6463 73.8694 66.852 76.8606 64.8749 79.1926C63.2357 81.136 60.8867 81.1529 58.6561 80.5952C52.6738 79.0912 46.7254 77.4689 40.777 75.8635C39.0702 75.4072 37.3296 74.9848 35.7242 74.275C33.0373 73.0752 31.8712 70.929 32.5641 68.0731C34.1695 61.567 35.9438 55.0947 37.7013 48.4366C39.763 48.9773 41.7402 49.5012 43.8187 50.0589C43.5146 51.3094 43.2442 52.4247 42.9401 53.6921C49.1082 55.3482 55.2086 56.9874 61.4443 58.6604C62.1203 56.1425 62.7794 53.709 63.4722 51.1234C54.8876 48.8083 46.3536 46.527 37.6844 44.1949C38.1914 42.3022 38.6645 40.5278 39.1546 38.7028C49.8009 41.5587 60.3459 44.3808 71.0767 47.2536L71.0936 47.2367Z" fill="#E84C2D"/>
</g>
</svg>
