<svg width="176" height="92" viewBox="0 0 176 92" fill="none" xmlns="http://www.w3.org/2000/svg">
<g opacity="0.6" filter="url(#filter0_d_0_282)">
<path d="M168 92H8C8 47.8172 43.8172 12 88 12C132.183 12 168 47.8172 168 92Z" fill="#DC5511"/>
</g>
<g filter="url(#filter1_d_0_282)">
<path d="M158 92H18C18 53.3401 49.3401 22 88 22C126.66 22 158 53.3401 158 92Z" fill="#DC5511"/>
</g>
<path d="M44.2133 64.896H51.4293V70.24H44.0693V68.832H49.6373V66.288H44.2133V64.896ZM43.3013 66.928H50.5653V68.176H43.3013V66.928ZM50.2613 66.848H52.5013V68.224H50.2613V66.848ZM42.6933 70.768H52.4853V74.016H50.7573V72.288H44.3413V74.032H42.6933V70.768ZM43.7493 73.392H50.7573V74.832H45.4293V78.368H43.7493V73.392ZM49.9093 73.392H51.5413V76.8C51.5413 77.1627 51.5039 77.456 51.4293 77.68C51.3653 77.904 51.2159 78.08 50.9813 78.208C50.7359 78.336 50.4586 78.4107 50.1493 78.432C49.8399 78.4533 49.4773 78.464 49.0613 78.464C49.0399 78.2293 48.9866 77.9733 48.9013 77.696C48.8266 77.408 48.7359 77.1573 48.6293 76.944C48.8639 76.9547 49.0826 76.96 49.2853 76.96C49.4879 76.96 49.6319 76.96 49.7173 76.96C49.7919 76.96 49.8399 76.9493 49.8613 76.928C49.8933 76.896 49.9093 76.8427 49.9093 76.768V73.392ZM46.6933 72.256H48.4053V79.424H46.6933V72.256ZM37.6373 72.448C38.2559 72.3093 38.9919 72.128 39.8453 71.904C40.6986 71.6693 41.5626 71.4347 42.4373 71.2L42.6773 72.928C41.8986 73.1733 41.1039 73.4133 40.2933 73.648C39.4826 73.8827 38.7359 74.096 38.0533 74.288L37.6373 72.448ZM37.8933 67.44H42.9013V69.2H37.8933V67.44ZM39.5733 64.416H41.3333V77.408C41.3333 77.8453 41.2853 78.192 41.1893 78.448C41.1039 78.7147 40.9386 78.9227 40.6933 79.072C40.4586 79.2213 40.1599 79.3227 39.7973 79.376C39.4453 79.4293 39.0026 79.4507 38.4693 79.44C38.4479 79.2053 38.3893 78.912 38.2933 78.56C38.1973 78.2187 38.0906 77.92 37.9733 77.664C38.2719 77.6747 38.5439 77.6853 38.7893 77.696C39.0453 77.696 39.2213 77.6907 39.3173 77.68C39.4133 77.68 39.4773 77.664 39.5093 77.632C39.5519 77.5893 39.5733 77.5147 39.5733 77.408V64.416ZM60.8693 70.128H69.4773V79.312H67.6533V71.792H62.6133V79.392H60.8693V70.128ZM61.8613 73.504H68.4533V75.136H61.8613V73.504ZM61.9093 76.912H68.5013V78.592H61.9093V76.912ZM64.2293 70.944H65.9413V78.24H64.2293V70.944ZM54.9013 72.592C55.3919 72.496 55.9359 72.3787 56.5333 72.24C57.1413 72.0907 57.7759 71.936 58.4373 71.776C59.1093 71.6053 59.7759 71.4347 60.4373 71.264L60.6613 72.992C59.7439 73.248 58.8106 73.504 57.8613 73.76C56.9119 74.016 56.0426 74.2507 55.2533 74.464L54.9013 72.592ZM55.1573 67.424H60.4693V69.2H55.1573V67.424ZM57.0933 64.4H58.9333V77.424C58.9333 77.8827 58.8853 78.24 58.7893 78.496C58.6933 78.752 58.5119 78.9493 58.2453 79.088C57.9786 79.2267 57.6479 79.3173 57.2533 79.36C56.8586 79.4133 56.3839 79.44 55.8293 79.44C55.7973 79.1947 55.7279 78.9067 55.6213 78.576C55.5253 78.2453 55.4186 77.952 55.3013 77.696C55.6106 77.7067 55.9093 77.7173 56.1973 77.728C56.4853 77.728 56.6826 77.728 56.7893 77.728C56.8959 77.728 56.9706 77.7067 57.0133 77.664C57.0666 77.6107 57.0933 77.5253 57.0933 77.408V64.4ZM60.1013 66.336H64.7573V68.096H60.1013V66.336ZM61.8293 64.4H63.7333V69.504H61.8293V64.4ZM66.3573 64.4H68.2613V69.504H66.3573V64.4ZM65.2693 66.304H70.0853V68.064H65.2693V66.304ZM78.0213 78.224C76.9759 78.224 76.0533 77.9787 75.2533 77.488C74.4639 76.9867 73.8453 76.272 73.3973 75.344C72.9493 74.416 72.7253 73.3067 72.7253 72.016C72.7253 70.736 72.9493 69.6427 73.3973 68.736C73.8453 67.8293 74.4639 67.136 75.2533 66.656C76.0533 66.176 76.9759 65.936 78.0213 65.936C79.0773 65.936 79.9999 66.1813 80.7893 66.672C81.5786 67.152 82.1973 67.8453 82.6453 68.752C83.0933 69.648 83.3173 70.736 83.3173 72.016C83.3173 73.3067 83.0933 74.416 82.6453 75.344C82.1973 76.272 81.5786 76.9867 80.7893 77.488C79.9999 77.9787 79.0773 78.224 78.0213 78.224ZM78.0213 76.288C78.6079 76.288 79.1146 76.1173 79.5413 75.776C79.9786 75.4347 80.3146 74.944 80.5493 74.304C80.7839 73.664 80.9013 72.9013 80.9013 72.016C80.9013 71.1733 80.7839 70.4533 80.5493 69.856C80.3146 69.248 79.9786 68.784 79.5413 68.464C79.1146 68.1333 78.6079 67.968 78.0213 67.968C77.4346 67.968 76.9226 68.1333 76.4853 68.464C76.0586 68.784 75.7279 69.248 75.4933 69.856C75.2693 70.4533 75.1573 71.1733 75.1573 72.016C75.1573 72.9013 75.2693 73.664 75.4933 74.304C75.7279 74.944 76.0586 75.4347 76.4853 75.776C76.9226 76.1173 77.4346 76.288 78.0213 76.288ZM81.8613 81.216C81.0186 81.216 80.2666 81.072 79.6053 80.784C78.9439 80.496 78.3839 80.1013 77.9253 79.6C77.4666 79.1093 77.1093 78.5493 76.8533 77.92L79.2533 77.68C79.4133 78.064 79.6373 78.3787 79.9253 78.624C80.2239 78.8693 80.5653 79.0453 80.9493 79.152C81.3333 79.2693 81.7226 79.328 82.1173 79.328C82.3733 79.328 82.6079 79.3067 82.8213 79.264C83.0453 79.2213 83.2426 79.1733 83.4133 79.12L83.8453 80.864C83.6319 80.96 83.3546 81.04 83.0133 81.104C82.6719 81.1787 82.2879 81.216 81.8613 81.216ZM86.9098 78V66.144H91.0218C91.8644 66.144 92.6218 66.256 93.2938 66.48C93.9658 66.6933 94.4991 67.0667 94.8938 67.6C95.2884 68.1227 95.4858 68.8373 95.4858 69.744C95.4858 70.6187 95.2884 71.3387 94.8938 71.904C94.4991 72.4587 93.9658 72.8693 93.2938 73.136C92.6218 73.392 91.8644 73.52 91.0218 73.52H89.2778V78H86.9098ZM89.2778 71.648H90.8138C91.5818 71.648 92.1631 71.488 92.5578 71.168C92.9631 70.848 93.1658 70.3733 93.1658 69.744C93.1658 69.104 92.9631 68.6613 92.5578 68.416C92.1631 68.16 91.5818 68.032 90.8138 68.032H89.2778V71.648ZM93.3418 78L90.5898 72.912L92.2538 71.44L95.9978 78H93.3418ZM102.446 78.224C101.625 78.224 100.884 78.0373 100.222 77.664C99.561 77.2907 99.0384 76.7573 98.6544 76.064C98.2704 75.36 98.0784 74.512 98.0784 73.52C98.0784 72.528 98.2864 71.6853 98.7024 70.992C99.129 70.288 99.689 69.7493 100.382 69.376C101.086 69.0027 101.844 68.816 102.654 68.816C103.209 68.816 103.7 68.912 104.126 69.104C104.553 69.2853 104.932 69.5253 105.262 69.824L104.142 71.312C103.929 71.12 103.71 70.976 103.486 70.88C103.262 70.784 103.028 70.736 102.782 70.736C102.324 70.736 101.918 70.8533 101.566 71.088C101.225 71.312 100.958 71.632 100.766 72.048C100.585 72.464 100.494 72.9547 100.494 73.52C100.494 74.0853 100.585 74.576 100.766 74.992C100.958 75.408 101.22 75.7333 101.55 75.968C101.892 76.192 102.276 76.304 102.702 76.304C103.022 76.304 103.332 76.2347 103.63 76.096C103.929 75.9573 104.201 75.7867 104.446 75.584L105.374 77.136C104.948 77.5093 104.473 77.7867 103.95 77.968C103.438 78.1387 102.937 78.224 102.446 78.224ZM111.537 78.224C110.791 78.224 110.087 78.0373 109.425 77.664C108.775 77.2907 108.247 76.7573 107.841 76.064C107.436 75.36 107.233 74.512 107.233 73.52C107.233 72.528 107.436 71.6853 107.841 70.992C108.247 70.288 108.775 69.7493 109.425 69.376C110.087 69.0027 110.791 68.816 111.537 68.816C112.103 68.816 112.641 68.9227 113.153 69.136C113.665 69.3493 114.124 69.6587 114.529 70.064C114.935 70.4587 115.255 70.9493 115.489 71.536C115.724 72.112 115.841 72.7733 115.841 73.52C115.841 74.512 115.639 75.36 115.233 76.064C114.828 76.7573 114.295 77.2907 113.633 77.664C112.983 78.0373 112.284 78.224 111.537 78.224ZM111.537 76.304C111.943 76.304 112.284 76.192 112.561 75.968C112.849 75.7333 113.063 75.408 113.201 74.992C113.351 74.576 113.425 74.0853 113.425 73.52C113.425 72.9547 113.351 72.464 113.201 72.048C113.063 71.632 112.849 71.312 112.561 71.088C112.284 70.8533 111.943 70.736 111.537 70.736C111.132 70.736 110.785 70.8533 110.497 71.088C110.22 71.312 110.007 71.632 109.857 72.048C109.719 72.464 109.649 72.9547 109.649 73.52C109.649 74.0853 109.719 74.576 109.857 74.992C110.007 75.408 110.22 75.7333 110.497 75.968C110.785 76.192 111.132 76.304 111.537 76.304ZM122.241 78.224C121.494 78.224 120.844 78.0373 120.289 77.664C119.745 77.2907 119.324 76.752 119.025 76.048C118.726 75.344 118.577 74.5013 118.577 73.52C118.577 72.5493 118.753 71.7173 119.105 71.024C119.468 70.32 119.937 69.776 120.513 69.392C121.089 69.008 121.697 68.816 122.337 68.816C122.838 68.816 123.26 68.9067 123.601 69.088C123.953 69.2587 124.289 69.4933 124.609 69.792L124.529 68.384V65.232H126.881V78H124.961L124.785 77.072H124.721C124.39 77.392 124.012 77.664 123.585 77.888C123.158 78.112 122.71 78.224 122.241 78.224ZM122.849 76.288C123.169 76.288 123.462 76.2187 123.729 76.08C124.006 75.9307 124.273 75.6907 124.529 75.36V71.424C124.262 71.1787 123.985 71.008 123.697 70.912C123.42 70.8053 123.137 70.752 122.849 70.752C122.518 70.752 122.209 70.8587 121.921 71.072C121.644 71.2747 121.42 71.5787 121.249 71.984C121.078 72.3893 120.993 72.8907 120.993 73.488C120.993 74.1067 121.062 74.624 121.201 75.04C121.35 75.456 121.564 75.7707 121.841 75.984C122.118 76.1867 122.454 76.288 122.849 76.288ZM134.57 78.224C133.738 78.224 132.986 78.0373 132.314 77.664C131.642 77.2907 131.103 76.752 130.698 76.048C130.303 75.344 130.106 74.5013 130.106 73.52C130.106 72.7947 130.218 72.144 130.442 71.568C130.677 70.992 130.991 70.5013 131.386 70.096C131.791 69.68 132.239 69.3653 132.73 69.152C133.231 68.928 133.749 68.816 134.282 68.816C135.103 68.816 135.791 69.0027 136.346 69.376C136.901 69.7387 137.317 70.2453 137.594 70.896C137.882 71.536 138.026 72.272 138.026 73.104C138.026 73.3173 138.015 73.5253 137.994 73.728C137.973 73.92 137.946 74.0747 137.914 74.192H132.394C132.458 74.672 132.602 75.0773 132.826 75.408C133.05 75.7387 133.338 75.9893 133.69 76.16C134.042 76.32 134.442 76.4 134.89 76.4C135.253 76.4 135.594 76.352 135.914 76.256C136.234 76.1493 136.559 75.9947 136.89 75.792L137.69 77.232C137.253 77.5307 136.762 77.7707 136.218 77.952C135.674 78.1333 135.125 78.224 134.57 78.224ZM132.346 72.608H136.01C136.01 72.0107 135.871 71.536 135.594 71.184C135.327 70.8213 134.901 70.64 134.314 70.64C134.005 70.64 133.711 70.7147 133.434 70.864C133.157 71.0027 132.922 71.2213 132.73 71.52C132.538 71.808 132.41 72.1707 132.346 72.608Z" fill="#FFFBF8"/>
<path d="M84.0526 35.7478C83.6829 35.6291 83.3467 35.424 83.0721 35.1494C82.7975 34.8748 82.5924 34.5386 82.4737 34.1689C82.4506 34.1185 82.4135 34.0758 82.3669 34.0458C82.3202 34.0159 82.266 34 82.2105 34C82.1551 34 82.1008 34.0159 82.0542 34.0458C82.0075 34.0758 81.9705 34.1185 81.9474 34.1689C81.8279 34.5382 81.6225 34.874 81.348 35.1485C81.0735 35.423 80.7378 35.6284 80.3684 35.7478C80.318 35.7709 80.2753 35.808 80.2454 35.8546C80.2155 35.9013 80.1995 35.9556 80.1995 36.011C80.1995 36.0664 80.2155 36.1207 80.2454 36.1673C80.2753 36.214 80.318 36.251 80.3684 36.2741C80.7376 36.394 81.0731 36.5995 81.3476 36.874C81.622 37.1484 81.8275 37.4839 81.9474 37.8531C81.9705 37.9035 82.0075 37.9462 82.0542 37.9761C82.1008 38.0061 82.1551 38.022 82.2105 38.022C82.266 38.022 82.3202 38.0061 82.3669 37.9761C82.4135 37.9462 82.4506 37.9035 82.4737 37.8531C82.5928 37.4835 82.798 37.1476 83.0726 36.873C83.3471 36.5985 83.6831 36.3932 84.0526 36.2741C84.103 36.251 84.1457 36.214 84.1757 36.1673C84.2056 36.1207 84.2215 36.0664 84.2215 36.011C84.2215 35.9556 84.2056 35.9013 84.1757 35.8546C84.1457 35.808 84.103 35.7709 84.0526 35.7478ZM89.0474 43.211C88.4228 43.211 87.8123 43.3962 87.2929 43.7432C86.7736 44.0902 86.3689 44.5834 86.1299 45.1604C85.8908 45.7374 85.8283 46.3724 85.9502 46.985C86.072 47.5975 86.3728 48.1602 86.8144 48.6018C87.256 49.0435 87.8187 49.3442 88.4313 49.4661C89.0439 49.5879 89.6788 49.5254 90.2558 49.2864C90.8329 49.0474 91.3261 48.6426 91.6731 48.1233C92.0201 47.604 92.2053 46.9935 92.2053 46.3689C92.2053 45.5323 91.8733 44.7298 91.2822 44.1378C90.6911 43.5457 89.8892 43.2124 89.0526 43.211H89.0474Z" fill="#FFFBF8"/>
<path d="M95.8947 39.5268H94.7684L93.8684 37.9478C93.6834 37.6273 93.4171 37.3613 93.0965 37.1765C92.7759 36.9917 92.4122 36.8946 92.0421 36.8952H86.5895C86.2194 36.8946 85.8557 36.9917 85.5351 37.1765C85.2144 37.3613 84.9482 37.6273 84.7632 37.9478L83.8632 39.5268H80.1053C79.5469 39.5268 79.0114 39.7486 78.6166 40.1434C78.2218 40.5382 78 41.0737 78 41.632V51.1057C78 51.6641 78.2218 52.1996 78.6166 52.5944C79.0114 52.9892 79.5469 53.211 80.1053 53.211H95.8947C96.4531 53.211 96.9886 52.9892 97.3834 52.5944C97.7782 52.1996 98 51.6641 98 51.1057V41.632C98 41.0737 97.7782 40.5382 97.3834 40.1434C96.9886 39.7486 96.4531 39.5268 95.8947 39.5268ZM81.1579 43.7373C80.9497 43.7373 80.7462 43.6756 80.5731 43.5599C80.4 43.4442 80.2651 43.2798 80.1854 43.0875C80.1057 42.8951 80.0849 42.6835 80.1255 42.4793C80.1661 42.2751 80.2664 42.0876 80.4136 41.9403C80.5608 41.7931 80.7483 41.6929 80.9525 41.6523C81.1567 41.6116 81.3684 41.6325 81.5607 41.7122C81.7531 41.7918 81.9175 41.9268 82.0331 42.0999C82.1488 42.273 82.2105 42.4765 82.2105 42.6847C82.2105 42.9638 82.0996 43.2316 81.9022 43.429C81.7048 43.6264 81.4371 43.7373 81.1579 43.7373ZM89.0526 51.1057C88.1158 51.1057 87.1999 50.8279 86.421 50.3074C85.642 49.7869 85.0349 49.0471 84.6764 48.1816C84.3178 47.316 84.224 46.3636 84.4068 45.4448C84.5896 44.5259 85.0407 43.6819 85.7032 43.0194C86.3656 42.357 87.2097 41.9058 88.1285 41.7231C89.0474 41.5403 89.9998 41.6341 90.8653 41.9926C91.7309 42.3511 92.4707 42.9583 92.9912 43.7372C93.5117 44.5162 93.7895 45.432 93.7895 46.3689C93.7895 47.6252 93.2904 48.83 92.4021 49.7183C91.5138 50.6067 90.3089 51.1057 89.0526 51.1057Z" fill="#FFFBF8"/>
<defs>
<filter id="filter0_d_0_282" x="0" y="0" width="176" height="96" filterUnits="userSpaceOnUse" color-interpolation-filters="sRGB">
<feFlood flood-opacity="0" result="BackgroundImageFix"/>
<feColorMatrix in="SourceAlpha" type="matrix" values="0 0 0 0 0 0 0 0 0 0 0 0 0 0 0 0 0 0 127 0" result="hardAlpha"/>
<feOffset dy="-4"/>
<feGaussianBlur stdDeviation="4"/>
<feComposite in2="hardAlpha" operator="out"/>
<feColorMatrix type="matrix" values="0 0 0 0 0 0 0 0 0 0 0 0 0 0 0 0 0 0 0.1 0"/>
<feBlend mode="normal" in2="BackgroundImageFix" result="effect1_dropShadow_0_282"/>
<feBlend mode="normal" in="SourceGraphic" in2="effect1_dropShadow_0_282" result="shape"/>
</filter>
<filter id="filter1_d_0_282" x="10" y="10" width="156" height="86" filterUnits="userSpaceOnUse" color-interpolation-filters="sRGB">
<feFlood flood-opacity="0" result="BackgroundImageFix"/>
<feColorMatrix in="SourceAlpha" type="matrix" values="0 0 0 0 0 0 0 0 0 0 0 0 0 0 0 0 0 0 127 0" result="hardAlpha"/>
<feOffset dy="-4"/>
<feGaussianBlur stdDeviation="4"/>
<feComposite in2="hardAlpha" operator="out"/>
<feColorMatrix type="matrix" values="0 0 0 0 0 0 0 0 0 0 0 0 0 0 0 0 0 0 0.1 0"/>
<feBlend mode="normal" in2="BackgroundImageFix" result="effect1_dropShadow_0_282"/>
<feBlend mode="normal" in="SourceGraphic" in2="effect1_dropShadow_0_282" result="shape"/>
</filter>
</defs>
</svg>
