<svg width="128" height="103" viewBox="0 0 128 103" fill="none" xmlns="http://www.w3.org/2000/svg">
<g filter="url(#filter0_f_7030_10289)">
<ellipse cx="64" cy="76" rx="32" ry="4" fill="black" fill-opacity="0.5"/>
</g>
<rect x="32" y="12" width="64" height="64" rx="32" fill="url(#paint0_radial_7030_10289)"/>
<path d="M58.7367 32.9971C58.2437 32.8388 57.7955 32.5653 57.4293 32.1991C57.0632 31.833 56.7897 31.3848 56.6314 30.8918C56.6006 30.8246 56.5512 30.7677 56.489 30.7278C56.4268 30.6878 56.3544 30.6666 56.2805 30.6666C56.2066 30.6666 56.1343 30.6878 56.0721 30.7278C56.0099 30.7677 55.9605 30.8246 55.9297 30.8918C55.7704 31.3843 55.4965 31.8319 55.1305 32.1979C54.7645 32.5639 54.3169 32.8378 53.8244 32.9971C53.7572 33.0278 53.7003 33.0773 53.6604 33.1395C53.6204 33.2017 53.5992 33.274 53.5992 33.3479C53.5992 33.4218 53.6204 33.4942 53.6604 33.5564C53.7003 33.6186 53.7572 33.668 53.8244 33.6988C54.3166 33.8586 54.764 34.1327 55.1299 34.4986C55.4958 34.8645 55.7699 35.3119 55.9297 35.8041C55.9605 35.8713 56.0099 35.9282 56.0721 35.9681C56.1343 36.008 56.2066 36.0292 56.2805 36.0292C56.3544 36.0292 56.4268 36.008 56.489 35.9681C56.5512 35.9282 56.6006 35.8713 56.6314 35.8041C56.7902 35.3113 57.0639 34.8634 57.4299 34.4974C57.796 34.1313 58.2439 33.8576 58.7367 33.6988C58.8039 33.668 58.8608 33.6186 58.9007 33.5564C58.9406 33.4942 58.9619 33.4218 58.9619 33.3479C58.9619 33.274 58.9406 33.2017 58.9007 33.1395C58.8608 33.0773 58.8039 33.0278 58.7367 32.9971ZM65.3963 42.9479C64.5636 42.9479 63.7495 43.1949 63.0571 43.6575C62.3647 44.1202 61.825 44.7778 61.5063 45.5472C61.1876 46.3165 61.1042 47.1631 61.2667 47.9799C61.4292 48.7967 61.8302 49.5469 62.419 50.1358C63.0079 50.7246 63.7581 51.1256 64.5749 51.2881C65.3917 51.4505 66.2383 51.3672 67.0076 51.0485C67.777 50.7298 68.4346 50.1901 68.8973 49.4977C69.3599 48.8053 69.6069 47.9912 69.6069 47.1585C69.6069 46.043 69.1642 44.9731 68.3761 44.1836C67.588 43.3942 66.5188 42.9498 65.4033 42.9479H65.3963Z" fill="#527ACC"/>
<path d="M74.5261 38.0357H73.0244L71.8244 35.9304C71.5777 35.5031 71.2227 35.1483 70.7952 34.9019C70.3677 34.6555 69.8827 34.5262 69.3893 34.5269H62.1191C61.6257 34.5262 61.1408 34.6555 60.7133 34.9019C60.2858 35.1483 59.9308 35.5031 59.6841 35.9304L58.484 38.0357H53.4735C52.7291 38.0357 52.0151 38.3314 51.4887 38.8578C50.9622 39.3842 50.6665 40.0982 50.6665 40.8427V53.4743C50.6665 54.2187 50.9622 54.9327 51.4887 55.4591C52.0151 55.9855 52.7291 56.2813 53.4735 56.2813H74.5261C75.2706 56.2813 75.9846 55.9855 76.511 55.4591C77.0374 54.9327 77.3332 54.2187 77.3332 53.4743V40.8427C77.3332 40.0982 77.0374 39.3842 76.511 38.8578C75.9846 38.3314 75.2706 38.0357 74.5261 38.0357ZM54.877 43.6497C54.5994 43.6497 54.3281 43.5674 54.0973 43.4132C53.8665 43.2589 53.6866 43.0397 53.5804 42.7833C53.4741 42.5268 53.4463 42.2446 53.5005 41.9724C53.5546 41.7001 53.6883 41.45 53.8846 41.2537C54.0809 41.0575 54.331 40.9238 54.6032 40.8696C54.8755 40.8155 55.1577 40.8433 55.4141 40.9495C55.6706 41.0557 55.8898 41.2356 56.044 41.4664C56.1982 41.6972 56.2805 41.9686 56.2805 42.2462C56.2805 42.6184 56.1327 42.9754 55.8695 43.2386C55.6063 43.5018 55.2493 43.6497 54.877 43.6497ZM65.4033 53.4743C64.1542 53.4743 62.9331 53.1038 61.8945 52.4099C60.8559 51.7159 60.0463 50.7295 59.5683 49.5754C59.0903 48.4214 58.9652 47.1515 59.2089 45.9263C59.4526 44.7012 60.0541 43.5758 60.9374 42.6925C61.8207 41.8092 62.9461 41.2077 64.1712 40.964C65.3963 40.7203 66.6662 40.8454 67.8203 41.3234C68.9744 41.8015 69.9607 42.611 70.6547 43.6496C71.3487 44.6882 71.7191 45.9093 71.7191 47.1585C71.7191 48.8335 71.0537 50.44 69.8693 51.6244C68.6848 52.8088 67.0784 53.4743 65.4033 53.4743Z" fill="#527ACC"/>
<path d="M23.7191 79.896H26.2471C26.8711 79.896 27.2871 80.312 27.2871 80.936V81.848H27.6711C28.1351 81.848 28.3591 82.072 28.3591 82.536C28.3591 83 28.1351 83.224 27.6711 83.224H27.2871V84.28C27.2871 84.856 26.9031 85.24 26.3271 85.24H23.6391H20.7111C20.2471 85.24 20.0071 85 20.0071 84.536C20.0071 84.072 20.2471 83.832 20.7111 83.832H25.0311C25.3511 83.832 25.5111 83.672 25.5111 83.352V83.176H19.8631C19.4471 83.176 19.2391 82.968 19.2391 82.552C19.2391 82.136 19.4471 81.928 19.8631 81.928H25.5111V81.56C25.5111 81.368 25.4311 81.288 25.2391 81.288H20.8391C20.3751 81.288 20.1511 81.048 20.1511 80.584C20.1511 80.12 20.3751 79.896 20.8391 79.896H23.7191ZM21.0631 85.768H23.4951H27.3031C27.9271 85.768 28.3431 86.184 28.3431 86.808V88.12C28.3431 88.664 27.9911 89.016 27.4471 89.016H27.3991V91.8C27.3991 92.52 27.3031 92.952 26.8391 93.208C26.5511 93.368 26.2151 93.432 25.7991 93.448C25.3191 93.464 24.9031 93.288 24.7751 92.824C24.5831 92.184 24.8871 91.944 25.5591 91.96C25.5751 91.96 25.5751 91.96 25.5911 91.96C25.7351 91.96 25.7831 91.928 25.7831 91.768V89.832H24.2951V93.576C24.2951 94.136 24.0071 94.424 23.4471 94.424C22.8871 94.424 22.5991 94.136 22.5991 93.576V89.832H21.3511V92.536C21.3511 93.096 21.0791 93.368 20.5191 93.368C19.9591 93.368 19.6871 93.096 19.6871 92.536V89.032H19.1111C18.8231 89.032 18.6471 88.856 18.6471 88.568V86.808C18.6471 86.184 19.0631 85.768 19.6871 85.768H21.0631ZM21.4311 88.392H22.5991V87.272H21.4311H20.7591C20.4391 87.272 20.2791 87.432 20.2791 87.752V87.912C20.2791 88.232 20.4391 88.392 20.7591 88.392H21.4311ZM25.4631 87.272H24.2951V88.392H25.4631H26.6471L26.6311 87.272H25.4631ZM15.5591 90.632V88.856L14.9831 89.016C14.3591 89.192 13.9911 88.984 13.8471 88.344C13.7031 87.736 13.8631 87.384 14.4711 87.24C14.8071 87.16 15.1751 87.064 15.5591 86.968V84.2H14.7751C14.1831 84.2 13.8951 83.912 13.8951 83.32C13.8951 82.728 14.1831 82.44 14.7751 82.44H15.5591V80.28C15.5591 79.704 15.8471 79.416 16.4231 79.416C16.9991 79.416 17.2871 79.704 17.2871 80.28V82.44H17.9751C18.5671 82.44 18.8551 82.728 18.8551 83.32C18.8551 83.912 18.5671 84.2 17.9751 84.2H17.2871V86.504L17.4951 86.44C18.0871 86.28 18.4391 86.536 18.5191 87.144C18.5831 87.656 18.3911 88.008 17.8951 88.152L17.2871 88.328V90.376V92.408C17.2871 93.288 17.1591 93.784 16.6631 94.072C16.3591 94.264 15.9911 94.36 15.4951 94.408C14.9351 94.424 14.3911 94.248 14.2471 93.704C14.0391 92.936 14.4391 92.664 15.2231 92.68C15.2551 92.68 15.2871 92.68 15.3031 92.68C15.4951 92.68 15.5591 92.616 15.5591 92.408V90.632ZM40.9991 83.224H39.9271V84.12C39.9271 84.728 39.6231 85.032 39.0151 85.032C38.4071 85.032 38.1031 84.728 38.1031 84.12V83.224H37.1431C36.5671 83.224 36.2791 82.936 36.2791 82.36C36.2791 81.784 36.5671 81.496 37.1431 81.496H38.1031V80.312C38.1031 79.704 38.4071 79.4 39.0151 79.4C39.6231 79.4 39.9271 79.704 39.9271 80.312V81.496H40.9991H42.0871V80.312C42.0871 79.704 42.4071 79.4 43.0151 79.4C43.6231 79.4 43.9271 79.704 43.9271 80.312V81.496H44.9191C45.4951 81.496 45.7831 81.784 45.7831 82.36C45.7831 82.936 45.4951 83.224 44.9191 83.224H43.9271V84.12C43.9271 84.728 43.6231 85.032 43.0151 85.032C42.4071 85.032 42.0871 84.728 42.0871 84.12V83.224H40.9991ZM39.3351 91.912H40.1351V90.344H39.3191H38.5351V91.432C38.5351 91.752 38.6951 91.912 39.0151 91.912H39.3351ZM39.3351 88.712H40.1351V87.192H39.3191H38.8711C38.6471 87.192 38.5351 87.304 38.5351 87.528V88.712H39.3351ZM42.6631 90.344H41.8311V91.912H42.6471H43.1271C43.3831 91.912 43.4951 91.8 43.4951 91.544V90.344H42.6631ZM42.6631 87.192H41.8311V88.712H42.6471H43.4951V87.672C43.4951 87.352 43.3351 87.192 43.0151 87.192H42.6631ZM36.8071 89.944V86.568C36.8071 85.944 37.2231 85.528 37.8471 85.528H41.0471H44.2631C44.8871 85.528 45.3031 85.944 45.3031 86.568V92.536C45.3031 93.16 44.8871 93.576 44.2631 93.576H37.8471C37.2231 93.576 36.8071 93.16 36.8071 92.536V89.944ZM32.8231 90.568V88.936L32.2631 89.096C31.6391 89.272 31.2711 89.064 31.1271 88.424C30.9831 87.816 31.2231 87.448 31.8311 87.304L32.8231 87.064V84.2H32.0551C31.4631 84.2 31.1751 83.912 31.1751 83.32C31.1751 82.728 31.4631 82.44 32.0551 82.44H32.8231V80.28C32.8231 79.704 33.1111 79.416 33.6871 79.416C34.2631 79.416 34.5511 79.704 34.5511 80.28V82.44H35.1111C35.7031 82.44 35.9911 82.728 35.9911 83.32C35.9911 83.912 35.7031 84.2 35.1111 84.2H34.5511V86.6L35.0151 86.472C35.6231 86.312 35.9751 86.552 36.0551 87.176C36.1191 87.688 35.8951 88.04 35.3991 88.184L34.5511 88.44V90.328V92.2C34.5511 93.08 34.4071 93.56 33.9111 93.848C33.6071 94.04 33.2391 94.136 32.7591 94.184C32.1991 94.2 31.6551 94.008 31.5111 93.464C31.3031 92.728 31.7031 92.456 32.4711 92.456C32.5031 92.456 32.5351 92.456 32.5511 92.456C32.7431 92.456 32.8231 92.392 32.8231 92.184V90.568ZM51.8471 90.152C52.3431 90.888 53.0631 91.288 53.9431 91.288C54.8231 91.288 55.5431 90.888 56.0391 90.152C56.5511 89.416 56.8231 88.344 56.8231 87.016C56.8231 84.488 55.7031 82.968 53.9431 82.968C52.1831 82.968 51.0791 84.488 51.0791 87.016C51.0791 88.344 51.3511 89.416 51.8471 90.152ZM50.1191 82.536C51.0471 81.496 52.3751 80.936 53.9431 80.936C55.5111 80.936 56.8391 81.496 57.7671 82.536C58.6951 83.576 59.2391 85.096 59.2391 87.016C59.2391 90.264 57.7031 92.44 55.3511 93.048C55.8951 93.944 56.9671 94.328 58.0391 94.328C58.1831 94.328 58.3271 94.328 58.4551 94.312C59.0791 94.184 59.4311 94.472 59.5751 95.08C59.7031 95.576 59.6551 95.896 59.1751 96.072C58.7911 96.168 58.3111 96.216 57.7671 96.216C55.3511 96.216 53.6551 94.92 52.8551 93.128C50.3271 92.632 48.6471 90.408 48.6471 87.016C48.6471 85.096 49.1911 83.576 50.1191 82.536ZM68.4796 86.168C68.8796 85.848 69.0876 85.368 69.0876 84.744C69.0876 83.464 68.2556 83.032 66.7356 83.032H65.1996V84.84V86.648H66.7356C67.5036 86.648 68.0796 86.488 68.4796 86.168ZM62.8316 87.08V82.184C62.8316 81.56 63.2476 81.144 63.8716 81.144H64.8796H66.9436C69.4396 81.144 71.4076 82.024 71.4076 84.744C71.4076 86.52 70.5116 87.624 69.1516 88.152L71.2476 91.816C71.6476 92.52 71.3756 93 70.5596 93H70.0156C69.5676 93 69.1356 92.744 68.9276 92.36L66.8476 88.52H65.1996V91.816C65.1996 92.6 64.7996 93 64.0156 93C63.2316 93 62.8316 92.6 62.8316 91.816V87.08ZM75.3424 91.992C74.5584 91.176 74.0784 90.008 74.0784 88.52C74.0784 87.032 74.6224 85.848 75.4544 85.048C76.3024 84.248 77.4384 83.816 78.6544 83.816C79.4064 83.816 80.0464 84.008 80.5904 84.328C81.0544 84.68 81.0704 85.08 80.7184 85.544C80.3344 86.056 79.8224 86.136 79.2784 85.816C79.1184 85.768 78.9584 85.736 78.7824 85.736C77.4064 85.736 76.4784 86.84 76.4784 88.52C76.4784 90.216 77.4064 91.304 78.7024 91.304C79.0224 91.304 79.3104 91.24 79.5984 91.112C80.1584 90.76 80.6224 90.888 80.9584 91.448C81.2304 91.896 81.1184 92.328 80.6864 92.632C79.9824 93.032 79.1824 93.224 78.4464 93.224C77.2144 93.224 76.1264 92.792 75.3424 91.992ZM90.6075 85.048C91.4075 85.848 91.9195 87.032 91.9195 88.52C91.9195 90.008 91.4075 91.176 90.6075 91.992C89.8075 92.792 88.7355 93.224 87.6155 93.224C85.3595 93.224 83.3115 91.496 83.3115 88.52C83.3115 85.544 85.3595 83.816 87.6155 83.816C88.7355 83.816 89.8075 84.248 90.6075 85.048ZM86.2075 86.504C85.8875 86.984 85.7115 87.672 85.7115 88.52C85.7115 89.368 85.8875 90.056 86.2075 90.552C86.5275 91.032 87.0075 91.304 87.6155 91.304C88.8315 91.304 89.5195 90.216 89.5195 88.52C89.5195 86.84 88.8315 85.736 87.6155 85.736C87.0075 85.736 86.5275 86.008 86.2075 86.504ZM102.959 86.616V92.04C102.959 92.68 102.575 93 101.935 93C101.375 93 100.991 92.712 100.879 92.168L100.863 92.072H100.799C100.143 92.728 99.2471 93.224 98.3191 93.224C96.0791 93.224 94.6551 91.464 94.6551 88.52C94.6551 85.608 96.4951 83.816 98.4151 83.816C99.4231 83.816 100.047 84.2 100.687 84.792L100.607 83.384V81.272C100.607 80.648 101.023 80.232 101.647 80.232H101.775H102.415C102.751 80.232 102.959 80.44 102.959 80.776V86.616ZM97.5511 90.584C97.8711 91.048 98.3351 91.288 98.9271 91.288C99.5511 91.288 100.095 91.032 100.607 90.36V88.392V86.424C100.063 85.928 99.5031 85.752 98.9271 85.752C97.9191 85.752 97.0711 86.712 97.0711 88.488C97.0711 89.416 97.2471 90.12 97.5511 90.584ZM112.6 89.192H111.224H108.472C108.664 90.648 109.624 91.4 110.968 91.4C111.4 91.4 111.8 91.32 112.184 91.176C112.68 90.936 113.112 91.064 113.384 91.544C113.624 91.992 113.544 92.36 113.112 92.616C112.36 93 111.496 93.224 110.648 93.224C108.136 93.224 106.184 91.48 106.184 88.52C106.184 85.624 108.232 83.816 110.36 83.816C112.824 83.816 114.104 85.608 114.104 88.104C114.104 88.344 114.088 88.568 114.072 88.776C114.024 89 113.8 89.192 113.496 89.192H112.6ZM109.128 86.136C108.776 86.472 108.52 86.952 108.424 87.608H110.248H112.088C112.088 86.408 111.56 85.64 110.392 85.64C109.928 85.64 109.48 85.8 109.128 86.136Z" fill="#527ACC"/>
<defs>
<filter id="filter0_f_7030_10289" x="24" y="64" width="80" height="24" filterUnits="userSpaceOnUse" color-interpolation-filters="sRGB">
<feFlood flood-opacity="0" result="BackgroundImageFix"/>
<feBlend mode="normal" in="SourceGraphic" in2="BackgroundImageFix" result="shape"/>
<feGaussianBlur stdDeviation="4" result="effect1_foregroundBlur_7030_10289"/>
</filter>
<radialGradient id="paint0_radial_7030_10289" cx="0" cy="0" r="1" gradientUnits="userSpaceOnUse" gradientTransform="translate(64 33.3333) rotate(90) scale(42.6667)">
<stop offset="0.2" stop-color="white"/>
<stop offset="1" stop-color="#99DDFF"/>
</radialGradient>
</defs>
</svg>
