<svg width="162" height="177" viewBox="0 0 162 177" fill="none" xmlns="http://www.w3.org/2000/svg">
<path d="M70.2747 23.6108C39.6058 21.5223 45.3189 50.2164 45.3189 50.2164" stroke="white" stroke-width="3" stroke-linecap="round" stroke-linejoin="round"/>
<path d="M65.3281 28.0084L70.2748 23.6108" stroke="white" stroke-width="3" stroke-linecap="round" stroke-linejoin="round"/>
<path d="M65.0352 19.4321L70.4221 23.61" stroke="white" stroke-width="3" stroke-linecap="round" stroke-linejoin="round"/>
<path d="M25.9071 68.4069C25.9392 63.5818 28.5262 61.6258 34.7444 61.6208C47.7876 61.6118 65.8997 61.6118 78.9422 61.6208V64.7858H36.0018V105.799H79.7661C80.1343 106.556 80.6602 107.226 81.3081 107.764C81.9561 108.301 82.7114 108.695 83.5234 108.917C69.0513 108.917 49.5096 108.914 35.0369 108.908C28.4917 108.897 25.9242 106.977 25.8997 101.965C25.8388 90.7791 25.8412 79.593 25.9071 68.4069ZM31.393 80.1084L30.0056 80.0763V90.4682L31.393 90.4893V80.1084ZM30.7003 94.8437C30.8332 94.8474 30.965 94.8246 31.0889 94.7766C31.2128 94.7285 31.3263 94.6563 31.4219 94.564C31.5175 94.4717 31.5935 94.3612 31.6459 94.239C31.6982 94.1169 31.7258 93.9856 31.7267 93.8527C31.7256 93.7198 31.6983 93.5885 31.6459 93.4664C31.5935 93.3442 31.517 93.2338 31.4214 93.1415C31.3259 93.0491 31.2128 92.9767 31.0889 92.9285C30.9651 92.8803 30.8332 92.8574 30.7003 92.8609C30.5676 92.8575 30.4354 92.8806 30.3117 92.9288C30.188 92.9771 30.075 93.0495 29.9796 93.1418C29.8842 93.2341 29.8083 93.3446 29.756 93.4667C29.7038 93.5887 29.6762 93.7199 29.6752 93.8527C29.6762 93.985 29.7037 94.1158 29.7556 94.2375C29.8076 94.3592 29.8831 94.4693 29.978 94.5615C30.0729 94.6537 30.1849 94.7262 30.308 94.7746C30.4311 94.8231 30.5627 94.8465 30.695 94.8437H30.7003Z" fill="white"/>
<path d="M81.651 9.17961C81.6645 2.63438 83.8741 0.0676394 89.6488 0.0406034C102.535 -0.0157214 115.421 -0.0134206 128.307 0.0474103C133.868 0.0778257 136.121 2.65976 136.125 8.8831C136.15 39.2512 136.15 69.6196 136.125 99.9883C136.12 106.409 133.844 108.877 127.947 108.897C115.34 108.938 102.734 108.936 90.1269 108.892C83.7701 108.875 81.6578 106.498 81.6468 99.3597C81.6209 84.4054 81.6183 69.4512 81.6386 54.4969C81.6411 39.394 81.6189 24.2868 81.651 9.17961ZM98.6016 3.81293C98.3344 3.8187 98.0803 3.92988 97.8946 4.12213C97.7088 4.31438 97.6065 4.57221 97.6099 4.83953C97.6067 5.10669 97.7092 5.36424 97.895 5.55631C98.0807 5.74837 98.3345 5.85942 98.6016 5.86519C98.8688 5.85942 99.123 5.74837 99.3087 5.55631C99.4945 5.36424 99.597 5.10669 99.5938 4.83953C99.5972 4.57221 99.4949 4.31438 99.3091 4.12213C99.1234 3.92988 98.8689 3.8187 98.6016 3.81293ZM102.126 4.14162C102.116 4.6063 102.106 5.07126 102.098 5.53651H115.597C115.612 5.07182 115.626 4.60686 115.639 4.14162H102.126ZM108.892 106.168C110.125 106.168 111.307 105.678 112.178 104.807C113.05 103.935 113.539 102.753 113.539 101.521C113.539 100.288 113.05 99.1064 112.178 98.235C111.307 97.3635 110.125 96.874 108.892 96.874C107.66 96.874 106.478 97.3635 105.606 98.235C104.735 99.1064 104.246 100.288 104.246 101.521C104.246 102.753 104.735 103.935 105.606 104.807C106.478 105.678 107.66 106.168 108.892 106.168ZM85.2285 93.6762H132.477V10.1402H85.2285V93.6762Z" fill="white"/>
<path d="M25.074 133.614H21.942L23.364 133.128C23.166 132.498 22.752 131.49 22.392 130.734L20.592 131.256C20.898 131.994 21.276 132.93 21.438 133.614H18.702V135.306H25.074V133.614ZM24.57 138.528H19.17V140.148H24.57V138.528ZM22.734 142.758V144.828H20.988V142.758H22.734ZM24.588 141.066H19.17V147.222H20.988V146.502H24.588V141.066ZM19.188 137.7H24.588V136.08H19.188V137.7ZM27.882 143.388C27.9 143.1 27.918 142.812 27.936 142.524H32.544V143.388H27.882ZM32.544 140.292V141.138H27.936V140.292H32.544ZM34.524 138.726H26.01V141.93C26.01 143.334 25.902 145.026 24.84 146.286C25.254 146.52 26.046 147.258 26.352 147.636C27.036 146.844 27.45 145.818 27.666 144.774H32.544V145.53C32.544 145.728 32.472 145.8 32.238 145.8C32.022 145.8 31.266 145.8 30.6 145.782C30.834 146.25 31.086 146.97 31.158 147.474C32.292 147.492 33.138 147.456 33.732 147.186C34.362 146.916 34.524 146.448 34.524 145.548V138.726ZM31.23 136.458V135.666H34.794V134.244H31.23V133.524H35.154V131.994H31.23V130.68H29.16V131.994H25.434V133.524H29.16V134.244H25.884V135.666H29.16V136.458H25.164V137.988H35.388V136.458H31.23ZM41.202 144.036H48.762V145.044H41.202V144.036ZM48.762 136.53V137.484H41.202V136.53H48.762ZM48.762 139.95H41.202V139.05H48.762V139.95ZM41.202 141.516H48.762V142.47H41.202V141.516ZM50.94 145.044V134.766H45.45C45.522 134.46 45.594 134.172 45.648 133.848H52.776V131.958H46.008C46.08 131.58 46.152 131.202 46.206 130.86L43.812 130.626C43.794 131.04 43.758 131.49 43.722 131.958H37.242V133.848H43.488C43.452 134.172 43.398 134.46 43.344 134.766H39.132V145.044H36.792V146.97H53.244V145.044H50.94ZM70.416 133.902H62.514L64.44 133.344C64.242 132.57 63.846 131.382 63.468 130.482L61.326 131.022C61.65 131.904 62.01 133.092 62.19 133.902H55.656V136.062H70.416V133.902ZM61.686 143.622C61.38 141.696 60.732 138.852 60.048 136.584L57.888 137.106C58.5 139.338 59.184 142.29 59.382 144.216L61.686 143.622ZM65.988 144.648C66.798 142.56 67.734 139.716 68.418 137.106L65.988 136.638C65.52 139.176 64.566 142.452 63.666 144.648H54.846V146.826H71.172V144.648H65.988ZM89.244 139.896H82.134V137.79H88.182V135.738H82.134V133.38C84.114 133.146 86.004 132.84 87.606 132.426L86.058 130.644C83.106 131.418 78.174 131.904 73.836 132.084C74.052 132.552 74.322 133.416 74.376 133.974C76.14 133.902 78.03 133.794 79.902 133.632V135.738H74.016V137.79H79.902V139.896H72.792V141.984H79.902V144.882C79.902 145.242 79.74 145.368 79.326 145.386C78.93 145.386 77.418 145.386 76.086 145.332C76.428 145.908 76.842 146.844 76.968 147.456C78.804 147.474 80.1 147.42 80.964 147.096C81.81 146.754 82.134 146.196 82.134 144.918V141.984H89.244V139.896ZM95.904 139.446C95.652 139.014 94.626 137.34 94.23 136.8V136.008H95.454V134.028H94.23V130.68H92.394V134.028H90.81V136.008H92.286C91.89 138.042 91.17 140.364 90.324 141.642C90.612 142.182 91.008 143.154 91.17 143.748C91.602 142.956 92.034 141.804 92.394 140.562V147.474H94.23V139.122C94.536 139.77 94.824 140.418 94.968 140.868L95.904 139.446ZM104.526 141.57C104.238 142.128 103.878 142.65 103.464 143.136C103.284 142.668 103.122 142.164 102.978 141.57H104.526ZM104.922 141.57H107.01V139.932H105.57L106.038 139.5C105.732 139.194 105.156 138.762 104.67 138.402C104.976 138.348 105.354 138.294 105.804 138.222C105.876 138.492 105.93 138.744 105.966 138.942L107.244 138.51C107.1 137.862 106.74 136.728 106.416 135.9L105.192 136.242C105.282 136.458 105.354 136.728 105.444 136.98L104.436 137.106C105.3 136.026 106.182 134.64 106.848 133.29L105.3 132.786C105.156 133.146 104.994 133.542 104.832 133.902L104.022 133.956C104.544 133.146 105.066 132.156 105.426 131.184L103.896 130.77C103.59 131.958 102.978 133.182 102.816 133.488C102.618 133.812 102.42 134.046 102.204 134.1C102.366 134.514 102.618 135.216 102.708 135.54C102.888 135.45 103.176 135.36 104.112 135.234C103.77 135.846 103.446 136.332 103.284 136.512C102.96 136.962 102.69 137.25 102.402 137.34C102.564 137.736 102.816 138.51 102.888 138.816C103.05 138.726 103.32 138.636 104.166 138.492L103.356 139.158C103.644 139.392 103.986 139.662 104.292 139.932H102.636C102.186 137.484 101.952 134.352 101.88 130.824H100.116C100.152 131.76 100.188 132.696 100.224 133.56L98.73 133.074C98.586 133.434 98.406 133.812 98.226 134.19L97.416 134.244C97.974 133.38 98.55 132.282 98.964 131.256L97.416 130.842C97.092 132.102 96.426 133.398 96.228 133.722C96.03 134.082 95.796 134.298 95.58 134.37C95.76 134.766 95.994 135.486 96.084 135.81C96.264 135.72 96.57 135.63 97.524 135.504C97.146 136.134 96.822 136.602 96.66 136.8C96.354 137.25 96.066 137.538 95.778 137.61C95.94 138.006 96.192 138.78 96.264 139.068C96.516 138.942 96.93 138.816 99.09 138.51C99.144 138.744 99.18 138.942 99.198 139.122L100.512 138.726C100.404 138.06 100.116 136.962 99.81 136.134L98.568 136.458C98.64 136.692 98.73 136.98 98.802 137.268L97.794 137.376C98.658 136.314 99.54 134.946 100.242 133.632C100.368 135.972 100.548 138.096 100.854 139.932H95.832V141.57H96.894C96.84 143.01 96.354 144.846 94.446 146.25C94.842 146.466 95.598 147.132 95.868 147.474C97.182 146.448 97.92 145.152 98.316 143.856C98.838 144.342 99.36 144.81 99.666 145.17L100.962 143.892C100.44 143.388 99.414 142.56 98.676 141.966C98.694 141.84 98.694 141.696 98.712 141.57H101.16C101.412 142.668 101.7 143.622 102.078 144.45C101.178 145.116 100.134 145.674 98.982 146.07C99.342 146.412 99.846 147.06 100.08 147.438C101.106 147.042 102.078 146.538 102.924 145.944C103.626 146.844 104.508 147.384 105.57 147.474C106.344 147.528 107.064 146.898 107.532 144.666C107.19 144.468 106.488 143.946 106.182 143.532C106.056 144.792 105.84 145.44 105.498 145.404C105.084 145.35 104.706 145.134 104.382 144.756C105.174 143.982 105.84 143.1 106.344 142.11L104.922 141.57ZM116.298 139.176V137.394H118.512V138.942V139.176H116.298ZM122.868 137.394V139.176H120.636V138.96V137.394H122.868ZM124.92 140.904V135.648H120.636V134.388H125.406V132.444H120.636V130.806H118.512V132.444H114.12C114.282 132.048 114.444 131.67 114.606 131.292L112.626 130.644C111.654 133.2 109.98 135.738 108.27 137.358C108.63 137.88 109.206 139.032 109.404 139.554C109.908 139.05 110.394 138.474 110.88 137.862V147.528H112.914V134.802C113.31 134.118 113.67 133.434 113.994 132.732V134.388H118.512V135.648H114.372V140.904H118.386C118.278 141.642 118.08 142.308 117.72 142.956C117.054 142.416 116.478 141.804 116.046 141.102L114.3 141.642C114.912 142.668 115.632 143.586 116.514 144.324C115.74 144.918 114.678 145.386 113.238 145.71C113.67 146.16 114.3 147.024 114.57 147.492C116.172 147.024 117.396 146.358 118.26 145.566C119.934 146.52 121.986 147.15 124.416 147.456C124.686 146.898 125.244 146.016 125.694 145.548C123.264 145.332 121.194 144.828 119.538 144.036C120.078 143.082 120.384 142.02 120.528 140.904H124.92ZM136.26 140.22V138.006H140.058V140.22H136.26ZM130.662 140.22C130.698 139.554 130.716 138.906 130.716 138.33V138.006H134.1V140.22H130.662ZM134.1 133.92V136.008H130.716V133.92H134.1ZM140.058 136.008H136.26V133.92H140.058V136.008ZM142.182 131.886H128.592V138.312C128.592 140.832 128.43 144.036 126.468 146.196C126.954 146.448 127.818 147.186 128.16 147.582C129.456 146.178 130.104 144.198 130.428 142.236H134.1V147.258H136.26V142.236H140.058V144.936C140.058 145.26 139.932 145.368 139.59 145.368C139.266 145.368 138.078 145.386 137.07 145.332C137.34 145.89 137.682 146.808 137.754 147.384C139.374 147.402 140.472 147.366 141.21 147.006C141.93 146.682 142.182 146.106 142.182 144.954V131.886ZM11.124 163.124C10.584 161.882 9.45001 160.118 8.28001 158.804L6.33601 159.776C7.41601 161.108 8.56801 162.998 9.01801 164.24L11.124 163.124ZM7.83001 166.31C6.93001 166.67 6.01201 167.048 5.11201 167.426L4.78801 157.688L2.55601 157.778L2.91601 168.29C2.01601 168.65 1.20601 168.938 0.522008 169.172L1.24201 171.458C3.27601 170.612 5.94001 169.478 8.31601 168.416L7.83001 166.31ZM17.604 171.692C16.776 170.432 15.102 168.614 13.608 167.066C14.778 164.618 15.426 161.612 15.804 157.922L13.446 157.706C12.78 165.104 10.926 169.46 5.22001 171.62C5.74201 172.07 6.62401 173.042 6.93001 173.51C9.30601 172.448 11.088 171.008 12.402 169.136C13.734 170.648 15.084 172.304 15.768 173.474L17.604 171.692ZM33.282 160.208H32.328V159.38H33.282V160.208ZM33.282 162.35H32.328V161.504H33.282V162.35ZM27.954 161.504H28.872V162.35H27.954V161.504ZM27.954 159.38H28.872V160.208H27.954V159.38ZM31.032 161.504V162.35H30.168V161.504H31.032ZM30.168 160.208V159.38H31.032V160.208H30.168ZM34.938 157.976H32.616V156.698H30.942V157.976H30.15V156.698H28.494V157.976H26.37V163.754H34.938V157.976ZM35.28 164.366H26.1V165.896H35.28V164.366ZM21.366 167.408C21.888 167.804 22.446 168.29 22.752 168.596L23.472 167.804V168.596C22.662 168.992 21.924 169.352 21.312 169.604C21.348 169.01 21.366 168.47 21.366 167.948V167.408ZM21.096 158.75H23.544V159.488H21.798V162.368H21.096V158.75ZM22.878 162.368V160.694H23.544V162.368H22.878ZM24.426 164.528H20.304V163.808H24.426V164.528ZM21.366 165.914H23.472V167.39C23.076 167.066 22.5 166.67 21.978 166.328L21.366 166.94V165.914ZM26.046 165.158V162.368H25.29V157.238H19.44V162.368H18.756V165.158H19.638V167.912C19.638 169.352 19.566 171.17 18.684 172.52C19.08 172.7 19.872 173.24 20.178 173.546C20.808 172.61 21.114 171.314 21.258 170.09L21.726 171.098C22.302 170.756 22.878 170.378 23.472 169.982V171.62C23.472 171.782 23.418 171.854 23.238 171.854C23.076 171.854 22.536 171.854 22.032 171.836C22.248 172.268 22.464 172.952 22.518 173.402C23.472 173.402 24.138 173.384 24.606 173.114C25.11 172.844 25.236 172.412 25.236 171.638V165.158H26.046ZM31.914 170C31.77 170.504 31.536 171.116 31.32 171.656H29.862C29.7 171.152 29.466 170.54 29.25 170H31.914ZM28.656 167.786H32.562V168.722H28.656V167.786ZM33.084 171.656C33.336 171.26 33.588 170.828 33.876 170.378L32.49 170H34.542V166.49H26.802V170H28.692L27.558 170.342C27.738 170.738 27.9 171.206 28.044 171.656H25.92V173.204H35.424V171.656H33.084ZM37.638 172.268C37.944 171.26 38.178 169.55 38.304 168.362L37.224 167.984C37.098 169.172 36.828 170.828 36.486 171.872L37.638 172.268ZM38.484 168.362C38.574 169.406 38.61 170.774 38.574 171.674L39.51 171.566C39.51 170.666 39.456 169.334 39.348 168.29L38.484 168.362ZM39.546 168.236C39.78 169.154 39.978 170.378 40.032 171.17L40.932 170.99C40.86 170.216 40.626 169.028 40.41 168.092L39.546 168.236ZM39.06 164.51H40.176V165.644H39.06V164.51ZM40.176 159.11V160.298H39.06V159.11H40.176ZM40.176 162.944H39.06V161.882H40.176V162.944ZM46.71 160.64C47.34 160.136 47.934 159.596 48.456 159.002C49.068 159.578 49.752 160.118 50.454 160.64H46.71ZM45.45 167.93C45.126 169.658 44.442 171.224 43.38 172.232C43.596 171.404 43.686 169.676 43.776 166.328C43.794 166.112 43.794 165.644 43.794 165.644H41.796V164.51H43.398V162.944H41.796V161.882H43.344L43.362 160.892C43.74 161.216 44.28 161.792 44.532 162.134C44.964 161.882 45.36 161.63 45.774 161.36V162.26H51.066V161.072C51.624 161.45 52.182 161.792 52.74 162.062C52.866 161.54 53.226 160.586 53.532 160.1C52.146 159.578 50.58 158.624 49.5 157.67C49.626 157.49 49.752 157.31 49.86 157.112L47.952 156.446C46.998 158.012 45.252 159.65 43.344 160.712V160.298H41.796V159.11H43.632V157.364H37.404V167.39H42.102C42.066 168.254 42.048 168.956 42.012 169.532C41.85 168.992 41.598 168.326 41.382 167.804L40.626 168.056C40.896 168.776 41.22 169.73 41.346 170.378L41.976 170.144C41.904 171.08 41.832 171.512 41.724 171.692C41.598 171.872 41.472 171.89 41.274 171.89C41.094 171.89 40.716 171.89 40.266 171.836C40.482 172.268 40.662 172.934 40.68 173.42C41.256 173.438 41.814 173.42 42.174 173.348C42.588 173.294 42.894 173.15 43.164 172.754C43.236 172.664 43.29 172.538 43.344 172.358C43.758 172.664 44.424 173.204 44.694 173.51C45.288 172.898 45.81 172.124 46.242 171.224C46.746 171.602 47.232 172.034 47.52 172.34L48.564 170.954C48.204 170.558 47.52 170.036 46.872 169.64C47.016 169.19 47.142 168.722 47.25 168.254L45.45 167.93ZM50.076 164.546H51.21V166.238H50.076V164.546ZM48.69 167.588H52.686V163.214H48.69V167.588ZM45.648 164.546H46.638V166.238H45.648V164.546ZM44.262 167.588H48.114V163.214H44.262V167.588ZM49.842 167.858C49.572 169.658 48.96 171.296 47.916 172.322C48.366 172.592 49.158 173.186 49.464 173.51C49.86 173.078 50.22 172.538 50.526 171.962C51.138 172.43 51.75 172.934 52.092 173.312L53.334 171.854C52.866 171.404 52.002 170.774 51.246 170.27C51.462 169.604 51.624 168.902 51.75 168.182L49.842 167.858ZM57.438 160.586H68.4V162.998H70.65V158.534H64.44C64.206 157.868 63.828 157.112 63.468 156.482L61.272 157.13C61.488 157.562 61.704 158.048 61.884 158.534H55.314V162.998H57.438V160.586ZM67.572 163.862V161.882H58.284V163.862H67.572ZM66.942 171.278C66.312 171.278 66.204 171.206 66.204 170.63V167.192H71.01V165.176H54.972V167.192H59.418C59.256 169.784 58.716 171.008 54.648 171.674C55.062 172.106 55.62 172.952 55.782 173.492C60.534 172.556 61.38 170.63 61.614 167.192H64.026V170.648C64.026 172.592 64.53 173.24 66.618 173.24H68.868C70.56 173.24 71.118 172.538 71.352 169.928C70.758 169.784 69.858 169.442 69.426 169.118C69.336 170.972 69.246 171.278 68.67 171.278H66.942ZM82.008 170.378H86.652V168.812H82.008V167.912H88.092V166.184H73.89V167.912H79.902V171.296H77.526V168.596H75.474V171.296H72.81V173.06H89.208V171.296H82.008V170.378ZM85.95 160.226C85.734 160.874 85.464 161.432 85.104 161.936C84.618 161.378 84.222 160.82 83.934 160.226H85.95ZM78.12 163.646V163.052H78.606L78.12 163.646ZM75.042 160.892H76.248V161.81H75.042V160.892ZM79.218 160.892V161.81H78.12V160.892H79.218ZM89.136 160.226V158.516H84.636C84.798 158.066 84.96 157.616 85.104 157.148L83.196 156.698C82.782 158.246 81.99 159.704 80.964 160.694V159.632H78.12V159.02H81.234V157.526H78.12V156.662H76.248V157.526H72.972V159.02H76.248V159.632H73.386V163.052H75.492C74.7 163.772 73.62 164.42 72.594 164.798C72.99 165.104 73.53 165.734 73.8 166.148C74.628 165.734 75.51 165.104 76.248 164.366V165.788H78.12V163.952C78.822 164.366 79.632 164.942 80.046 165.356L80.928 164.168C80.55 163.844 79.884 163.412 79.254 163.052H80.964V161.216C81.36 161.612 81.846 162.152 82.062 162.44C82.332 162.206 82.584 161.918 82.836 161.612C83.142 162.152 83.502 162.674 83.898 163.178C83.088 163.826 82.044 164.294 80.82 164.636C81.198 164.996 81.828 165.77 82.008 166.166C83.25 165.734 84.294 165.176 85.194 164.456C86.04 165.194 87.084 165.788 88.308 166.202C88.56 165.716 89.082 164.924 89.478 164.546C88.308 164.24 87.282 163.754 86.472 163.16C87.102 162.35 87.606 161.378 87.948 160.226H89.136ZM96.588 162.278C96.588 164.222 96.426 167.12 94.932 169.118C95.328 169.37 95.94 169.964 96.21 170.324C97.65 168.524 98.118 165.986 98.244 163.88H99.342C99.216 167.282 99.072 168.506 98.856 168.848C98.73 169.028 98.604 169.082 98.406 169.082C98.172 169.082 97.794 169.082 97.362 169.028C97.596 169.496 97.776 170.216 97.812 170.738C98.424 170.756 99 170.738 99.36 170.684C99.81 170.594 100.134 170.45 100.422 170.018C100.854 169.442 100.998 167.66 101.16 162.89C101.16 162.656 101.178 162.152 101.178 162.152H98.28V160.748H100.764L100.692 160.838C101.034 161.054 101.592 161.486 101.952 161.792V162.872H104.4C104.112 163.214 103.77 163.538 103.446 163.79V164.798H101.448V166.49H103.446V168.65C103.446 168.83 103.392 168.884 103.176 168.884C102.978 168.884 102.312 168.884 101.664 168.866C101.934 169.37 102.186 170.108 102.24 170.63C103.266 170.63 104.022 170.594 104.562 170.306C105.156 170.018 105.264 169.532 105.264 168.686V166.49H107.352V164.798H105.264V164.204C105.984 163.556 106.686 162.8 107.262 162.08L106.128 161.198L105.786 161.306H102.6C102.798 160.964 102.996 160.622 103.176 160.244H107.388V158.498H103.968C104.148 158.03 104.328 157.562 104.454 157.094L102.672 156.59C102.33 157.796 101.844 159.038 101.232 160.028V159.002H99.486L99.63 158.966C99.504 158.336 99.18 157.382 98.91 156.644L97.038 156.986C97.254 157.598 97.47 158.39 97.614 159.002H95.202V160.748H96.588V162.278ZM94.878 159.434C94.428 158.696 93.564 157.562 92.826 156.698L91.188 157.598C91.89 158.48 92.754 159.74 93.168 160.496L94.878 159.434ZM94.554 165.158L94.212 165.212H93.24C94.14 163.97 95.202 162.278 95.832 161.288L94.518 160.748L94.248 160.856H90.792V162.566H93.024C92.412 163.52 91.746 164.51 91.44 164.816C91.116 165.176 90.828 165.32 90.522 165.392C90.72 165.788 91.116 166.688 91.224 167.138C91.368 166.994 91.908 166.868 92.322 166.868H93.366C92.862 169.28 91.872 171.08 90.396 172.124C90.792 172.394 91.512 173.114 91.782 173.546C92.592 172.916 93.312 172.034 93.906 170.918C95.274 172.826 97.38 173.186 100.71 173.186C102.816 173.186 105.102 173.132 106.974 173.024C107.082 172.43 107.352 171.476 107.658 171.044C105.624 171.242 102.672 171.35 100.746 171.35C97.722 171.332 95.688 171.08 94.644 169.118C95.004 168.074 95.274 166.868 95.454 165.536L94.554 165.158ZM125.226 159.812C124.866 159.074 124.11 157.85 123.534 156.95L121.968 157.724C122.526 158.642 123.228 159.938 123.57 160.694L125.226 159.812ZM111.15 160.964H113.094V161.882L111.294 162.026L111.42 163.124L113.094 162.962C113.094 164.078 113.364 164.672 114.696 164.672H116.622C117.09 164.672 117.648 164.654 117.918 164.546C117.846 164.15 117.828 163.826 117.792 163.376C117.522 163.466 116.874 163.484 116.532 163.484H115.236C114.84 163.484 114.804 163.322 114.804 162.944V162.818L116.532 162.656L116.388 161.594L114.804 161.72V160.964H117C116.91 161.486 116.802 161.99 116.712 162.35L118.224 162.62C118.476 161.9 118.764 160.748 118.962 159.776L117.684 159.56L117.432 159.614H114.714V158.948H118.422V157.58H114.714V156.68H112.734V159.614H109.404V164.492C109.404 166.778 109.332 169.946 108.324 172.178C108.684 172.376 109.476 172.988 109.764 173.312C110.934 170.864 111.15 167.03 111.15 164.492V160.964ZM118.548 165.05H111.51V166.364H118.548V165.05ZM113.49 167.894H116.46V168.722H113.49V167.894ZM118.152 169.73V166.868H111.888V169.73H118.152ZM123.552 163.52C123.228 164.69 122.76 165.878 122.184 166.958C122.04 165.914 121.914 164.654 121.806 163.304L125.406 162.818L125.172 160.964L121.698 161.432C121.626 159.956 121.572 158.39 121.572 156.77H119.61C119.646 158.516 119.7 160.154 119.772 161.684L118.53 161.846L118.782 163.718L119.898 163.574C120.06 165.824 120.294 167.768 120.654 169.316C119.988 170.144 119.25 170.828 118.476 171.368V171.098L117.018 171.206C117.252 170.828 117.486 170.45 117.72 170.036L115.956 169.784C115.812 170.234 115.56 170.81 115.326 171.314L114.354 171.386C114.246 170.918 114.048 170.36 113.85 169.892L112.41 170.144C112.554 170.558 112.716 171.044 112.824 171.494L110.88 171.62L111.078 173.168C113.094 173.042 115.848 172.808 118.476 172.574V171.836C118.89 172.16 119.358 172.61 119.646 172.988C120.24 172.574 120.78 172.052 121.32 171.476C121.878 172.7 122.58 173.402 123.516 173.438C124.218 173.456 125.1 172.772 125.55 169.784C125.208 169.586 124.38 169.01 124.074 168.578C123.984 170.09 123.804 170.936 123.534 170.936C123.246 170.918 122.958 170.45 122.724 169.658C123.786 168.056 124.614 166.202 125.136 164.366L123.552 163.52ZM140.328 161.792C140.076 163.628 139.68 165.23 139.104 166.598C138.564 165.464 138.15 164.222 137.826 162.926C137.97 162.566 138.096 162.188 138.222 161.792H140.328ZM143.226 161.792V159.812H138.78C138.996 158.894 139.194 157.94 139.32 156.986L137.358 156.662C136.98 159.362 136.332 161.972 135.252 163.862C134.802 162.98 134.1 161.936 133.398 161.072H135.45V159.146H131.31L132.444 158.696C132.264 158.12 131.796 157.256 131.328 156.608L129.51 157.256C129.852 157.832 130.23 158.552 130.446 159.146H126.882V161.072H133.056L131.742 161.81C132.3 162.53 132.876 163.412 133.308 164.222L131.598 163.898C131.454 164.564 131.256 165.194 131.04 165.788C130.644 165.356 130.23 164.942 129.834 164.546L128.502 165.536C129.24 164.384 130.032 162.962 130.572 161.666L128.754 161.09C128.196 162.53 127.278 164.096 126.378 165.122C126.81 165.446 127.512 166.112 127.836 166.472C127.998 166.256 128.16 166.022 128.34 165.77C128.934 166.382 129.546 167.066 130.158 167.75C129.258 169.352 128.052 170.666 126.504 171.566C126.918 171.926 127.656 172.718 127.926 173.132C129.348 172.196 130.554 170.918 131.49 169.388C132.156 170.252 132.696 171.062 133.056 171.728L134.766 170.378C134.262 169.514 133.452 168.488 132.534 167.408C132.912 166.562 133.254 165.626 133.524 164.636C133.65 164.924 133.758 165.176 133.83 165.41L134.64 164.942C135.054 165.374 135.684 166.184 135.882 166.598C136.152 166.256 136.404 165.86 136.638 165.482C137.016 166.616 137.448 167.696 137.952 168.686C136.944 170.126 135.576 171.206 133.74 171.998C134.172 172.376 134.946 173.186 135.216 173.582C136.782 172.772 138.042 171.782 139.068 170.54C139.896 171.746 140.904 172.736 142.074 173.51C142.416 172.97 143.064 172.196 143.55 171.8C142.272 171.062 141.174 170 140.292 168.704C141.3 166.832 141.966 164.546 142.38 161.792H143.226ZM149.004 163.25V162.098H151.902V163.25H149.004ZM149.004 159.29H151.902V160.442H149.004V159.29ZM157.032 160.442H154.17V159.29H157.032V160.442ZM157.032 163.25H154.17V162.098H157.032V163.25ZM161.046 168.056V166.094H154.17V165.032H159.39V157.508H146.754V165.032H151.902V166.094H145.008V168.056H150.336C148.824 169.406 146.592 170.594 144.45 171.224C144.936 171.674 145.584 172.502 145.908 173.006C148.05 172.214 150.246 170.81 151.902 169.154V173.492H154.17V169.064C155.844 170.702 158.04 172.106 160.128 172.898C160.434 172.358 161.082 171.512 161.568 171.08C159.516 170.486 157.32 169.334 155.736 168.056H161.046Z" fill="white"/>
</svg>
