<svg width="60" height="58" viewBox="0 0 60 58" fill="none" xmlns="http://www.w3.org/2000/svg">
<rect x="14" width="32" height="32" rx="16" fill="#DC5511"/>
<path d="M28.6406 18.1445C28.5234 18.6367 28.4609 19.2461 28.4531 19.9727H31.0664C31.0742 19.3789 31.1562 18.8516 31.3125 18.3906C31.4688 17.9219 31.7656 17.4883 32.2031 17.0898C32.7109 16.6133 33.1836 16.1367 33.6211 15.6602C34.0586 15.1758 34.4141 14.6562 34.6875 14.1016C34.9609 13.5391 35.0977 12.9141 35.0977 12.2266C35.0977 11.2734 34.8984 10.4609 34.5 9.78906C34.1094 9.10938 33.543 8.59375 32.8008 8.24219C32.0586 7.88281 31.1641 7.70312 30.1172 7.70312C29.1719 7.70312 28.3164 7.87109 27.5508 8.20703C26.7852 8.54297 26.1758 9.04688 25.7227 9.71875C25.2695 10.3906 25.0352 11.2188 25.0195 12.2031H27.8438C27.8594 11.6875 27.9727 11.2734 28.1836 10.9609C28.3945 10.6406 28.6719 10.4062 29.0156 10.2578C29.3594 10.1016 29.7266 10.0234 30.1172 10.0234C30.5859 10.0234 30.9766 10.1133 31.2891 10.293C31.6094 10.4727 31.8516 10.7344 32.0156 11.0781C32.1797 11.4219 32.2617 11.8398 32.2617 12.332C32.2617 12.7852 32.1758 13.1875 32.0039 13.5391C31.832 13.8828 31.6016 14.2109 31.3125 14.5234C31.0234 14.8281 30.6992 15.1523 30.3398 15.4961C29.8789 15.9492 29.5078 16.3789 29.2266 16.7852C28.9531 17.1914 28.7578 17.6445 28.6406 18.1445Z" fill="#FFFBF8"/>
<path d="M28.6523 22.5625C28.3633 22.8516 28.2188 23.207 28.2188 23.6289C28.2188 24.0508 28.3633 24.4102 28.6523 24.707C28.9414 24.9961 29.3359 25.1406 29.8359 25.1406C30.3359 25.1406 30.7305 24.9961 31.0195 24.707C31.3086 24.4102 31.4531 24.0508 31.4531 23.6289C31.4531 23.207 31.3086 22.8516 31.0195 22.5625C30.7305 22.2656 30.3359 22.1172 29.8359 22.1172C29.3359 22.1172 28.9414 22.2656 28.6523 22.5625Z" fill="#FFFBF8"/>
<path d="M4.648 45.486H13.566V46.998H4.648V45.486ZM6.468 49.35V50.736H11.578V49.35H6.468ZM4.942 47.992H13.202V52.108H4.942V47.992ZM6.258 52.262C6.68733 52.9247 7.25667 53.4987 7.966 53.984C8.67533 54.46 9.52 54.8427 10.5 55.132C11.48 55.4213 12.5767 55.622 13.79 55.734C13.6687 55.8553 13.5427 56.0047 13.412 56.182C13.2907 56.3593 13.174 56.5413 13.062 56.728C12.9593 56.9147 12.8707 57.0827 12.796 57.232C11.536 57.064 10.402 56.7887 9.394 56.406C8.39533 56.0327 7.52267 55.538 6.776 54.922C6.03867 54.2967 5.40867 53.5453 4.886 52.668L6.258 52.262ZM8.176 44.198H9.842V50.582C9.842 51.1513 9.80467 51.7113 9.73 52.262C9.65533 52.8033 9.52 53.326 9.324 53.83C9.13733 54.3247 8.86667 54.7867 8.512 55.216C8.15733 55.6453 7.7 56.0327 7.14 56.378C6.58 56.7233 5.89867 57.0127 5.096 57.246C5.04 57.1247 4.94667 56.9753 4.816 56.798C4.69467 56.63 4.56867 56.4573 4.438 56.28C4.30733 56.112 4.18133 55.972 4.06 55.86C4.816 55.692 5.44133 55.4773 5.936 55.216C6.44 54.9453 6.84133 54.6373 7.14 54.292C7.43867 53.9467 7.66267 53.578 7.812 53.186C7.96133 52.7847 8.05933 52.3647 8.106 51.926C8.15267 51.4873 8.176 51.0347 8.176 50.568V44.198ZM3.584 44.072L5.138 44.576C4.82067 45.3693 4.44267 46.1627 4.004 46.956C3.57467 47.74 3.108 48.4867 2.604 49.196C2.10933 49.896 1.596 50.512 1.064 51.044C1.01733 50.904 0.942667 50.7267 0.84 50.512C0.737333 50.2973 0.625333 50.078 0.504 49.854C0.382667 49.63 0.275333 49.4527 0.182 49.322C0.63 48.8927 1.064 48.398 1.484 47.838C1.91333 47.278 2.30533 46.676 2.66 46.032C3.01467 45.388 3.32267 44.7347 3.584 44.072ZM2.212 47.964L3.808 46.368V46.382V57.288H2.212V47.964ZM18.074 45.038H26.656V46.648H18.074V45.038ZM18.074 48.272H26.684V49.84H18.074V48.272ZM18.046 51.576H26.74V53.158H18.046V51.576ZM17.108 45.038H18.76V50.078C18.76 50.6287 18.7367 51.2307 18.69 51.884C18.6433 52.5373 18.55 53.1953 18.41 53.858C18.2793 54.5113 18.0787 55.1367 17.808 55.734C17.5467 56.3313 17.2013 56.8633 16.772 57.33C16.688 57.218 16.562 57.092 16.394 56.952C16.226 56.812 16.0533 56.6767 15.876 56.546C15.708 56.4153 15.5633 56.3127 15.442 56.238C15.8247 55.818 16.128 55.356 16.352 54.852C16.576 54.3387 16.7393 53.8113 16.842 53.27C16.954 52.7193 17.024 52.1733 17.052 51.632C17.0893 51.0813 17.108 50.5587 17.108 50.064V45.038ZM26.068 45.038H27.748V55.272C27.748 55.72 27.692 56.0653 27.58 56.308C27.468 56.56 27.2673 56.7513 26.978 56.882C26.698 57.0127 26.3387 57.0967 25.9 57.134C25.4613 57.1713 24.92 57.1853 24.276 57.176C24.248 56.952 24.178 56.6813 24.066 56.364C23.954 56.0467 23.842 55.7807 23.73 55.566C24.0007 55.5753 24.2713 55.5847 24.542 55.594C24.8127 55.594 25.0507 55.594 25.256 55.594C25.4707 55.594 25.6247 55.594 25.718 55.594C25.8487 55.594 25.9373 55.5707 25.984 55.524C26.04 55.4773 26.068 55.3887 26.068 55.258V45.038ZM21.42 45.682H23.114V57.078H21.42V45.682ZM31.248 48.384H35.224V49.644H31.248V48.384ZM31.248 50.274H35.224V51.548H31.248V50.274ZM30.674 46.424H35.686V47.754H30.674V46.424ZM31.92 52.22H35.406V56.476H31.92V55.132H34.02V53.55H31.92V52.22ZM31.22 52.22H32.662V57.078H31.22V52.22ZM32.116 44.66L33.53 44.212C33.6793 44.5013 33.824 44.814 33.964 45.15C34.104 45.486 34.2113 45.78 34.286 46.032L32.816 46.564C32.7507 46.3027 32.6527 45.9947 32.522 45.64C32.3913 45.276 32.256 44.9493 32.116 44.66ZM37.618 52.094H39.242C39.2047 52.682 39.1347 53.2373 39.032 53.76C38.9387 54.2733 38.7847 54.754 38.57 55.202C38.3553 55.6407 38.0613 56.0373 37.688 56.392C37.3147 56.756 36.834 57.0733 36.246 57.344C36.19 57.204 36.106 57.05 35.994 56.882C35.882 56.7233 35.7607 56.5647 35.63 56.406C35.5087 56.2567 35.3873 56.1353 35.266 56.042C35.9193 55.7713 36.4047 55.4447 36.722 55.062C37.0487 54.67 37.268 54.2267 37.38 53.732C37.492 53.228 37.5713 52.682 37.618 52.094ZM39.886 51.66H41.51V55.146C41.51 55.342 41.524 55.468 41.552 55.524C41.58 55.5707 41.6407 55.594 41.734 55.594C41.762 55.594 41.804 55.594 41.86 55.594C41.9253 55.594 41.9907 55.594 42.056 55.594C42.1213 55.594 42.1633 55.594 42.182 55.594C42.266 55.594 42.3267 55.5613 42.364 55.496C42.4013 55.4213 42.4293 55.2767 42.448 55.062C42.4667 54.838 42.4807 54.5067 42.49 54.068C42.5927 54.1613 42.728 54.25 42.896 54.334C43.0733 54.418 43.2553 54.4927 43.442 54.558C43.6287 54.6233 43.792 54.6747 43.932 54.712C43.8853 55.3467 43.8013 55.8367 43.68 56.182C43.5587 56.5273 43.3953 56.77 43.19 56.91C42.9847 57.05 42.7187 57.12 42.392 57.12C42.3267 57.12 42.252 57.12 42.168 57.12C42.084 57.12 41.9953 57.12 41.902 57.12C41.818 57.12 41.734 57.12 41.65 57.12C41.566 57.12 41.4913 57.12 41.426 57.12C41.006 57.12 40.684 57.0547 40.46 56.924C40.236 56.8027 40.082 56.5973 39.998 56.308C39.9233 56.028 39.886 55.6407 39.886 55.146V51.66ZM38.262 49.336V50.89H40.74V49.336H38.262ZM36.68 47.866H42.392V52.346H36.68V47.866ZM37.688 44.282L39.242 44.758C38.9993 45.29 38.71 45.8173 38.374 46.34C38.0473 46.8533 37.6973 47.3387 37.324 47.796C36.96 48.244 36.5913 48.6407 36.218 48.986C36.134 48.874 36.0173 48.7433 35.868 48.594C35.728 48.4447 35.5787 48.3 35.42 48.16C35.2707 48.0107 35.1353 47.8893 35.014 47.796C35.546 47.3667 36.05 46.8393 36.526 46.214C37.0113 45.5887 37.3987 44.9447 37.688 44.282ZM39.788 44.94L40.964 44.142C41.328 44.5153 41.7013 44.926 42.084 45.374C42.476 45.822 42.8353 46.2653 43.162 46.704C43.498 47.1333 43.7593 47.5253 43.946 47.88L42.672 48.804C42.4947 48.4493 42.2473 48.048 41.93 47.6C41.6127 47.152 41.2627 46.6947 40.88 46.228C40.5067 45.7613 40.1427 45.332 39.788 44.94ZM47.208 44.87H51.24V53.466H47.208V51.94H49.686V46.396H47.208V44.87ZM47.236 48.37H50.288V49.868H47.236V48.37ZM53.214 44.674H57.498V46.228H53.214V44.674ZM53.214 48.006H57.498V49.518H53.214V48.006ZM53.186 51.324H57.484V52.836H53.186V51.324ZM46.326 44.87H47.88V54.684H46.326V44.87ZM56.882 44.674H58.548V55.328C58.548 55.7667 58.492 56.1073 58.38 56.35C58.2773 56.602 58.086 56.798 57.806 56.938C57.526 57.0687 57.1807 57.1527 56.77 57.19C56.3593 57.2273 55.86 57.246 55.272 57.246C55.244 57.0873 55.1973 56.9053 55.132 56.7C55.076 56.504 55.006 56.308 54.922 56.112C54.8473 55.9253 54.768 55.762 54.684 55.622C54.936 55.6313 55.188 55.6407 55.44 55.65C55.692 55.65 55.916 55.65 56.112 55.65C56.3173 55.6407 56.4573 55.636 56.532 55.636C56.6627 55.636 56.7513 55.6127 56.798 55.566C56.854 55.5193 56.882 55.4353 56.882 55.314V44.674ZM52.206 44.674H53.858V49.756C53.858 50.3533 53.8207 50.9973 53.746 51.688C53.6713 52.3787 53.5313 53.0693 53.326 53.76C53.13 54.4413 52.836 55.0947 52.444 55.72C52.052 56.336 51.534 56.882 50.89 57.358C50.806 57.246 50.6847 57.1153 50.526 56.966C50.3767 56.826 50.218 56.686 50.05 56.546C49.8913 56.406 49.7467 56.3033 49.616 56.238C50.2133 55.7993 50.6847 55.3187 51.03 54.796C51.3753 54.264 51.632 53.7133 51.8 53.144C51.968 52.5653 52.0753 51.9867 52.122 51.408C52.178 50.8293 52.206 50.274 52.206 49.742V44.674Z" fill="#DC5511"/>
</svg>
